#N canvas 56 122 1178 701 12;
#X obj 341 527 en.ar~;
#X obj 341 410 bng 19 250 50 0 empty empty empty 0 -10 0 12 #fcfcfc #000000 #000000;
#X obj 361 454 vsl 14 68 0 127 0 0 empty empty empty 0 -9 0 12 #fcfcfc #000000 #000000 0 1;
#X obj 375 454 vsl 14 68 0 127 0 0 empty empty empty 0 -9 0 12 #fcfcfc #000000 #000000 0 1;
#X obj 322 549 *~;
#X obj 242 352 hsl 128 16 0 0.5 0 0 empty empty VOLUME -2 -6 0 12 #00fc04 #000000 #000000 0 1;
#X obj 239 373 pack f 20;
#X obj 239 394 line~;
#X obj 195 411 *~;
#X obj 327 243 hsl 128 16 0 3 0 0 empty \$0-crossfade CROSSFADE -2 -6 0 12 #7c7c7c #fcfcfc #000000 0 1;
#X obj 324 285 line~;
#X floatatom 439 259 0 0 0 0 - - - 0;
#X msg 324 264 \$1 20;
#X obj 195 313 math/ma.4crossfade~;
#X msg 462 51 37;
#X msg 500 52 39;
#X msg 430 51 36;
#X msg 537 52 41;
#X msg 616 51 42;
#X msg 650 51 43;
#X msg 582 53 40;
#X msg 691 52 49;
#X obj 637 11 bng 19 250 50 0 empty empty empty 0 -10 0 12 #fcfcfc #000000 #000000;
#X obj 496 8 bng 19 250 50 0 empty empty empty 0 -10 0 12 #fcfcfc #000000 #000000;
#X obj 990 345 hsl 71 16 0 7 0 1 empty empty X\ Position -2 -6 0 12 #00faff #000000 #000000 3700 1;
#X obj 989 407 line~;
#X obj 936 364 mtof;
#X floatatom 936 385 5 0 0 0 - - - 0;
#X floatatom 989 366 5 0 0 0 - - - 0;
#X obj 990 290 nbx 4 16 2 4096 0 1 empty empty Waveform\ size\ in\ samples 0 -8 0 10 #00faff #000000 #000000 140 256;
#X obj 936 410 phasor~;
#X obj 936 343 nbx 4 16 0 127 0 1 empty empty MIDI 0 -8 0 10 #00faff #000000 #000000 41 256;
#X msg 989 386 \$1 250;
#X obj 1082 345 hsl 71 16 0 1 0 1 empty empty Y\ Position -2 -6 0 12 #00faff #000000 #000000 0 1;
#X obj 1079 407 line~;
#X floatatom 1079 366 5 0 0 0 - - - 0;
#X msg 1079 386 \$1 250;
#X obj 1172 345 hsl 71 16 0 3 0 1 empty empty Z\ Position -2 -6 0 12 #00faff #000000 #000000 5600 1;
#X obj 1169 407 line~;
#X floatatom 1169 366 5 0 0 0 - - - 0;
#X msg 1169 386 \$1 250;
#X obj 980 449 os.wavetable3d~ 256 8 2;
#X obj 620 344 hsl 71 16 0 7 0 1 empty empty X\ Position -2 -6 0 12 #00faff #000000 #000000 800 1;
#X obj 617 406 line~;
#X obj 557 346 mtof;
#X floatatom 557 367 5 0 0 0 - - - 0;
#X floatatom 617 365 5 0 0 0 - - - 0;
#X obj 768 380 nbx 4 16 2 4096 0 1 empty empty Waveform\ size\ in\ samples 0 -8 0 10 #00faff #000000 #000000 219 256;
#X obj 557 392 phasor~;
#X obj 557 325 nbx 4 16 0 127 0 1 empty empty MIDI 0 -8 0 10 #00faff #000000 #000000 37 256;
#X msg 617 385 \$1 250;
#X obj 710 344 hsl 71 16 0 7 0 1 empty empty Y\ Position -2 -6 0 12 #00faff #000000 #000000 1300 1;
#X obj 707 406 line~;
#X floatatom 707 365 5 0 0 0 - - - 0;
#X msg 707 385 \$1 250;
#X obj 814 408 nbx 4 16 1 8 0 1 empty empty Number\ of\ rows 0 -8 0 10 #00faff #000000 #000000 1 256;
#X obj 605 182 hsl 71 16 0 7 0 1 empty empty X\ Position -2 -6 0 12 #00faff #000000 #000000 1000 1;
#X obj 602 244 line~;
#X obj 542 184 mtof;
#X floatatom 542 205 5 0 0 0 - - - 0;
#X floatatom 602 203 5 0 0 0 - - - 0;
#X obj 746 231 nbx 4 16 2 4096 0 1 empty empty Waveform\ size\ in\ samples 0 -8 0 10 #00faff #000000 #000000 258 256;
#X obj 542 230 phasor~;
#X obj 542 163 nbx 4 16 0 127 0 1 empty empty MIDI 0 -8 0 10 #00faff #000000 #000000 36 256;
#X msg 602 223 \$1 250;
#X obj 695 182 hsl 71 16 0 7 0 1 empty empty Y\ Position -2 -6 0 12 #00faff #000000 #000000 1100 1;
#X obj 692 244 line~;
#X floatatom 692 203 5 0 0 0 - - - 0;
#X msg 692 223 \$1 250;
#X obj 798 251 nbx 4 16 1 8 0 1 empty empty Number\ of\ rows 0 -8 0 10 #00faff #000000 #000000 8 256;
#X obj 923 104 hsl 64 16 0 63 0 1 empty empty WAVETABLE-POSITION -2 -6 0 12 #00faff #000000 #000000 3000 1;
#X obj 917 164 line~;
#X obj 860 118 mtof;
#X floatatom 860 139 5 0 0 0 - - - 0;
#X floatatom 917 123 5 0 0 0 - - - 0;
#X obj 978 170 nbx 4 16 2 4096 0 1 empty empty Waveform\ size\ in\ samples 0 -8 0 10 #00faff #000000 #000000 232 256;
#X obj 860 164 phasor~;
#X obj 860 97 nbx 4 16 0 127 0 1 empty empty MIDI 0 -8 0 10 #00faff #000000 #000000 39 256;
#X msg 917 143 \$1 250;
#X obj 563 270 os.wavetable2d~ 256 8;
#X obj 578 432 os.wavetable2d~ 256 8;
#X obj 858 190 os.wavetable~ 256;
#X obj 156 87 hsl 101 16 0 1 0 0 empty empty VOLUME -2 -6 0 12 #00fc04 #000000 #000000 0 1;
#X obj 150 179 *~;
#X obj 153 108 pow 4;
#X obj 153 150 line~;
#X obj 153 129 pack f 20;
#X obj 269 95 hsl 101 16 0 1 0 0 empty empty VOLUME -2 -6 0 12 #00fc04 #000000 #000000 0 1;
#X obj 251 184 *~;
#X obj 266 116 pow 4;
#X obj 266 158 line~;
#X obj 266 137 pack f 20;
#X obj 380 97 hsl 101 16 0 1 0 0 empty empty VOLUME -2 -6 0 12 #00fc04 #000000 #000000 0 1;
#X obj 362 186 *~;
#X obj 377 118 pow 4;
#X obj 377 160 line~;
#X obj 377 139 pack f 20;
#X obj 36 87 hsl 101 16 0 1 0 0 empty empty VOLUME -2 -6 0 12 #00fc04 #000000 #000000 0 1;
#X obj 53 182 *~;
#X obj 68 114 pow 4;
#X obj 68 156 line~;
#X obj 68 135 pack f 20;
#X obj 86 278 cos~;
#X obj 195 442 dac~;
#X connect 0 0 4 1;
#X connect 1 0 0 0;
#X connect 2 0 0 1;
#X connect 3 0 0 2;
#X connect 5 0 6 0;
#X connect 6 0 7 0;
#X connect 7 0 8 1;
#X connect 8 0 103 0;
#X connect 8 0 103 1;
#X connect 9 0 11 0;
#X connect 9 0 12 0;
#X connect 10 0 13 4;
#X connect 12 0 10 0;
#X connect 14 0 49 0;
#X connect 15 0 77 0;
#X connect 16 0 63 0;
#X connect 17 0 31 0;
#X connect 18 0 31 0;
#X connect 19 0 63 0;
#X connect 20 0 49 0;
#X connect 21 0 77 0;
#X connect 22 0 20 0;
#X connect 22 0 18 0;
#X connect 22 0 19 0;
#X connect 22 0 21 0;
#X connect 23 0 16 0;
#X connect 23 0 14 0;
#X connect 23 0 15 0;
#X connect 23 0 17 0;
#X connect 24 0 28 0;
#X connect 25 0 41 1;
#X connect 26 0 27 0;
#X connect 27 0 30 0;
#X connect 28 0 32 0;
#X connect 29 0 41 5;
#X connect 30 0 41 0;
#X connect 31 0 26 0;
#X connect 32 0 25 0;
#X connect 33 0 35 0;
#X connect 34 0 41 2;
#X connect 35 0 36 0;
#X connect 36 0 34 0;
#X connect 37 0 39 0;
#X connect 38 0 41 3;
#X connect 39 0 40 0;
#X connect 40 0 38 0;
#X connect 41 0 83 0;
#X connect 42 0 46 0;
#X connect 43 0 80 1;
#X connect 44 0 45 0;
#X connect 45 0 48 0;
#X connect 46 0 50 0;
#X connect 47 0 80 4;
#X connect 48 0 80 0;
#X connect 49 0 44 0;
#X connect 50 0 43 0;
#X connect 51 0 53 0;
#X connect 52 0 80 2;
#X connect 53 0 54 0;
#X connect 54 0 52 0;
#X connect 55 0 80 5;
#X connect 56 0 60 0;
#X connect 57 0 79 1;
#X connect 58 0 59 0;
#X connect 59 0 62 0;
#X connect 60 0 64 0;
#X connect 61 0 79 4;
#X connect 62 0 79 0;
#X connect 63 0 58 0;
#X connect 64 0 57 0;
#X connect 65 0 67 0;
#X connect 66 0 79 2;
#X connect 67 0 68 0;
#X connect 68 0 66 0;
#X connect 69 0 79 5;
#X connect 70 0 74 0;
#X connect 71 0 81 1;
#X connect 72 0 73 0;
#X connect 73 0 76 0;
#X connect 74 0 78 0;
#X connect 75 0 81 3;
#X connect 76 0 81 0;
#X connect 77 0 72 0;
#X connect 78 0 71 0;
#X connect 79 0 93 0;
#X connect 80 0 88 0;
#X connect 81 0 98 0;
#X connect 82 0 84 0;
#X connect 83 0 13 1;
#X connect 83 0 8 0;
#X connect 84 0 86 0;
#X connect 85 0 83 1;
#X connect 86 0 85 0;
#X connect 87 0 89 0;
#X connect 88 0 13 2;
#X connect 89 0 91 0;
#X connect 90 0 88 1;
#X connect 91 0 90 0;
#X connect 92 0 94 0;
#X connect 93 0 13 3;
#X connect 94 0 96 0;
#X connect 95 0 93 1;
#X connect 96 0 95 0;
#X connect 97 0 99 0;
#X connect 98 0 102 0;
#X connect 98 0 8 0;
#X connect 99 0 101 0;
#X connect 100 0 98 1;
#X connect 101 0 100 0;
#X connect 102 0 13 0;
