#N canvas 411 25 1054 814 12;
#N canvas 182 25 975 768 core 0;
#X obj 152 279 metro;
#X obj 102 327 f;
#X obj 162 308 + 1;
#X obj 199 307 mod;
#X msg 239 282 8;
#X msg 280 282 12;
#X msg 316 282 16;
#N canvas 515 494 450 278 (subpatch) 0;
#X array points 8 float 3;
#A 0 0 0 0 0 0 0 0 0;
#X coords 0 1 8 -1 200 140 1 0 0;
#X restore 20 33 graph;
#X obj 22 237 tgl 24 0 empty toggleMetro0 o/f 0 -10 1 12 #fcfcfc #000000 #9f9f9f 0 1;
#X floatatom 102 350 5 0 0 0 - - - 0;
#X obj 60 241 bng 19 250 50 0 empty empty + 0 7 2 36 #feffc6 #0e4345 #c7c6ff;
#X msg 241 429 \; points resize 8;
#X msg 285 339 \; points resize 12;
#X msg 325 385 \; points resize 16;
#X msg 364 474 \; points resize 24;
#X msg 355 283 24;
#X obj 102 383 tabread points;
#X floatatom 220 178 4 0 0 0 ms - - 0;
#X obj 224 33 vsl 19 136 0.001 24 0 0 empty iteration0 empty 0 -9 0 12 #fcfcfc #000000 #000000 0 1;
#X obj 23 198 bng 8 250 50 0 empty treSize_1 empty 0 -10 0 12 #ff0400 #e3c6ff #000000;
#X obj 33 194 bng 12 250 50 0 empty treSize_23 empty 0 -10 0 12 #ffffff #faff00 #000000;
#X obj 47 198 bng 16 250 50 0 empty treSize_2 empty 0 -10 0 12 #faff00 #ffffff #000000;
#X obj 65 182 bng 24 250 50 0 empty treSize0 empty 0 -10 0 16 #00ff04 #ffffff #000000;
#X obj 75 530 *~;
#X floatatom 135 444 5 0 0 0 - itVol0 - 0;
#X obj 468 181 powtodb;
#X floatatom 472 243 4 0 0 3 set - - 16;
#X obj 472 213 - 100;
#X obj 261 23 vu 16 240 empty empty -1 -10 1 10 #ffffff #0f4710 1 0;
#X obj 564 33 env~;
#X obj 564 57 - 100;
#X obj 75 563 throw~ d;
#X connect 0 0 10 0;
#X connect 1 0 2 0;
#X connect 1 0 9 0;
#X connect 2 0 3 0;
#X connect 3 0 1 1;
#X connect 4 0 3 1;
#X connect 4 0 11 0;
#X connect 5 0 3 1;
#X connect 5 0 12 0;
#X connect 6 0 3 1;
#X connect 6 0 13 0;
#X connect 8 0 0 0;
#X connect 9 0 16 0;
#X connect 10 0 1 0;
#X connect 15 0 14 0;
#X connect 15 0 3 1;
#X connect 16 0 23 0;
#X connect 18 0 17 0;
#X connect 18 0 0 1;
#X connect 19 0 4 0;
#X connect 20 0 5 0;
#X connect 21 0 6 0;
#X connect 22 0 15 0;
#X connect 23 0 29 0;
#X connect 23 0 31 0;
#X connect 24 0 25 0;
#X connect 24 0 23 1;
#X connect 25 0 27 0;
#X connect 27 0 26 0;
#X connect 29 0 30 0;
#X connect 30 0 28 1;
#X coords 0 -1 1 1 259 245 2 20 20;
#X restore 108 153 pd core;
#N canvas 73 202 1501 766 control 1;
#N canvas 1721 86 1696 715 dark 0;
#X obj 556 3 ctlin;
#X obj 18 4 notein;
#X floatatom 556 25 4 0 0 0 - - - 0;
#X floatatom 587 25 5 0 0 0 - - - 0;
#X floatatom 109 32 5 0 0 0 - - - 0;
#X floatatom 157 27 5 0 0 0 - - - 0;
#X obj 94 164 vsl 18 90 0 127 0 0 empty empty empty 0 -9 0 12 #fcfcfc #000000 #000000 0 1;
#X obj 1531 92 ctlin;
#X floatatom 1443 130 4 0 127 0 - - - 0;
#X obj 1793 235 == 48;
#X obj 1812 235 == 49;
#X obj 1755 330 spigot;
#X obj 1794 257 tgl 19 0 empty empty empty 0 -10 0 12 #fcfcfc #000000 #000000 0 1;
#X obj 1434 230 == 50;
#X obj 1483 232 == 51;
#X obj 1532 231 == 52;
#X obj 1581 233 == 53;
#X obj 1623 233 == 54;
#X obj 1672 235 == 55;
#X obj 1684 106 == 56;
#X obj 1794 304 tgl 19 0 empty empty empty 0 -10 0 12 #fcfcfc #000000 #000000 0 1;
#X obj 1794 280 != 0;
#X floatatom 1416 387 5 0 0 0 - - - 0;
#X obj 1805 330 spigot;
#X obj 1813 262 tgl 19 0 empty empty empty 0 -10 0 12 #fcfcfc #000000 #000000 0 1;
#X obj 1813 309 tgl 19 0 empty empty empty 0 -10 0 12 #fcfcfc #000000 #000000 0 1;
#X obj 1813 285 != 0;
#X floatatom 1816 356 5 0 0 0 - - - 0;
#X obj 1817 330 spigot;
#X obj 1436 257 tgl 19 0 empty empty empty 0 -10 0 12 #fcfcfc #000000 #000000 0 1;
#X obj 1436 304 tgl 19 0 empty empty empty 0 -10 0 12 #fcfcfc #000000 #000000 0 1;
#X obj 1436 280 != 0;
#X floatatom 1446 356 5 0 0 0 - - - 0;
#X obj 1447 330 spigot;
#X obj 1486 262 tgl 19 0 empty empty empty 0 -10 0 12 #fcfcfc #000000 #000000 0 1;
#X obj 1486 309 tgl 19 0 empty empty empty 0 -10 0 12 #fcfcfc #000000 #000000 0 1;
#X obj 1486 285 != 0;
#X floatatom 1499 356 5 0 0 0 - - - 0;
#X obj 1500 330 spigot;
#X obj 1539 262 tgl 19 0 empty empty empty 0 -10 0 12 #fcfcfc #000000 #000000 0 1;
#X obj 1539 309 tgl 19 0 empty empty empty 0 -10 0 12 #fcfcfc #000000 #000000 0 1;
#X obj 1539 285 != 0;
#X floatatom 1549 361 5 0 0 0 - - - 0;
#X obj 1550 335 spigot;
#X obj 1589 267 tgl 19 0 empty empty empty 0 -10 0 12 #fcfcfc #000000 #000000 0 1;
#X obj 1589 314 tgl 19 0 empty empty empty 0 -10 0 12 #fcfcfc #000000 #000000 0 1;
#X obj 1589 290 != 0;
#X floatatom 1592 361 5 0 0 0 - - - 0;
#X obj 1593 335 spigot;
#X obj 1632 267 tgl 19 0 empty empty empty 0 -10 0 12 #fcfcfc #000000 #000000 0 1;
#X obj 1632 314 tgl 19 0 empty empty empty 0 -10 0 12 #fcfcfc #000000 #000000 0 1;
#X obj 1632 290 != 0;
#X floatatom 1642 366 5 0 0 0 - - - 0;
#X obj 1643 340 spigot;
#X obj 1682 272 tgl 19 0 empty empty empty 0 -10 0 12 #fcfcfc #000000 #000000 0 1;
#X obj 1682 319 tgl 19 0 empty empty empty 0 -10 0 12 #fcfcfc #000000 #000000 0 1;
#X obj 1682 295 != 0;
#X obj 1929 348 spigot;
#X obj 117 164 vsl 18 90 0 127 0 0 empty empty empty 0 -9 0 12 #fcfcfc #000000 #000000 0 1;
#X obj 140 164 vsl 18 90 0 127 0 0 empty empty empty 0 -9 0 12 #fcfcfc #000000 #000000 0 1;
#X obj 163 164 vsl 18 90 0 127 0 0 empty empty empty 0 -9 0 12 #fcfcfc #000000 #000000 0 1;
#X obj 186 164 vsl 18 90 0 127 0 0 empty empty empty 0 -9 0 12 #fcfcfc #000000 #000000 0 1;
#X obj 209 164 vsl 18 90 0 127 0 0 empty empty empty 0 -9 0 12 #fcfcfc #000000 #000000 0 1;
#X obj 232 164 vsl 18 90 0 127 0 0 empty empty empty 0 -9 0 12 #fcfcfc #000000 #000000 0 1;
#X obj 255 164 vsl 18 90 0 127 0 0 empty empty empty 0 -9 0 12 #fcfcfc #000000 #000000 0 1;
#X obj 2014 481 vsl 18 90 0 1 0 0 empty empty empty 0 -9 0 12 #fcfcfc #000000 #000000 0 1;
#X obj 1929 372 / 127;
#X obj 2009 580 s iteration0;
#X obj 476 708 tabwrite points;
#X obj 137 585 t f b;
#X obj 179 584 t f b;
#X obj 222 584 t f b;
#X obj 264 584 t f b;
#X obj 308 584 t f b;
#X msg 239 672 0;
#X msg 272 672 1;
#X msg 304 672 2;
#X msg 335 671 3;
#X msg 369 670 4;
#X obj 351 584 t f b;
#X obj 393 583 t f b;
#X obj 524 594 t f b;
#X obj 573 591 t f b;
#X obj 621 586 t f b;
#X msg 408 668 5;
#X msg 452 670 6;
#X msg 487 669 7;
#X msg 543 676 8;
#X msg 577 676 9;
#X msg 608 676 10;
#X msg 715 491 11;
#X msg 810 536 12;
#X msg 884 608 13;
#X msg 946 632 14;
#X msg 1014 619 15;
#X msg 1236 767 16;
#X msg 1287 768 17;
#X msg 1326 766 18;
#X msg 1379 773 19;
#X msg 1415 806 20;
#X msg 1462 806 21;
#X msg 1492 834 22;
#X msg 1278 714 23;
#X obj 682 462 t f b;
#X obj 778 514 t f b;
#X obj 860 585 t f b;
#X obj 919 609 t f b;
#X obj 983 592 t f b;
#X obj 1209 736 t f b;
#X obj 1256 734 t f b;
#X obj 1296 736 t f b;
#X obj 1347 747 t f b;
#X obj 1381 777 t f b;
#X obj 1433 782 t f b;
#X obj 1462 809 t f b;
#X obj 1247 690 t f b;
#X obj 438 582 t f b;
#X obj 572 44 + 12;
#X floatatom 572 64 5 0 0 0 - - - 0;
#X obj 644 34 == 60;
#X obj 689 33 == 61;
#X obj 732 33 == 62;
#X obj 776 33 == 63;
#X obj 819 33 == 64;
#X obj 862 32 == 65;
#X obj 908 32 == 66;
#X floatatom 572 100 5 0 0 0 - - - 0;
#X obj 572 82 + 10;
#X obj 998 32 == 70;
#X obj 1041 32 == 71;
#X obj 1084 32 == 72;
#X obj 1128 32 == 73;
#X obj 1171 32 == 74;
#X obj 1213 32 == 75;
#X obj 1255 31 == 76;
#X obj 950 31 == 67;
#X obj 1277 41 == 77;
#X obj 145 66 == 102;
#X obj 202 63 == 103;
#X obj 145 89 tgl 19 0 empty empty empty 0 -10 0 12 #fcfcfc #000000 #000000 0 1;
#X obj 222 86 tgl 19 0 empty empty empty 0 -10 0 12 #fcfcfc #000000 #000000 0 1;
#X obj 177 112 spigot;
#X obj 107 113 spigot;
#X obj 768 130 vsl 18 90 0 127 0 0 empty empty empty 0 -9 0 12 #fcfcfc #000000 #000000 0 1;
#X obj 791 130 vsl 18 90 0 127 0 0 empty empty empty 0 -9 0 12 #fcfcfc #000000 #000000 0 1;
#X obj 814 130 vsl 18 90 0 127 0 0 empty empty empty 0 -9 0 12 #fcfcfc #000000 #000000 0 1;
#X obj 837 130 vsl 18 90 0 127 0 0 empty empty empty 0 -9 0 12 #fcfcfc #000000 #000000 0 1;
#X obj 860 130 vsl 18 90 0 127 0 0 empty empty empty 0 -9 0 12 #fcfcfc #000000 #000000 0 1;
#X obj 883 130 vsl 18 90 0 127 0 0 empty empty empty 0 -9 0 12 #fcfcfc #000000 #000000 0 1;
#X obj 906 130 vsl 18 90 0 127 0 0 empty empty empty 0 -9 0 12 #fcfcfc #000000 #000000 0 1;
#X obj 929 130 vsl 18 90 0 127 0 0 empty empty empty 0 -9 0 12 #fcfcfc #000000 #000000 0 1;
#X obj 630 76 spigot;
#X floatatom 178 133 5 0 0 0 - - - 0;
#X floatatom 108 135 5 0 0 0 - - - 0;
#X obj 679 75 spigot;
#X obj 729 75 spigot;
#X obj 779 75 spigot;
#X obj 829 74 spigot;
#X obj 879 74 spigot;
#X obj 929 74 spigot;
#X obj 979 74 spigot;
#X obj 1032 73 spigot;
#X obj 1082 73 spigot;
#X obj 1132 73 spigot;
#X obj 1182 73 spigot;
#X obj 1232 72 spigot;
#X obj 1261 82 spigot;
#X obj 1311 82 spigot;
#X obj 1361 82 spigot;
#X obj 1361 193 vsl 18 90 0 127 0 0 empty empty empty 0 -9 0 12 #fcfcfc #000000 #000000 0 1;
#X obj 1384 193 vsl 18 90 0 127 0 0 empty empty empty 0 -9 0 12 #fcfcfc #000000 #000000 0 1;
#X obj 1407 193 vsl 18 90 0 127 0 0 empty empty empty 0 -9 0 12 #fcfcfc #000000 #000000 0 1;
#X obj 1430 193 vsl 18 90 0 127 0 0 empty empty empty 0 -9 0 12 #fcfcfc #000000 #000000 0 1;
#X obj 1453 202 vsl 18 90 0 127 0 0 empty empty empty 0 -9 0 12 #fcfcfc #000000 #000000 0 1;
#X obj 1478 202 vsl 18 90 0 127 0 0 empty empty empty 0 -9 0 12 #fcfcfc #000000 #000000 0 1;
#X obj 1501 202 vsl 18 90 0 127 0 0 empty empty empty 0 -9 0 12 #fcfcfc #000000 #000000 0 1;
#X obj 1524 202 vsl 18 90 0 127 0 0 empty empty empty 0 -9 0 12 #fcfcfc #000000 #000000 0 1;
#X obj 86 67 == 101;
#X obj 86 91 tgl 19 0 empty empty empty 0 -10 0 12 #fcfcfc #000000 #000000 0 1;
#X obj 48 115 spigot;
#X floatatom 48 136 5 0 0 0 - - - 0;
#X obj 174 333 expr 2*($f1/127)-1;
#X obj 214 405 expr 2*($f1/127)-1;
#X obj 247 477 expr 2*($f1/127)-1;
#X obj 265 533 expr 2*($f1/127)-1;
#X obj 425 302 expr 2*($f1/127)-1;
#X obj 432 351 expr 2*($f1/127)-1;
#X obj 421 439 expr 2*($f1/127)-1;
#X obj 429 504 expr 2*($f1/127)-1;
#X obj 613 248 expr 2*($f1/127)-1;
#X obj 688 298 expr 2*($f1/127)-1;
#X obj 713 332 expr 2*($f1/127)-1;
#X obj 681 414 expr 2*($f1/127)-1;
#X obj 777 469 expr 2*($f1/127)-1;
#X obj 852 514 expr 2*($f1/127)-1;
#X obj 911 517 expr 2*($f1/127)-1;
#X obj 979 542 expr 2*($f1/127)-1;
#X obj 1099 275 expr 2*($f1/127)-1;
#X obj 1197 332 expr 2*($f1/127)-1;
#X obj 1267 373 expr 2*($f1/127)-1;
#X obj 1356 463 expr 2*($f1/127)-1;
#X obj 1435 314 expr 2*($f1/127)-1;
#X obj 1455 340 expr 2*($f1/127)-1;
#X obj 1640 412 expr 2*($f1/127)-1;
#X obj 1251 603 expr 2*($f1/127)-1;
#X obj 43 681 bng 19 250 50 0 treSize_1 empty empty 0 -10 0 12 #fcfcfc #000000 #000000;
#X obj 70 690 bng 19 250 50 0 treSize_23 empty empty 0 -10 0 12 #fcfcfc #000000 #000000;
#X obj 97 683 bng 19 250 50 0 treSize_2 empty empty 0 -10 0 12 #fcfcfc #000000 #000000;
#X obj 121 685 bng 19 250 50 0 treSize0 empty empty 0 -10 0 12 #fcfcfc #000000 #000000;
#X obj 132 645 spigot;
#X obj 84 645 spigot;
#X obj 35 645 spigot;
#X obj 21 543 spigot;
#X obj 32 65 == 100;
#X obj 32 89 tgl 19 0 toggItVol0 empty empty 0 -10 0 12 #fcfcfc #000000 #000000 0 1;
#X obj 1725 557 vsl 18 90 0.01 1 1 0 itVol0 empty empty 0 -9 0 12 #fcfcfc #000000 #000000 0 1;
#X obj 56 518 tgl 19 0 empty toggItVol0 empty 0 -10 0 12 #fcfcfc #000000 #000000 0 1;
#X obj 1685 134 tgl 19 0 empty toggItVol0 empty 0 -10 0 12 #fcfcfc #000000 #000000 0 1;
#X obj 1721 478 spigot;
#X obj 1721 502 / 127;
#X obj 1723 528 *;
#X obj 1758 432 tgl 19 0 empty toggItVol0 empty 0 -10 0 12 #fcfcfc #000000 #000000 0 1;
#X obj 1649 156 spigot;
#X obj 1816 418 != 1;
#X obj 1841 457 tgl 19 0 empty empty empty 0 -10 0 12 #fcfcfc #000000 #000000 0 1;
#X obj 216 13 == 114;
#X obj 216 37 tgl 19 0 mut empty empty 0 -10 0 12 #fcfcfc #000000 #000000 0 1;
#X obj 1922 423 *;
#X obj 1892 487 * 27;
#X obj 1953 452 - 6e-05;
#X obj 1559 461 expr if($f2==127 \, if($f1>0.7 \, 1 \, if($f1< -0.7 \, -1 \, 0)) \, $f1), f 20;
#X obj 1646 436 expr if($f2==127 \, if($f1>0.7 \, 1 \, if($f1< -0.7 \, -1 \, 0)) \, $f1), f 26;
#X obj 1247 629 expr if($f2==127 \, if($f1>0.7 \, 1 \, if($f1< -0.7 \, -1 \, 0)) \, $f1), f 25;
#X obj 1530 530 expr if($f2==127 \, if($f1>0.7 \, 1 \, if($f1< -0.7 \, -1 \, 0)) \, $f1), f 20;
#X obj 1121 302 expr if($f2==127 \, if($f1>0.7 \, 1 \, if($f1< -0.7 \, -1 \, 0)) \, $f1), f 64;
#X obj 1198 403 expr if($f2==127 \, if($f1>0.7 \, 1 \, if($f1< -0.7 \, -1 \, 0)) \, $f1), f 20;
#X obj 1320 407 expr if($f2==127 \, if($f1>0.7 \, 1 \, if($f1< -0.7 \, -1 \, 0)) \, $f1), f 20;
#X obj 1404 488 expr if($f2==127 \, if($f1>0.7 \, 1 \, if($f1< -0.7 \, -1 \, 0)) \, $f1), f 20;
#X obj 645 270 expr if($f2==127 \, if($f1>0.7 \, 1 \, if($f1< -0.7 \, -1 \, 0)) \, $f1), f 64;
#X obj 639 317 expr if($f2==127 \, if($f1>0.7 \, 1 \, if($f1< -0.7 \, -1 \, 0)) \, $f1), f 64;
#X obj 685 357 expr if($f2==127 \, if($f1>0.7 \, 1 \, if($f1< -0.7 \, -1 \, 0)) \, $f1), f 64;
#X obj 682 437 expr if($f2==127 \, if($f1>0.7 \, 1 \, if($f1< -0.7 \, -1 \, 0)) \, $f1), f 64;
#X obj 777 492 expr if($f2==127 \, if($f1>0.7 \, 1 \, if($f1< -0.7 \, -1 \, 0)) \, $f1), f 64;
#X obj 851 539 expr if($f2==127 \, if($f1>0.7 \, 1 \, if($f1< -0.7 \, -1 \, 0)) \, $f1), f 64;
#X obj 914 539 expr if($f2==127 \, if($f1>0.7 \, 1 \, if($f1< -0.7 \, -1 \, 0)) \, $f1), f 64;
#X obj 982 565 expr if($f2==127 \, if($f1>0.7 \, 1 \, if($f1< -0.7 \, -1 \, 0)) \, $f1), f 64;
#X obj 426 325 expr if($f2==127 \, if($f1>0.7 \, 1 \, if($f1< -0.7 \, -1 \, 0)) \, $f1), f 64;
#X obj 435 382 expr if($f2==127 \, if($f1>0.7 \, 1 \, if($f1< -0.7 \, -1 \, 0)) \, $f1), f 64;
#X obj 423 473 expr if($f2==127 \, if($f1>0.7 \, 1 \, if($f1< -0.7 \, -1 \, 0)) \, $f1), f 64;
#X obj 432 530 expr if($f2==127 \, if($f1>0.7 \, 1 \, if($f1< -0.7 \, -1 \, 0)) \, $f1), f 64;
#X obj 171 362 expr if($f2==127 \, if($f1>0.7 \, 1 \, if($f1< -0.7 \, -1 \, 0)) \, $f1), f 64;
#X obj 217 431 expr if($f2==127 \, if($f1>0.7 \, 1 \, if($f1< -0.7 \, -1 \, 0)) \, $f1), f 64;
#X obj 246 498 expr if($f2==127 \, if($f1>0.7 \, 1 \, if($f1< -0.7 \, -1 \, 0)) \, $f1), f 64;
#X obj 263 555 expr if($f2==127 \, if($f1>0.7 \, 1 \, if($f1< -0.7 \, -1 \, 0)) \, $f1), f 64;
#X connect 0 0 2 0;
#X connect 0 1 3 0;
#X connect 1 0 4 0;
#X connect 1 1 5 0;
#X connect 2 0 142 0;
#X connect 2 0 141 0;
#X connect 2 0 179 0;
#X connect 3 0 117 0;
#X connect 4 0 137 0;
#X connect 4 0 138 0;
#X connect 4 0 177 0;
#X connect 4 0 213 0;
#X connect 4 0 225 0;
#X connect 5 0 209 0;
#X connect 5 0 210 0;
#X connect 5 0 211 0;
#X connect 5 0 212 0;
#X connect 5 0 232 1;
#X connect 5 0 230 1;
#X connect 5 0 233 1;
#X connect 5 0 231 1;
#X connect 5 0 235 1;
#X connect 5 0 236 1;
#X connect 5 0 237 1;
#X connect 5 0 234 1;
#X connect 5 0 238 1;
#X connect 5 0 239 1;
#X connect 5 0 240 1;
#X connect 5 0 241 1;
#X connect 5 0 242 1;
#X connect 5 0 243 1;
#X connect 5 0 244 1;
#X connect 5 0 245 1;
#X connect 5 0 246 1;
#X connect 5 0 249 1;
#X connect 5 0 247 1;
#X connect 5 0 248 1;
#X connect 5 0 250 1;
#X connect 5 0 251 1;
#X connect 5 0 252 1;
#X connect 5 0 253 1;
#X connect 6 0 181 0;
#X connect 7 0 222 0;
#X connect 7 1 9 0;
#X connect 7 1 10 0;
#X connect 7 1 13 0;
#X connect 7 1 14 0;
#X connect 7 1 15 0;
#X connect 7 1 16 0;
#X connect 7 1 17 0;
#X connect 7 1 18 0;
#X connect 7 1 19 0;
#X connect 8 0 11 0;
#X connect 8 0 23 0;
#X connect 8 0 28 0;
#X connect 8 0 33 0;
#X connect 8 0 38 0;
#X connect 8 0 43 0;
#X connect 8 0 48 0;
#X connect 8 0 53 0;
#X connect 9 0 12 0;
#X connect 10 0 24 0;
#X connect 11 0 6 0;
#X connect 12 0 21 0;
#X connect 13 0 29 0;
#X connect 14 0 34 0;
#X connect 15 0 39 0;
#X connect 16 0 44 0;
#X connect 17 0 49 0;
#X connect 18 0 54 0;
#X connect 19 0 217 0;
#X connect 20 0 11 1;
#X connect 21 0 20 0;
#X connect 22 0 58 0;
#X connect 23 0 22 0;
#X connect 24 0 26 0;
#X connect 25 0 23 1;
#X connect 26 0 25 0;
#X connect 27 0 59 0;
#X connect 28 0 27 0;
#X connect 29 0 31 0;
#X connect 30 0 28 1;
#X connect 31 0 30 0;
#X connect 32 0 60 0;
#X connect 33 0 32 0;
#X connect 34 0 36 0;
#X connect 35 0 33 1;
#X connect 36 0 35 0;
#X connect 37 0 61 0;
#X connect 38 0 37 0;
#X connect 39 0 41 0;
#X connect 40 0 38 1;
#X connect 41 0 40 0;
#X connect 42 0 62 0;
#X connect 43 0 42 0;
#X connect 44 0 46 0;
#X connect 45 0 43 1;
#X connect 46 0 45 0;
#X connect 47 0 63 0;
#X connect 48 0 47 0;
#X connect 49 0 51 0;
#X connect 50 0 48 1;
#X connect 51 0 50 0;
#X connect 52 0 64 0;
#X connect 53 0 52 0;
#X connect 54 0 56 0;
#X connect 55 0 53 1;
#X connect 56 0 55 0;
#X connect 57 0 66 0;
#X connect 58 0 182 0;
#X connect 59 0 183 0;
#X connect 60 0 184 0;
#X connect 61 0 185 0;
#X connect 62 0 186 0;
#X connect 63 0 187 0;
#X connect 64 0 188 0;
#X connect 65 0 67 0;
#X connect 66 0 227 0;
#X connect 66 0 227 1;
#X connect 69 0 68 0;
#X connect 69 1 74 0;
#X connect 70 0 68 0;
#X connect 70 1 75 0;
#X connect 71 0 68 0;
#X connect 71 1 76 0;
#X connect 72 0 68 0;
#X connect 72 1 77 0;
#X connect 73 0 68 0;
#X connect 73 1 78 0;
#X connect 74 0 68 1;
#X connect 75 0 68 1;
#X connect 76 0 68 1;
#X connect 77 0 68 1;
#X connect 78 0 68 1;
#X connect 79 0 68 0;
#X connect 79 1 84 0;
#X connect 80 0 68 0;
#X connect 80 1 85 0;
#X connect 81 0 68 0;
#X connect 81 1 87 0;
#X connect 82 0 68 0;
#X connect 82 1 88 0;
#X connect 83 0 68 0;
#X connect 83 1 89 0;
#X connect 84 0 68 1;
#X connect 85 0 68 1;
#X connect 86 0 68 1;
#X connect 87 0 68 1;
#X connect 88 0 68 1;
#X connect 89 0 68 1;
#X connect 90 0 68 1;
#X connect 91 0 68 1;
#X connect 92 0 68 1;
#X connect 93 0 68 1;
#X connect 94 0 68 1;
#X connect 95 0 68 1;
#X connect 96 0 68 1;
#X connect 97 0 68 1;
#X connect 98 0 68 1;
#X connect 99 0 68 1;
#X connect 100 0 68 1;
#X connect 101 0 68 1;
#X connect 102 0 68 1;
#X connect 103 0 68 0;
#X connect 103 1 90 0;
#X connect 104 0 68 0;
#X connect 104 1 91 0;
#X connect 105 0 68 0;
#X connect 105 1 92 0;
#X connect 106 0 68 0;
#X connect 106 1 93 0;
#X connect 107 0 68 0;
#X connect 107 1 94 0;
#X connect 108 0 68 0;
#X connect 108 1 95 0;
#X connect 109 0 68 0;
#X connect 109 1 96 0;
#X connect 110 0 68 0;
#X connect 110 1 97 0;
#X connect 111 0 68 0;
#X connect 111 1 98 0;
#X connect 112 0 68 0;
#X connect 112 1 99 0;
#X connect 113 0 68 0;
#X connect 113 1 100 0;
#X connect 114 0 68 0;
#X connect 114 1 101 0;
#X connect 115 0 68 0;
#X connect 115 1 102 0;
#X connect 116 0 68 0;
#X connect 116 1 86 0;
#X connect 117 0 118 0;
#X connect 118 0 119 0;
#X connect 118 0 120 0;
#X connect 118 0 121 0;
#X connect 118 0 122 0;
#X connect 118 0 123 0;
#X connect 118 0 124 0;
#X connect 118 0 125 0;
#X connect 118 0 127 0;
#X connect 118 0 135 0;
#X connect 119 0 151 1;
#X connect 120 0 154 1;
#X connect 121 0 155 1;
#X connect 122 0 156 1;
#X connect 123 0 157 1;
#X connect 124 0 158 1;
#X connect 125 0 159 1;
#X connect 126 0 128 0;
#X connect 126 0 129 0;
#X connect 126 0 130 0;
#X connect 126 0 131 0;
#X connect 126 0 132 0;
#X connect 126 0 133 0;
#X connect 126 0 134 0;
#X connect 126 0 136 0;
#X connect 127 0 126 0;
#X connect 128 0 131 0;
#X connect 128 0 161 1;
#X connect 129 0 162 1;
#X connect 130 0 163 1;
#X connect 131 0 164 1;
#X connect 132 0 165 1;
#X connect 133 0 166 1;
#X connect 134 0 167 1;
#X connect 135 0 160 1;
#X connect 136 0 168 1;
#X connect 137 0 139 0;
#X connect 138 0 140 0;
#X connect 139 0 142 1;
#X connect 139 0 210 1;
#X connect 140 0 141 1;
#X connect 140 0 209 1;
#X connect 141 0 152 0;
#X connect 142 0 153 0;
#X connect 142 0 151 0;
#X connect 142 0 154 0;
#X connect 142 0 155 0;
#X connect 142 0 156 0;
#X connect 142 0 157 0;
#X connect 142 0 158 0;
#X connect 142 0 159 0;
#X connect 142 0 160 0;
#X connect 143 0 189 0;
#X connect 144 0 190 0;
#X connect 145 0 191 0;
#X connect 146 0 192 0;
#X connect 147 0 193 0;
#X connect 148 0 194 0;
#X connect 149 0 195 0;
#X connect 150 0 196 0;
#X connect 151 0 143 0;
#X connect 152 0 161 0;
#X connect 152 0 162 0;
#X connect 152 0 163 0;
#X connect 152 0 164 0;
#X connect 152 0 165 0;
#X connect 152 0 166 0;
#X connect 152 0 167 0;
#X connect 152 0 168 0;
#X connect 152 0 168 1;
#X connect 154 0 144 0;
#X connect 155 0 145 0;
#X connect 156 0 146 0;
#X connect 157 0 147 0;
#X connect 158 0 148 0;
#X connect 159 0 149 0;
#X connect 160 0 150 0;
#X connect 161 0 169 0;
#X connect 162 0 170 0;
#X connect 163 0 171 0;
#X connect 164 0 172 0;
#X connect 165 0 173 0;
#X connect 166 0 174 0;
#X connect 167 0 175 0;
#X connect 168 0 176 0;
#X connect 169 0 197 0;
#X connect 170 0 198 0;
#X connect 171 0 199 0;
#X connect 172 0 200 0;
#X connect 173 0 201 0;
#X connect 174 0 202 0;
#X connect 175 0 203 0;
#X connect 176 0 204 0;
#X connect 177 0 178 0;
#X connect 178 0 179 1;
#X connect 178 0 211 1;
#X connect 179 0 180 0;
#X connect 180 0 8 0;
#X connect 181 0 250 0;
#X connect 182 0 251 0;
#X connect 183 0 252 0;
#X connect 184 0 253 0;
#X connect 185 0 246 0;
#X connect 186 0 247 0;
#X connect 187 0 248 0;
#X connect 188 0 249 0;
#X connect 189 0 238 0;
#X connect 190 0 239 0;
#X connect 191 0 240 0;
#X connect 192 0 241 0;
#X connect 193 0 242 0;
#X connect 194 0 243 0;
#X connect 195 0 244 0;
#X connect 196 0 245 0;
#X connect 197 0 234 0;
#X connect 198 0 235 0;
#X connect 199 0 236 0;
#X connect 200 0 237 0;
#X connect 201 0 233 0;
#X connect 202 0 230 0;
#X connect 203 0 231 0;
#X connect 204 0 232 0;
#X connect 209 0 208 0;
#X connect 210 0 207 0;
#X connect 211 0 205 0;
#X connect 212 0 206 0;
#X connect 213 0 214 0;
#X connect 216 0 212 1;
#X connect 217 0 222 1;
#X connect 218 0 219 0;
#X connect 219 0 220 0;
#X connect 219 0 220 1;
#X connect 220 0 215 0;
#X connect 221 0 223 0;
#X connect 221 0 218 1;
#X connect 222 0 218 0;
#X connect 222 0 57 0;
#X connect 223 0 224 0;
#X connect 224 0 57 1;
#X connect 225 0 226 0;
#X connect 227 0 229 0;
#X connect 228 0 65 0;
#X connect 229 0 228 0;
#X connect 230 0 113 0;
#X connect 231 0 114 0;
#X connect 232 0 115 0;
#X connect 233 0 112 0;
#X connect 234 0 108 0;
#X connect 235 0 109 0;
#X connect 236 0 110 0;
#X connect 237 0 111 0;
#X connect 238 0 81 0;
#X connect 239 0 82 0;
#X connect 240 0 83 0;
#X connect 241 0 103 0;
#X connect 242 0 104 0;
#X connect 243 0 105 0;
#X connect 244 0 106 0;
#X connect 245 0 107 0;
#X connect 246 0 73 0;
#X connect 247 0 79 0;
#X connect 248 0 80 0;
#X connect 249 0 116 0;
#X connect 250 0 69 0;
#X connect 251 0 70 0;
#X connect 252 0 71 0;
#X connect 253 0 72 0;
#X restore 119 218 pd dark;
#X restore 107 405 pd control;
#X obj 812 415 output~;
#X obj 836 189 catch~ l;
#X obj 753 188 catch~ d;
#N canvas 142 260 1280 414 ambientproccessing 0;
#X obj 44 27 inlet~;
#X obj 24 379 outlet~;
#X obj 103 380 outlet~;
#X obj 49 332 else/plate.rev~;
#X msg 155 215 pre \$1;
#X msg 153 260 cutoff \$1;
#X msg 261 172 damp \$1;
#X msg 265 217 wet \$1;
#X msg 152 286 clear;
#X floatatom 155 196 5 0 1000 0 pre - - 0;
#X floatatom 153 237 5 0 1 0 cutoff - - 0;
#X floatatom 261 150 5 0 1 0 damp - - 0;
#X floatatom 264 196 5 0 1 0 wet - - 0;
#X floatatom 265 239 5 0 1 0 size - - 0;
#X msg 264 258 size \$1;
#X obj 156 173 bng 19 250 50 0 empty empty clr 0 -10 0 12 #fcfcfc #000000 #000000;
#X obj 570 148 expr~ pow(10 \, (((-3.64 * pow($v1 - 1000 \, -0.8)) + (6.5 * exp(-0.6 * pow($v1 / 1000 - 3.3 \, 2))) - (0.001 * pow($v1 \, 4))) / 10)) \;, f 31;
#X connect 0 0 3 0;
#X connect 3 0 1 0;
#X connect 3 0 2 0;
#X connect 4 0 3 0;
#X connect 5 0 3 0;
#X connect 6 0 3 0;
#X connect 7 0 3 0;
#X connect 8 0 3 0;
#X connect 9 0 4 0;
#X connect 10 0 5 0;
#X connect 11 0 6 0;
#X connect 12 0 7 0;
#X connect 13 0 14 0;
#X connect 14 0 3 0;
#X connect 15 0 8 0;
#X coords 0 -1 1 1 217 167 1 100 100;
#X restore 809 235 pd ambientproccessing;
#X text 440 42 FMC=ELC;
#X msg 707 456 mute \$1;
#X obj 707 432 tgl 19 0 empty mut empty 0 -10 0 12 #fcfcfc #000000 #000000 0 1;
#X text 126 492 VOLUME sets S9 as Volume \, else it is the metronomes interval;
#X text 68 7 ARC_SYNTH -version: A01.23;
#X text 182 581 HOLD down the pan \, send or dev buttons to have margin sample hold \; just momentarly press it to change the synthesizers resolution.;
#X connect 3 0 5 0;
#X connect 4 0 5 0;
#X connect 5 0 2 0;
#X connect 5 1 2 1;
#X connect 7 0 2 0;
#X connect 8 0 7 0;
