#N canvas 387 249 669 447 12;
#X obj 150 105 inlet bpm;
#X obj 253 121 inlet;
#X obj 91 217 bng 19 250 50 0 empty empty empty 0 -10 0 12 #fcfcfc #000000 #000000;
#X obj 110 241 int;
#X obj 110 265 t b f;
#X msg 110 289 60000;
#X obj 110 313 /;
#X obj 110 337 int;
#X floatatom 110 361 5 0 0 0 - - - 0;
#X obj 250 190 t b f;
#X msg 243 254 0.25;
#X msg 280 263 0.5;
#X msg 313 275 1;
#X msg 357 275 1.5;
#X obj 219 382 *;
#X floatatom 219 406 5 0 0 0 - - - 0;
#X obj 276 405 outlet msec;
#X obj 267 222 sel 0 1 2 3 4 5 6 7;
#X msg 408 261 2;
#X msg 434 302 0.125;
#X msg 490 254 4;
#X msg 452 240 3;
#X obj 306 310 bng 19 250 50 0 empty empty empty 0 -10 0 12 #fcfcfc #000000 #000000;
#X obj 325 121 loadbang;
#X connect 0 0 2 0;
#X connect 0 0 3 1;
#X connect 1 0 9 0;
#X connect 2 0 3 0;
#X connect 3 0 4 0;
#X connect 4 0 5 0;
#X connect 4 1 6 1;
#X connect 5 0 6 0;
#X connect 6 0 7 0;
#X connect 7 0 8 0;
#X connect 8 0 14 0;
#X connect 9 0 3 0;
#X connect 9 1 17 0;
#X connect 10 0 14 1;
#X connect 11 0 14 1;
#X connect 12 0 14 1;
#X connect 12 0 22 0;
#X connect 13 0 14 1;
#X connect 14 0 15 0;
#X connect 14 0 16 0;
#X connect 17 0 10 0;
#X connect 17 1 11 0;
#X connect 17 2 12 0;
#X connect 17 3 13 0;
#X connect 17 4 18 0;
#X connect 17 5 21 0;
#X connect 17 6 20 0;
#X connect 17 7 19 0;
#X connect 18 0 14 1;
#X connect 19 0 14 1;
#X connect 20 0 14 1;
#X connect 21 0 14 1;
#X connect 23 0 12 0;
