#N canvas 606 156 546 342 12;
#N canvas 238 61 1137 811 container 0;
#X obj 74 27 hsl 75 14 40 400 1 0 empty empty empty -2 -10 0 12 #fcfcfc #000000 #000000 0 1;
#X floatatom 151 27 6 0 0 1 BPM - - 8;
#X obj 57 27 tgl 14 0 onoff empty onoff 0 -10 0 12 #fcfcfc #000000 #000000 0 1;
#N canvas 148 332 1078 540 core 0;
#X obj 124 269 else/clock 90 4;
#X obj 237 269 else/clock 90 3;
#X obj 349 269 else/clock 90 2;
#X obj 462 269 else/clock 90 1;
#X obj 577 269 else/clock 90 1.5;
#X obj 707 268 else/clock 90 0.5;
#X obj 986 268 else/clock 90 0.25;
#X obj 125 297 bng 19 250 50 0 empty empty empty 0 -10 0 12 #fcfcfc #000000 #000000;
#X obj 237 297 bng 19 250 50 0 empty empty empty 0 -10 0 12 #fcfcfc #000000 #000000;
#X obj 350 298 bng 19 250 50 0 empty empty empty 0 -10 0 12 #fcfcfc #000000 #000000;
#X obj 462 298 bng 19 250 50 0 empty empty empty 0 -10 0 12 #fcfcfc #000000 #000000;
#X obj 577 298 bng 19 250 50 0 empty empty empty 0 -10 0 12 #fcfcfc #000000 #000000;
#X obj 710 297 bng 19 250 50 0 empty empty empty 0 -10 0 12 #fcfcfc #000000 #000000;
#X obj 850 296 bng 19 250 50 0 empty empty empty 0 -10 0 12 #fcfcfc #000000 #000000;
#X obj 981 294 bng 19 250 50 0 empty empty empty 0 -10 0 12 #fcfcfc #000000 #000000;
#X obj 848 268 else/clock 90 0.75;
#X obj 125 339 tgl 19 0 empty empty empty 0 -10 0 12 #fcfcfc #000000 #000000 0 1;
#X obj 237 338 tgl 19 0 empty empty empty 0 -10 0 12 #fcfcfc #000000 #000000 0 1;
#X obj 349 338 tgl 19 0 empty empty empty 0 -10 0 12 #fcfcfc #000000 #000000 0 1;
#X obj 461 337 tgl 19 0 empty empty empty 0 -10 0 12 #fcfcfc #000000 #000000 0 1;
#X obj 582 333 tgl 19 0 empty empty empty 0 -10 0 12 #fcfcfc #000000 #000000 0 1;
#X obj 713 329 tgl 19 0 empty empty empty 0 -10 0 12 #fcfcfc #000000 #000000 0 1;
#X obj 849 325 tgl 19 0 empty empty empty 0 -10 0 12 #fcfcfc #000000 #000000 0 1;
#X obj 980 321 tgl 19 0 empty empty empty 0 -10 0 12 #fcfcfc #000000 #000000 0 1;
#X obj 44 101 * 2;
#X obj 40 53 r bpm;
#X obj 193 79 tgl 19 0 empty onoff empty 0 -10 0 12 #fcfcfc #000000 #000000 0 1;
#X obj 139 383 s whole;
#X obj 258 382 s dothalf;
#X obj 361 383 s half;
#X obj 482 381 s quarter;
#X obj 598 375 s dotquart;
#X obj 732 370 s eigth;
#X obj 876 370 s doteigth;
#X obj 1014 373 s sixteenth;
#X msg 42 219 set 0.8;
#X obj 313 58 bng 19 250 50 0 empty reset empty 0 -10 0 12 #fcfcfc #000000 #000000;
#X connect 0 0 7 0;
#X connect 1 0 8 0;
#X connect 2 0 9 0;
#X connect 3 0 10 0;
#X connect 4 0 11 0;
#X connect 5 0 12 0;
#X connect 6 0 14 0;
#X connect 7 0 16 0;
#X connect 8 0 17 0;
#X connect 9 0 18 0;
#X connect 10 0 19 0;
#X connect 11 0 20 0;
#X connect 12 0 21 0;
#X connect 13 0 22 0;
#X connect 14 0 23 0;
#X connect 15 0 13 0;
#X connect 16 0 27 0;
#X connect 17 0 28 0;
#X connect 18 0 29 0;
#X connect 19 0 30 0;
#X connect 20 0 31 0;
#X connect 21 0 32 0;
#X connect 22 0 33 0;
#X connect 23 0 34 0;
#X connect 24 0 0 1;
#X connect 24 0 1 1;
#X connect 24 0 2 1;
#X connect 24 0 3 1;
#X connect 24 0 4 1;
#X connect 24 0 5 1;
#X connect 24 0 15 1;
#X connect 24 0 6 1;
#X connect 25 0 24 0;
#X connect 26 0 0 0;
#X connect 26 0 1 0;
#X connect 26 0 2 0;
#X connect 26 0 3 0;
#X connect 26 0 4 0;
#X connect 26 0 5 0;
#X connect 26 0 15 0;
#X connect 26 0 6 0;
#X connect 26 0 35 0;
#X connect 36 0 0 0;
#X connect 36 0 1 0;
#X connect 36 0 2 0;
#X connect 36 0 3 0;
#X connect 36 0 4 0;
#X connect 36 0 5 0;
#X connect 36 0 6 0;
#X connect 36 0 15 0;
#X restore -42 319 pd core;
#X obj -44 296 s bpm;
#X obj 662 451 r whole;
#X obj 648 475 r dothalf;
#X obj 669 500 r half;
#X obj 648 528 r quarter;
#X obj 639 554 r dotquart;
#X obj 661 577 r eigth;
#X obj 642 603 r doteigth;
#X obj 635 628 r sixteenth;
#X obj 275 58 tgl 19 0 empty empty empty 0 -10 0 12 #fcfcfc #000000 #000000 0 1;
#X obj 275 79 tgl 19 0 empty empty empty 0 -10 0 12 #fcfcfc #000000 #000000 0 1;
#X obj 275 100 tgl 19 0 empty empty empty 0 -10 0 12 #fcfcfc #000000 #000000 0 1;
#X obj 275 121 tgl 19 0 empty empty empty 0 -10 0 12 #fcfcfc #000000 #000000 0 1;
#X obj 275 142 tgl 19 0 empty empty empty 0 -10 0 12 #fcfcfc #000000 #000000 0 1;
#X obj 275 163 tgl 19 0 empty empty empty 0 -10 0 12 #fcfcfc #000000 #000000 0 1;
#X obj 275 184 tgl 19 0 empty empty empty 0 -10 0 12 #fcfcfc #000000 #000000 0 1;
#X obj 275 205 tgl 19 0 empty empty empty 0 -10 0 12 #fcfcfc #000000 #000000 0 1;
#X obj 16 62 vsl 20 147 1 8 0 0 empty empty empty 0 -9 0 12 #fcfcfc #000000 #000000 0 1;
#X obj 277 360 int;
#X obj 59 63 vsl 20 147 1 8 0 0 empty empty empty 0 -9 0 12 #fcfcfc #000000 #000000 0 1;
#X obj 337 358 int;
#X obj 102 63 vsl 20 147 1 8 0 0 empty empty empty 0 -9 0 12 #fcfcfc #000000 #000000 0 1;
#X obj 400 358 int;
#X obj -55 448 spigot;
#X obj -6 448 spigot;
#X obj 43 448 spigot;
#X obj 92 448 spigot;
#X obj 141 448 spigot;
#X obj 190 448 spigot;
#X obj 239 448 spigot;
#X obj 288 448 spigot;
#X obj -56 531 spigot;
#X obj -7 531 spigot;
#X obj 42 531 spigot;
#X obj 91 531 spigot;
#X obj 140 531 spigot;
#X obj 189 531 spigot;
#X obj 238 531 spigot;
#X obj 287 531 spigot;
#X obj -56 625 spigot;
#X obj -7 625 spigot;
#X obj 42 625 spigot;
#X obj 91 625 spigot;
#X obj 140 625 spigot;
#X obj 189 625 spigot;
#X obj 238 625 spigot;
#X obj 287 625 spigot;
#X obj -18 407 == 1;
#X obj 33 407 == 2;
#X obj 80 409 == 3;
#X obj 131 409 == 4;
#X obj 181 412 == 5;
#X obj 232 412 == 6;
#X obj 279 414 == 7;
#X obj 330 414 == 8;
#X obj -55 472 tgl 19 0 empty empty empty 0 -10 0 12 #fcfcfc #000000 #000000 0 1;
#X obj -6 472 tgl 19 0 empty empty empty 0 -10 0 12 #fcfcfc #000000 #000000 0 1;
#X obj 43 472 tgl 19 0 empty empty empty 0 -10 0 12 #fcfcfc #000000 #000000 0 1;
#X obj 92 472 tgl 19 0 empty empty empty 0 -10 0 12 #fcfcfc #000000 #000000 0 1;
#X obj 141 472 tgl 19 0 empty empty empty 0 -10 0 12 #fcfcfc #000000 #000000 0 1;
#X obj 190 472 tgl 19 0 empty empty empty 0 -10 0 12 #fcfcfc #000000 #000000 0 1;
#X obj 239 472 tgl 19 0 empty empty empty 0 -10 0 12 #fcfcfc #000000 #000000 0 1;
#X obj 288 472 tgl 19 0 empty empty empty 0 -10 0 12 #fcfcfc #000000 #000000 0 1;
#X obj -56 555 tgl 19 0 empty empty empty 0 -10 0 12 #fcfcfc #000000 #000000 0 1;
#X obj -7 555 tgl 19 0 empty empty empty 0 -10 0 12 #fcfcfc #000000 #000000 0 1;
#X obj 42 555 tgl 19 0 empty empty empty 0 -10 0 12 #fcfcfc #000000 #000000 0 1;
#X obj 91 555 tgl 19 0 empty empty empty 0 -10 0 12 #fcfcfc #000000 #000000 0 1;
#X obj 140 555 tgl 19 0 empty empty empty 0 -10 0 12 #fcfcfc #000000 #000000 0 1;
#X obj 189 555 tgl 19 0 empty empty empty 0 -10 0 12 #fcfcfc #000000 #000000 0 1;
#X obj 238 555 tgl 19 0 empty empty empty 0 -10 0 12 #fcfcfc #000000 #000000 0 1;
#X obj 287 555 tgl 19 0 empty empty empty 0 -10 0 12 #fcfcfc #000000 #000000 0 1;
#X obj -56 649 tgl 19 0 empty empty empty 0 -10 0 12 #fcfcfc #000000 #000000 0 1;
#X obj -7 649 tgl 19 0 empty empty empty 0 -10 0 12 #fcfcfc #000000 #000000 0 1;
#X obj 42 649 tgl 19 0 empty empty empty 0 -10 0 12 #fcfcfc #000000 #000000 0 1;
#X obj 91 649 tgl 19 0 empty empty empty 0 -10 0 12 #fcfcfc #000000 #000000 0 1;
#X obj 140 649 tgl 19 0 empty empty empty 0 -10 0 12 #fcfcfc #000000 #000000 0 1;
#X obj 189 649 tgl 19 0 empty empty empty 0 -10 0 12 #fcfcfc #000000 #000000 0 1;
#X obj 238 649 tgl 19 0 empty empty empty 0 -10 0 12 #fcfcfc #000000 #000000 0 1;
#X obj 287 649 tgl 19 0 empty empty empty 0 -10 0 12 #fcfcfc #000000 #000000 0 1;
#X obj -19 501 == 1;
#X obj 32 501 == 2;
#X obj 79 503 == 3;
#X obj 130 503 == 4;
#X obj 180 506 == 5;
#X obj 231 506 == 6;
#X obj 278 508 == 7;
#X obj 329 508 == 8;
#X obj -12 591 == 1;
#X obj 39 591 == 2;
#X obj 86 593 == 3;
#X obj 137 593 == 4;
#X obj 187 596 == 5;
#X obj 238 596 == 6;
#X obj 285 598 == 7;
#X obj 336 598 == 8;
#X msg 51 384 0;
#X msg 195 386 0;
#X obj 153 365 t f b;
#X msg 122 387 0;
#X obj 90 366 t f b;
#X obj 31 368 t f b;
#X obj 455 438 expr $f1 && $f2 && $f3 \;;
#X obj 511 462 expr $f1 || $f2;
#X obj 437 66 tgl 19 0 empty empty empty 0 -10 0 12 #fcfcfc #000000 #000000 0 1;
#X obj 437 45 tgl 19 0 empty empty empty 0 -10 0 12 #fcfcfc #000000 #000000 0 1;
#X obj 464 485 expr $f1 || $f2 || $f3;
#X obj 437 87 tgl 19 0 empty empty empty 0 -10 0 12 #fcfcfc #000000 #000000 0 1;
#X obj 452 530 expr $f1 && ($f2 || $f3);
#X obj 437 129 tgl 19 0 empty empty empty 0 -10 0 12 #fcfcfc #000000 #000000 0 1;
#X obj 491 507 expr !($f1 && $f2);
#X obj 437 108 tgl 19 0 empty empty empty 0 -10 0 12 #fcfcfc #000000 #000000 0 1;
#X obj 515 579 expr $f1 && $f2;
#X obj 437 171 tgl 19 0 empty empty empty 0 -10 0 12 #fcfcfc #000000 #000000 0 1;
#X obj 437 150 tgl 19 0 empty empty empty 0 -10 0 12 #fcfcfc #000000 #000000 0 1;
#X obj 398 603 expr ($f3 || $f1) & !($f2 & $f1);
#X obj 437 192 tgl 19 0 empty empty empty 0 -10 0 12 #fcfcfc #000000 #000000 0 1;
#X obj 437 213 tgl 19 0 empty empty empty 0 -10 0 12 #fcfcfc #000000 #000000 0 1;
#X obj 397 629 expr ($f3 || $f2) & !($f1 & $f2);
#X obj 270 23 tgl 19 0 empty empty empty 0 -10 0 12 #fcfcfc #000000 #000000 0 1;
#X obj 318 23 tgl 19 0 empty empty empty 0 -10 0 12 #fcfcfc #000000 #000000 0 1;
#X obj 366 23 tgl 19 0 empty empty empty 0 -10 0 12 #fcfcfc #000000 #000000 0 1;
#X obj 14 26 bng 14 250 50 0 reset empty reset 0 -10 0 12 #fcfcfc #000000 #000000;
#X obj -36 341 loadbang;
#X msg -44 368 1;
#X obj 38 60 vradio 19 1 0 8 empty empty empty 0 -10 0 12 #fcfcfc #000000 #000000 0;
#X obj 297 294 swap;
#X obj 297 318 -;
#X msg 339 308 8;
#X obj 31 301 + 1;
#X floatatom 16 214 5 0 0 0 - - - 0;
#X obj 81 61 vradio 19 1 0 8 empty empty empty 0 -10 0 12 #fcfcfc #000000 #000000 0;
#X obj 376 290 swap;
#X obj 376 314 -;
#X msg 418 304 8;
#X obj 90 303 + 1;
#X floatatom 59 215 5 0 0 0 - - - 0;
#X obj 124 61 vradio 19 1 0 8 empty empty empty 0 -10 0 12 #fcfcfc #000000 #000000 0;
#X obj 453 290 swap;
#X obj 453 314 -;
#X msg 495 304 8;
#X obj 60 302 + 1;
#X floatatom 102 216 5 0 0 0 - - - 0;
#X text 208 57 wholenote;
#X text 166 79 dotted halfnote;
#X text 215 99 halfnote;
#X text 194 120 quarternote;
#X text 145 141 dotted quarternote;
#X text 208 162 eigthnote;
#X text 159 184 dotted eightnote;
#X text 180 206 sixteenthnote;
#X text 370 45 P & Q & R;
#X text 391 66 P || Q;
#X text 370 87 P & Q & R;
#X text 377 109 ~(P & Q);
#X text 349 128 P & (Q || R);
#X text 391 171 P && R;
#X text 300 192 (R || P) & !(Q & P);
#X text 259 22 P;
#X text 307 22 Q;
#X text 355 22 R;
#X obj 690 67 spigot;
#X obj 742 67 bng 19 250 50 0 empty empty empty 0 -10 0 12 #fcfcfc #000000 #000000;
#X obj 696 45 t b f;
#X obj 691 112 spigot;
#X obj 743 112 bng 19 250 50 0 empty empty empty 0 -10 0 12 #fcfcfc #000000 #000000;
#X obj 697 90 t b f;
#X obj 692 157 spigot;
#X obj 744 157 bng 19 250 50 0 empty empty empty 0 -10 0 12 #fcfcfc #000000 #000000;
#X obj 698 135 t b f;
#X obj 693 202 spigot;
#X obj 745 202 bng 19 250 50 0 empty empty empty 0 -10 0 12 #fcfcfc #000000 #000000;
#X obj 699 180 t b f;
#X obj 694 246 spigot;
#X obj 746 246 bng 19 250 50 0 empty empty empty 0 -10 0 12 #fcfcfc #000000 #000000;
#X obj 700 224 t b f;
#X obj 695 291 spigot;
#X obj 747 291 bng 19 250 50 0 empty empty empty 0 -10 0 12 #fcfcfc #000000 #000000;
#X obj 701 269 t b f;
#X obj 696 336 spigot;
#X obj 748 336 bng 19 250 50 0 empty empty empty 0 -10 0 12 #fcfcfc #000000 #000000;
#X obj 702 314 t b f;
#X obj 697 381 spigot;
#X obj 749 381 bng 19 250 50 0 empty empty empty 0 -10 0 12 #fcfcfc #000000 #000000;
#X obj 703 359 t b f;
#X obj 860 47 spigot;
#X obj 912 47 bng 19 250 50 0 empty empty empty 0 -10 0 12 #fcfcfc #000000 #000000;
#X obj 866 25 t b f;
#X obj 861 92 spigot;
#X obj 913 92 bng 19 250 50 0 empty empty empty 0 -10 0 12 #fcfcfc #000000 #000000;
#X obj 867 70 t b f;
#X obj 862 137 spigot;
#X obj 914 137 bng 19 250 50 0 empty empty empty 0 -10 0 12 #fcfcfc #000000 #000000;
#X obj 868 115 t b f;
#X obj 863 182 spigot;
#X obj 915 182 bng 19 250 50 0 empty empty empty 0 -10 0 12 #fcfcfc #000000 #000000;
#X obj 869 160 t b f;
#X obj 864 226 spigot;
#X obj 916 226 bng 19 250 50 0 empty empty empty 0 -10 0 12 #fcfcfc #000000 #000000;
#X obj 870 204 t b f;
#X obj 865 271 spigot;
#X obj 917 271 bng 19 250 50 0 empty empty empty 0 -10 0 12 #fcfcfc #000000 #000000;
#X obj 871 249 t b f;
#X obj 866 316 spigot;
#X obj 918 316 bng 19 250 50 0 empty empty empty 0 -10 0 12 #fcfcfc #000000 #000000;
#X obj 872 294 t b f;
#X obj 867 361 spigot;
#X obj 919 361 bng 19 250 50 0 empty empty empty 0 -10 0 12 #fcfcfc #000000 #000000;
#X obj 873 339 t b f;
#X obj 868 405 spigot;
#X obj 922 408 bng 19 250 50 0 empty empty empty 0 -10 0 12 #fcfcfc #000000 #000000;
#X obj 874 383 t b f;
#X obj 1295 657 output~;
#X obj 1145 6 else/impseq~;
#X obj 1197 84 else/impseq~;
#X obj 1244 160 else/impseq~;
#X obj 1288 234 else/impseq~;
#X obj 1085 123 else/impseq~;
#X obj 1130 206 else/impseq~;
#X obj 1186 300 else/impseq~;
#X obj 1242 382 else/impseq~;
#X obj 1242 434 else/drive~ 30;
#X obj 1186 352 else/drive~ 20;
#X obj 1130 258 else/drive~ 20;
#X obj 1186 314 else/resonant~ 2304 200, f 14;
#X obj 47 534 else/impseq~;
#X obj 47 557 else/resonant~ 440 260, f 14;
#X obj 1085 137 else/resonant~ 153.77 860, f 14;
#X obj 1494 66 else/impseq~;
#X obj 1546 144 else/impseq~;
#X obj 1593 223 else/impseq~;
#X obj 1637 299 else/impseq~;
#X obj 1434 183 else/impseq~;
#X obj 1479 266 else/impseq~;
#X obj 1535 360 else/impseq~;
#X obj 1591 442 else/impseq~;
#X obj 1535 412 else/drive~ 20;
#X obj 1479 337 /~ 10;
#X obj 1540 382 else/resonant~ 2304 200, f 14;
#X obj 1593 275 else/drive~ 20;
#X obj 1637 351 else/drive~ 50;
#X obj 1638 315 else/resonant~ 144 600, f 14;
#X obj 1434 254 /~ 6;
#X obj 1437 202 else/resonant~ 153.77 860, f 14;
#X obj 1434 235 else/drive~ 70;
#X obj 1496 84 else/resonant~ 455.111 260, f 14;
#X obj 1467 498 else/impseq~;
#X obj 1467 550 else/drive~ 30;
#X obj 1466 571 /~ 4;
#X obj 1637 370 /~ 1.6;
#X obj 1593 294 /~ 2;
#X obj 1494 137 /~ 2.1;
#X obj 1535 431 /~ 16;
#X obj 1186 371 /~ 29;
#X obj 1133 223 else/resonant~ 307.546 560, f 14;
#X obj 1085 175 else/drive~ 170;
#X obj 1203 102 else/resonant~ 432 860, f 14;
#X obj 1590 234 else/resonant~ 288 360, f 14;
#X obj 1547 162 else/resonant~ 864 560, f 14;
#X obj 1154 23 else/resonant~ 455.111 560, f 14;
#X obj 1494 118 else/drive~ 12;
#X obj 1145 58 else/drive~ 16;
#X obj 1197 136 else/drive~ 23;
#X obj 1244 215 else/drive~ 40;
#X obj 793 544 spigot;
#X obj 10 263 tgl 19 0 empty empty empty 0 -10 0 12 #fcfcfc #000000 #000000 0 1;
#X obj 853 544 spigot;
#X obj 70 263 tgl 19 0 empty empty empty 0 -10 0 12 #fcfcfc #000000 #000000 0 1;
#X obj 912 544 spigot;
#X obj 129 263 tgl 19 0 empty empty empty 0 -10 0 12 #fcfcfc #000000 #000000 0 1;
#X obj 972 544 spigot;
#X obj 189 263 tgl 19 0 empty empty empty 0 -10 0 12 #fcfcfc #000000 #000000 0 1;
#X obj 1033 544 spigot;
#X obj 250 263 tgl 19 0 empty empty empty 0 -10 0 12 #fcfcfc #000000 #000000 0 1;
#X obj 1093 544 spigot;
#X obj 310 263 tgl 19 0 empty empty empty 0 -10 0 12 #fcfcfc #000000 #000000 0 1;
#X obj 1152 544 spigot;
#X obj 369 263 tgl 19 0 empty empty empty 0 -10 0 12 #fcfcfc #000000 #000000 0 1;
#X obj 1212 544 spigot;
#X obj 429 263 tgl 19 0 empty empty empty 0 -10 0 12 #fcfcfc #000000 #000000 0 1;
#X obj 1244 179 else/resonant~ 288 660, f 14;
#X obj 1244 400 else/resonant~ 3456 108, f 14;
#X obj 1593 461 else/resonant~ 3456 160, f 14;
#X obj 1591 513 /~ 17;
#X obj 1467 517 else/resonant~ 468.66 260, f 14;
#X obj 1591 494 else/drive~ 10;
#X obj 1479 318 else/drive~ 10;
#X obj 1479 286 else/resonant~ 307.546 160, f 14;
#X obj 1546 215 /~ 9;
#X obj 1547 195 else/drive~ 8, f 18;
#X obj 1288 254 else/resonant~ 144 500, f 14;
#X obj 1085 194 /~ 7;
#X obj 1129 280 /~ 25;
#X obj 1242 453 /~ 40;
#X obj 1303 312 /~ 25;
#X obj 1288 291 else/drive~ 30;
#X obj 1245 232 /~ 7;
#X obj 1197 155 /~ 6;
#X obj 1146 79 /~ 12;
#X obj 397 555 expr ($f1 || $f2) & ($f3 & $f2);
#X text 307 151 (P || Q) & (R & Q);
#X obj -5 367 bng 19 250 50 0 empty empty empty 0 -10 0 12 #fcfcfc #000000 #000000;
#X text 300 214 (R || Q) & !(P & Q);
#X msg 1106 641 level 0.46;
#X obj 785 597 spigot;
#X obj 845 597 spigot;
#X obj 904 597 spigot;
#X obj 964 597 spigot;
#X obj 1022 598 spigot;
#X obj 1085 597 spigot;
#X obj 1144 597 spigot;
#X obj 1204 597 spigot;
#X obj 34 263 tgl 19 0 empty empty empty 0 -10 0 12 #fcfcfc #000000 #000000 0 1;
#X obj 94 263 tgl 19 0 empty empty empty 0 -10 0 12 #fcfcfc #000000 #000000 0 1;
#X obj 153 263 tgl 19 0 empty empty empty 0 -10 0 12 #fcfcfc #000000 #000000 0 1;
#X obj 213 263 tgl 19 0 empty empty empty 0 -10 0 12 #fcfcfc #000000 #000000 0 1;
#X obj 274 263 tgl 19 0 empty empty empty 0 -10 0 12 #fcfcfc #000000 #000000 0 1;
#X obj 334 263 tgl 19 0 empty empty empty 0 -10 0 12 #fcfcfc #000000 #000000 0 1;
#X obj 393 263 tgl 19 0 empty empty empty 0 -10 0 12 #fcfcfc #000000 #000000 0 1;
#X obj 453 263 tgl 19 0 empty empty empty 0 -10 0 12 #fcfcfc #000000 #000000 0 1;
#X connect 0 0 1 0;
#X connect 1 0 4 0;
#X connect 5 0 13 0;
#X connect 6 0 14 0;
#X connect 7 0 15 0;
#X connect 8 0 16 0;
#X connect 9 0 17 0;
#X connect 10 0 18 0;
#X connect 11 0 19 0;
#X connect 12 0 20 0;
#X connect 13 0 27 0;
#X connect 13 0 35 0;
#X connect 13 0 43 0;
#X connect 13 0 166 0;
#X connect 14 0 28 0;
#X connect 14 0 36 0;
#X connect 14 0 44 0;
#X connect 14 0 169 0;
#X connect 15 0 29 0;
#X connect 15 0 37 0;
#X connect 15 0 45 0;
#X connect 15 0 172 0;
#X connect 16 0 30 0;
#X connect 16 0 38 0;
#X connect 16 0 46 0;
#X connect 16 0 175 0;
#X connect 17 0 31 0;
#X connect 17 0 39 0;
#X connect 17 0 47 0;
#X connect 17 0 178 0;
#X connect 18 0 32 0;
#X connect 18 0 40 0;
#X connect 18 0 48 0;
#X connect 18 0 181 0;
#X connect 19 0 33 0;
#X connect 19 0 41 0;
#X connect 19 0 49 0;
#X connect 19 0 184 0;
#X connect 20 0 34 0;
#X connect 20 0 42 0;
#X connect 20 0 50 0;
#X connect 20 0 187 0;
#X connect 21 0 22 0;
#X connect 22 0 129 0;
#X connect 23 0 24 0;
#X connect 24 0 135 0;
#X connect 25 0 26 0;
#X connect 26 0 141 0;
#X connect 27 0 59 0;
#X connect 28 0 60 0;
#X connect 29 0 61 0;
#X connect 30 0 62 0;
#X connect 31 0 63 0;
#X connect 32 0 64 0;
#X connect 33 0 65 0;
#X connect 34 0 66 0;
#X connect 35 0 67 0;
#X connect 36 0 68 0;
#X connect 37 0 69 0;
#X connect 38 0 70 0;
#X connect 39 0 71 0;
#X connect 40 0 72 0;
#X connect 41 0 73 0;
#X connect 42 0 74 0;
#X connect 43 0 75 0;
#X connect 44 0 76 0;
#X connect 45 0 77 0;
#X connect 46 0 78 0;
#X connect 47 0 79 0;
#X connect 48 0 80 0;
#X connect 49 0 81 0;
#X connect 50 0 82 0;
#X connect 51 0 27 1;
#X connect 52 0 28 1;
#X connect 53 0 29 1;
#X connect 54 0 30 1;
#X connect 55 0 31 1;
#X connect 56 0 32 1;
#X connect 57 0 33 1;
#X connect 58 0 34 1;
#X connect 59 0 105 0;
#X connect 59 0 106 0;
#X connect 59 0 109 0;
#X connect 59 0 111 0;
#X connect 59 0 113 0;
#X connect 59 0 115 0;
#X connect 59 0 118 0;
#X connect 59 0 121 0;
#X connect 59 0 122 0;
#X connect 59 0 302 0;
#X connect 60 0 105 0;
#X connect 60 0 106 0;
#X connect 60 0 109 0;
#X connect 60 0 111 0;
#X connect 60 0 113 0;
#X connect 60 0 115 0;
#X connect 60 0 118 0;
#X connect 60 0 121 0;
#X connect 60 0 122 0;
#X connect 60 0 302 0;
#X connect 61 0 105 0;
#X connect 61 0 106 0;
#X connect 61 0 109 0;
#X connect 61 0 111 0;
#X connect 61 0 113 0;
#X connect 61 0 115 0;
#X connect 61 0 118 0;
#X connect 61 0 121 0;
#X connect 61 0 122 0;
#X connect 61 0 302 0;
#X connect 62 0 105 0;
#X connect 62 0 106 0;
#X connect 62 0 109 0;
#X connect 62 0 111 0;
#X connect 62 0 113 0;
#X connect 62 0 115 0;
#X connect 62 0 118 0;
#X connect 62 0 121 0;
#X connect 62 0 122 0;
#X connect 62 0 302 0;
#X connect 63 0 105 0;
#X connect 63 0 106 0;
#X connect 63 0 109 0;
#X connect 63 0 111 0;
#X connect 63 0 113 0;
#X connect 63 0 115 0;
#X connect 63 0 118 0;
#X connect 63 0 121 0;
#X connect 63 0 122 0;
#X connect 63 0 302 0;
#X connect 64 0 105 0;
#X connect 64 0 106 0;
#X connect 64 0 109 0;
#X connect 64 0 111 0;
#X connect 64 0 113 0;
#X connect 64 0 115 0;
#X connect 64 0 118 0;
#X connect 64 0 121 0;
#X connect 64 0 122 0;
#X connect 64 0 302 0;
#X connect 65 0 105 0;
#X connect 65 0 106 0;
#X connect 65 0 109 0;
#X connect 65 0 111 0;
#X connect 65 0 113 0;
#X connect 65 0 115 0;
#X connect 65 0 118 0;
#X connect 65 0 121 0;
#X connect 65 0 122 0;
#X connect 65 0 302 0;
#X connect 66 0 105 0;
#X connect 66 0 106 0;
#X connect 66 0 109 0;
#X connect 66 0 111 0;
#X connect 66 0 113 0;
#X connect 66 0 115 0;
#X connect 66 0 118 0;
#X connect 66 0 121 0;
#X connect 66 0 122 0;
#X connect 66 0 302 0;
#X connect 67 0 105 1;
#X connect 67 0 106 1;
#X connect 67 0 109 1;
#X connect 67 0 111 1;
#X connect 67 0 113 1;
#X connect 67 0 118 1;
#X connect 67 0 121 1;
#X connect 67 0 123 0;
#X connect 67 0 302 1;
#X connect 68 0 105 1;
#X connect 68 0 106 1;
#X connect 68 0 109 1;
#X connect 68 0 111 1;
#X connect 68 0 113 1;
#X connect 68 0 118 1;
#X connect 68 0 121 1;
#X connect 68 0 123 0;
#X connect 68 0 302 1;
#X connect 69 0 105 1;
#X connect 69 0 106 1;
#X connect 69 0 109 1;
#X connect 69 0 111 1;
#X connect 69 0 113 1;
#X connect 69 0 118 1;
#X connect 69 0 121 1;
#X connect 69 0 123 0;
#X connect 69 0 302 1;
#X connect 70 0 105 1;
#X connect 70 0 106 1;
#X connect 70 0 109 1;
#X connect 70 0 111 1;
#X connect 70 0 113 1;
#X connect 70 0 118 1;
#X connect 70 0 121 1;
#X connect 70 0 123 0;
#X connect 70 0 302 1;
#X connect 71 0 105 1;
#X connect 71 0 106 1;
#X connect 71 0 109 1;
#X connect 71 0 111 1;
#X connect 71 0 113 1;
#X connect 71 0 118 1;
#X connect 71 0 121 1;
#X connect 71 0 123 0;
#X connect 71 0 302 1;
#X connect 72 0 105 1;
#X connect 72 0 106 1;
#X connect 72 0 109 1;
#X connect 72 0 111 1;
#X connect 72 0 113 1;
#X connect 72 0 118 1;
#X connect 72 0 121 1;
#X connect 72 0 123 0;
#X connect 72 0 302 1;
#X connect 73 0 105 1;
#X connect 73 0 106 1;
#X connect 73 0 109 1;
#X connect 73 0 111 1;
#X connect 73 0 113 1;
#X connect 73 0 118 1;
#X connect 73 0 121 1;
#X connect 73 0 123 0;
#X connect 73 0 302 1;
#X connect 74 0 105 1;
#X connect 74 0 106 1;
#X connect 74 0 109 1;
#X connect 74 0 111 1;
#X connect 74 0 113 1;
#X connect 74 0 118 1;
#X connect 74 0 121 1;
#X connect 74 0 123 0;
#X connect 74 0 302 1;
#X connect 75 0 105 2;
#X connect 75 0 109 2;
#X connect 75 0 111 2;
#X connect 75 0 115 1;
#X connect 75 0 118 2;
#X connect 75 0 121 2;
#X connect 75 0 124 0;
#X connect 75 0 302 2;
#X connect 76 0 105 2;
#X connect 76 0 109 2;
#X connect 76 0 111 2;
#X connect 76 0 115 1;
#X connect 76 0 118 2;
#X connect 76 0 121 2;
#X connect 76 0 124 0;
#X connect 76 0 302 2;
#X connect 77 0 105 2;
#X connect 77 0 109 2;
#X connect 77 0 111 2;
#X connect 77 0 115 1;
#X connect 77 0 118 2;
#X connect 77 0 121 2;
#X connect 77 0 124 0;
#X connect 77 0 302 2;
#X connect 78 0 105 2;
#X connect 78 0 109 2;
#X connect 78 0 111 2;
#X connect 78 0 115 1;
#X connect 78 0 118 2;
#X connect 78 0 121 2;
#X connect 78 0 124 0;
#X connect 78 0 302 2;
#X connect 79 0 105 2;
#X connect 79 0 109 2;
#X connect 79 0 111 2;
#X connect 79 0 115 1;
#X connect 79 0 118 2;
#X connect 79 0 121 2;
#X connect 79 0 124 0;
#X connect 79 0 302 2;
#X connect 80 0 105 2;
#X connect 80 0 109 2;
#X connect 80 0 111 2;
#X connect 80 0 115 1;
#X connect 80 0 118 2;
#X connect 80 0 121 2;
#X connect 80 0 124 0;
#X connect 80 0 302 2;
#X connect 81 0 105 2;
#X connect 81 0 109 2;
#X connect 81 0 111 2;
#X connect 81 0 115 1;
#X connect 81 0 118 2;
#X connect 81 0 121 2;
#X connect 81 0 124 0;
#X connect 81 0 302 2;
#X connect 82 0 105 2;
#X connect 82 0 109 2;
#X connect 82 0 111 2;
#X connect 82 0 115 1;
#X connect 82 0 118 2;
#X connect 82 0 121 2;
#X connect 82 0 124 0;
#X connect 82 0 302 2;
#X connect 83 0 35 1;
#X connect 84 0 36 1;
#X connect 85 0 37 1;
#X connect 86 0 38 1;
#X connect 87 0 39 1;
#X connect 88 0 40 1;
#X connect 89 0 41 1;
#X connect 90 0 42 1;
#X connect 91 0 43 1;
#X connect 92 0 44 1;
#X connect 93 0 45 1;
#X connect 94 0 46 1;
#X connect 95 0 47 1;
#X connect 96 0 48 1;
#X connect 97 0 49 1;
#X connect 98 0 50 1;
#X connect 99 0 59 0;
#X connect 99 0 60 0;
#X connect 99 0 61 0;
#X connect 99 0 62 0;
#X connect 99 0 63 0;
#X connect 99 0 64 0;
#X connect 99 0 65 0;
#X connect 99 0 66 0;
#X connect 100 0 75 0;
#X connect 100 0 76 0;
#X connect 100 0 77 0;
#X connect 100 0 78 0;
#X connect 100 0 79 0;
#X connect 100 0 80 0;
#X connect 100 0 81 0;
#X connect 100 0 82 0;
#X connect 101 0 91 0;
#X connect 101 0 92 0;
#X connect 101 0 93 0;
#X connect 101 0 94 0;
#X connect 101 0 95 0;
#X connect 101 0 96 0;
#X connect 101 0 97 0;
#X connect 101 0 98 0;
#X connect 101 1 100 0;
#X connect 102 0 67 0;
#X connect 102 0 68 0;
#X connect 102 0 69 0;
#X connect 102 0 70 0;
#X connect 102 0 71 0;
#X connect 102 0 72 0;
#X connect 102 0 73 0;
#X connect 102 0 74 0;
#X connect 103 0 83 0;
#X connect 103 0 84 0;
#X connect 103 0 85 0;
#X connect 103 0 86 0;
#X connect 103 0 87 0;
#X connect 103 0 88 0;
#X connect 103 0 89 0;
#X connect 103 0 90 0;
#X connect 103 1 102 0;
#X connect 104 0 51 0;
#X connect 104 0 52 0;
#X connect 104 0 53 0;
#X connect 104 0 54 0;
#X connect 104 0 55 0;
#X connect 104 0 56 0;
#X connect 104 0 57 0;
#X connect 104 0 58 0;
#X connect 104 1 99 0;
#X connect 105 0 108 0;
#X connect 106 0 107 0;
#X connect 107 0 193 0;
#X connect 108 0 190 0;
#X connect 109 0 110 0;
#X connect 110 0 196 0;
#X connect 111 0 112 0;
#X connect 112 0 202 0;
#X connect 113 0 114 0;
#X connect 114 0 199 0;
#X connect 115 0 116 0;
#X connect 116 0 208 0;
#X connect 117 0 205 0;
#X connect 118 0 119 0;
#X connect 119 0 211 0;
#X connect 120 0 214 0;
#X connect 121 0 120 0;
#X connect 126 0 127 0;
#X connect 126 0 131 0;
#X connect 126 0 137 0;
#X connect 126 0 143 0;
#X connect 126 0 304 0;
#X connect 127 0 21 0;
#X connect 127 0 23 0;
#X connect 127 0 25 0;
#X connect 127 0 2 0;
#X connect 128 0 132 0;
#X connect 129 0 130 0;
#X connect 129 1 130 1;
#X connect 130 0 128 0;
#X connect 131 0 129 1;
#X connect 132 0 104 0;
#X connect 132 0 133 0;
#X connect 134 0 138 0;
#X connect 135 0 136 0;
#X connect 135 1 136 1;
#X connect 136 0 134 0;
#X connect 137 0 135 1;
#X connect 138 0 139 0;
#X connect 138 0 103 0;
#X connect 140 0 144 0;
#X connect 141 0 142 0;
#X connect 141 1 142 1;
#X connect 142 0 140 0;
#X connect 143 0 141 1;
#X connect 144 0 145 0;
#X connect 144 0 101 0;
#X connect 164 0 165 0;
#X connect 165 0 267 0;
#X connect 166 0 164 0;
#X connect 166 1 164 1;
#X connect 167 0 168 0;
#X connect 168 0 269 0;
#X connect 169 0 167 0;
#X connect 169 1 167 1;
#X connect 170 0 171 0;
#X connect 171 0 271 0;
#X connect 172 0 170 0;
#X connect 172 1 170 1;
#X connect 173 0 174 0;
#X connect 174 0 273 0;
#X connect 175 0 173 0;
#X connect 175 1 173 1;
#X connect 176 0 177 0;
#X connect 177 0 275 0;
#X connect 178 0 176 0;
#X connect 178 1 176 1;
#X connect 179 0 180 0;
#X connect 180 0 277 0;
#X connect 181 0 179 0;
#X connect 181 1 179 1;
#X connect 182 0 183 0;
#X connect 183 0 279 0;
#X connect 184 0 182 0;
#X connect 184 1 182 1;
#X connect 185 0 186 0;
#X connect 186 0 281 0;
#X connect 187 0 185 0;
#X connect 187 1 185 1;
#X connect 188 0 189 0;
#X connect 189 0 307 0;
#X connect 190 0 188 0;
#X connect 190 1 188 1;
#X connect 191 0 192 0;
#X connect 192 0 308 0;
#X connect 193 0 191 0;
#X connect 193 1 191 1;
#X connect 194 0 195 0;
#X connect 195 0 309 0;
#X connect 196 0 194 0;
#X connect 196 1 194 1;
#X connect 197 0 198 0;
#X connect 198 0 310 0;
#X connect 199 0 197 0;
#X connect 199 1 197 1;
#X connect 200 0 201 0;
#X connect 202 0 200 0;
#X connect 202 1 200 1;
#X connect 203 0 204 0;
#X connect 204 0 311 0;
#X connect 205 0 203 0;
#X connect 205 1 203 1;
#X connect 206 0 207 0;
#X connect 207 0 312 0;
#X connect 208 0 206 0;
#X connect 208 1 206 1;
#X connect 209 0 210 0;
#X connect 210 0 313 0;
#X connect 211 0 209 0;
#X connect 211 1 209 1;
#X connect 212 0 213 0;
#X connect 213 0 314 0;
#X connect 214 0 212 0;
#X connect 214 1 212 1;
#X connect 216 0 262 0;
#X connect 217 0 259 0;
#X connect 218 0 283 0;
#X connect 219 0 293 0;
#X connect 220 0 230 0;
#X connect 221 0 257 0;
#X connect 222 0 227 0;
#X connect 223 0 284 0;
#X connect 224 0 296 0;
#X connect 225 0 256 0;
#X connect 226 0 295 0;
#X connect 227 0 225 0;
#X connect 228 0 229 0;
#X connect 230 0 258 0;
#X connect 231 0 248 0;
#X connect 232 0 261 0;
#X connect 233 0 260 0;
#X connect 234 0 244 0;
#X connect 235 0 246 0;
#X connect 236 0 290 0;
#X connect 237 0 241 0;
#X connect 238 0 285 0;
#X connect 239 0 255 0;
#X connect 240 0 215 0;
#X connect 241 0 239 0;
#X connect 242 0 253 0;
#X connect 243 0 252 0;
#X connect 244 0 243 0;
#X connect 245 0 215 0;
#X connect 246 0 247 0;
#X connect 247 0 245 0;
#X connect 248 0 263 0;
#X connect 249 0 287 0;
#X connect 250 0 251 0;
#X connect 251 0 215 0;
#X connect 252 0 215 0;
#X connect 253 0 215 1;
#X connect 254 0 215 1;
#X connect 255 0 215 0;
#X connect 256 0 215 0;
#X connect 257 0 226 0;
#X connect 258 0 294 0;
#X connect 259 0 265 0;
#X connect 260 0 242 0;
#X connect 261 0 292 0;
#X connect 262 0 264 0;
#X connect 263 0 254 0;
#X connect 264 0 301 0;
#X connect 265 0 300 0;
#X connect 266 0 299 0;
#X connect 267 0 216 0;
#X connect 268 0 267 1;
#X connect 269 0 217 0;
#X connect 270 0 269 1;
#X connect 271 0 218 0;
#X connect 272 0 271 1;
#X connect 273 0 219 0;
#X connect 274 0 273 1;
#X connect 275 0 220 0;
#X connect 276 0 275 1;
#X connect 277 0 221 0;
#X connect 278 0 277 1;
#X connect 279 0 222 0;
#X connect 280 0 279 1;
#X connect 281 0 223 0;
#X connect 282 0 281 1;
#X connect 283 0 266 0;
#X connect 284 0 224 0;
#X connect 285 0 288 0;
#X connect 286 0 215 1;
#X connect 287 0 250 0;
#X connect 288 0 286 0;
#X connect 289 0 240 0;
#X connect 290 0 289 0;
#X connect 291 0 215 1;
#X connect 292 0 291 0;
#X connect 293 0 298 0;
#X connect 294 0 215 0;
#X connect 295 0 215 1;
#X connect 296 0 215 1;
#X connect 297 0 215 0;
#X connect 298 0 297 0;
#X connect 299 0 215 0;
#X connect 300 0 215 1;
#X connect 301 0 215 1;
#X connect 302 0 117 0;
#X connect 304 0 306 0;
#X connect 306 0 215 0;
#X connect 307 0 231 0;
#X connect 308 0 232 0;
#X connect 309 0 235 0;
#X connect 310 0 233 0;
#X connect 311 0 236 0;
#X connect 312 0 234 0;
#X connect 312 0 237 0;
#X connect 313 0 238 0;
#X connect 314 0 249 0;
#X connect 315 0 307 1;
#X connect 316 0 308 1;
#X connect 317 0 309 1;
#X connect 318 0 310 1;
#X connect 319 0 311 1;
#X connect 320 0 312 1;
#X connect 321 0 313 1;
#X connect 322 0 314 1;
#X coords 0 -1 1 1 480 290 2 2 2;
#X restore 13 11 pd container;
