#N canvas 234 234 450 300 12;
#X obj 36 33 inlet~;
#X obj 36 202 *~;
#X obj 36 226 outlet~;
#X obj 54 175 cos~;
#X obj 54 152 -~ 0.25;
#X obj 161 51 *~ 0.25;
#X obj 161 75 -~ 0.25;
#X obj 161 99 cos~;
#X obj 141 201 *~;
#X obj 141 225 outlet~;
#X obj 161 27 sig~ \$1;
#X connect 0 0 1 0;
#X connect 0 0 8 0;
#X connect 1 0 2 0;
#X connect 3 0 1 1;
#X connect 4 0 3 0;
#X connect 5 0 6 0;
#X connect 6 0 7 0;
#X connect 6 0 4 0;
#X connect 7 0 8 1;
#X connect 8 0 9 0;
#X connect 10 0 5 0;
