#N canvas 151 267 849 678 12;
#X listbox 127 2 13 0 0 0 - - - 0;
#X text 74 2 SYMBOL:;
#X floatatom 220 2 5 0 0 0 - - - 0;
#X obj 262 2 key;
#X floatatom 173 250 5 0 0 0 - - - 0;
#N canvas 156 156 450 300 pause 1;
#X obj 53 40 keyname;
#X obj 131 140 tgl 19 0 empty empty empty 0 -10 0 12 #fcfcfc #000000 #000000 0 1;
#X obj 99 184 spigot;
#X msg 99 140 1;
#X obj 99 206 tgl 19 0 empty empty empty 0 -10 0 12 #fcfcfc #000000 #000000 0 1;
#X obj 99 119 t b b;
#X obj 99 162 sel 1;
#X obj 99 228 outlet;
#X obj 99 96 sel Space Pause;
#X msg 199 136 0;
#X connect 0 1 8 0;
#X connect 1 0 2 1;
#X connect 2 0 4 0;
#X connect 3 0 6 0;
#X connect 4 0 7 0;
#X connect 5 0 3 0;
#X connect 5 1 1 0;
#X connect 6 0 2 0;
#X connect 8 0 5 0;
#X connect 8 1 9 0;
#X connect 9 0 4 0;
#X restore 124 160 pd pause;
#X msg 123 184 Pause \$1;
#X msg 280 195 vol \$1;
#X floatatom 224 249 5 0 0 0 - - - 0;
#X floatatom 122 249 5 0 0 0 - - - 0;
#X obj 122 226 route Pause vol selecter;
#X floatatom 285 251 5 0 0 0 - - - 0;
#X obj 121 305 s cclock;
#X obj 289 2 keyname;
#X obj 339 227 sel q w e r t;
#X obj 339 262 s q;
#X obj 365 262 s w;
#X obj 391 262 s e;
#X obj 417 262 s r;
#X obj 443 262 s t;
#X msg 210 189 vol \$1;
#X obj 199 306 s slider;
#N canvas 208 208 450 300 slider 0;
#X obj 180 215 outlet;
#X obj 166 23 vSlider;
#X obj 275 197 / 127;
#X connect 1 8 2 0;
#X connect 2 0 0 0;
#X restore 214 159 pd slider;
#X obj 272 308 s mute;
#N canvas 78 78 450 300 mute 0;
#X obj 53 40 keyname;
#X obj 131 140 tgl 19 0 empty empty empty 0 -10 0 12 #fcfcfc #000000 #000000 0 1;
#X obj 99 184 spigot;
#X msg 99 140 1;
#X obj 99 206 tgl 19 0 empty empty empty 0 -10 0 12 #fcfcfc #000000 #000000 0 1;
#X obj 99 119 t b b;
#X obj 99 162 sel 1;
#X obj 99 228 outlet;
#X msg 199 136 0;
#X obj 99 96 sel v m;
#X connect 0 1 9 0;
#X connect 1 0 2 1;
#X connect 2 0 4 0;
#X connect 3 0 6 0;
#X connect 4 0 7 0;
#X connect 5 0 3 0;
#X connect 5 1 1 0;
#X connect 6 0 2 0;
#X connect 8 0 4 0;
#X connect 9 0 5 0;
#X connect 9 1 8 0;
#X restore 294 153 pd mute;
#X msg 503 113 on;
#X msg 540 113 off;
#X msg 456 112 mute;
#X obj 461 62 route m o f;
#X obj 518 177 keyname;
#X obj 596 277 tgl 19 0 empty empty empty 0 -10 0 12 #fcfcfc #000000 #000000 0 1;
#X obj 564 321 spigot;
#X msg 564 277 1;
#X obj 564 343 tgl 19 0 empty empty empty 0 -10 0 12 #fcfcfc #000000 #000000 0 1;
#X obj 564 256 t b b;
#X obj 564 299 sel 1;
#X obj 558 208 sel m o f;
#X msg 647 276 1;
#X msg 684 277 0;
#X obj 650 335 tgl 19 0 empty empty empty 0 -10 0 12 #fcfcfc #000000 #000000 0 1;
#X connect 3 0 2 0;
#X connect 4 0 21 0;
#X connect 5 0 6 0;
#X connect 6 0 10 0;
#X connect 7 0 10 0;
#X connect 8 0 23 0;
#X connect 9 0 12 0;
#X connect 10 0 9 0;
#X connect 10 1 4 0;
#X connect 10 2 8 0;
#X connect 10 3 11 0;
#X connect 13 1 0 0;
#X connect 13 1 14 0;
#X connect 14 0 15 0;
#X connect 14 1 16 0;
#X connect 14 2 17 0;
#X connect 14 3 18 0;
#X connect 14 4 19 0;
#X connect 20 0 10 0;
#X connect 22 0 20 0;
#X connect 24 0 7 0;
#X connect 28 0 27 0;
#X connect 28 1 25 0;
#X connect 28 2 26 0;
#X connect 29 1 36 0;
#X connect 30 0 31 1;
#X connect 31 0 33 0;
#X connect 32 0 35 0;
#X connect 34 0 32 0;
#X connect 34 1 30 0;
#X connect 35 0 31 0;
#X connect 36 0 34 0;
#X connect 36 1 37 0;
#X connect 36 2 38 0;
#X connect 37 0 39 0;
#X connect 38 0 39 0;
#X coords 0 -1 1 1 256 100 1 2 2;
