#N canvas 178 191 1195 588 12;
#X obj 826 -1 nbx 5 14 -1e+37 1e+37 0 0 empty empty empty 0 -8 0 10 #dcdcdc #000000 #000000 0 256;
#X obj 890 0 nbx 5 14 -1e+37 1e+37 0 0 empty empty empty 0 -8 0 10 #dcdcdc #000000 #000000 0 256;
#X obj 955 -19 nbx 5 14 -1e+37 1e+37 0 0 empty empty empty 0 -8 0 10 #dcdcdc #000000 #000000 0 256;
#X obj 959 -45 hsl 128 15 0 1 0 0 empty empty empty -2 -8 0 10 #dcdcdc #000000 #000000 0 1;
#X obj 955 -1 else/float2sig~ 10;
#X text 826 -21 carrier;
#X text 1012 -19 index;
#X text 897 -21 ratio;
#X obj 1041 126 nbx 5 14 -1e+37 1e+37 0 0 empty empty empty 0 -8 0 10 #dcdcdc #000000 #000000 0 256;
#X obj 946 402 else/out~;
#X text 1043 103 hz =>;
#X obj 1102 105 nbx 5 14 -1e+37 1e+37 0 0 empty empty empty 0 -8 0 10 #dcdcdc #000000 #000000 0 256;
#X obj 1102 127 else/float2sig~ 10;
#X obj 1102 44 else/knob 50 -1 1 0 0 empty empty #dfdfdf #7c7c7c black 1 0 0 0 1 320 0 0 0;
#X obj 948 254 else/parabolic~;
#X obj 903 217 nbx 5 14 -1e+37 1e+37 0 0 empty empty empty 0 -8 0 10 #dcdcdc #000000 #000000 0 256;
#X text 899 195 carrier;
#X obj 1071 153 else/fbsine~ 444;
#X obj 857 31 else/pm~ 222 2.01;
#X obj 197 241 nbx 5 14 -1e+37 1e+37 0 0 empty empty empty 0 -8 0 10 #dcdcdc #000000 #000000 0 256;
#X obj 259 241 nbx 5 14 -1e+37 1e+37 0 0 empty empty empty 0 -8 0 10 #dcdcdc #000000 #000000 0 256;
#X obj 318 241 nbx 5 14 -1e+37 1e+37 0 0 empty empty empty 0 -8 0 10 #dcdcdc #000000 #000000 0 256;
#X obj 376 241 nbx 5 14 -1e+37 1e+37 0 0 empty empty empty 0 -8 0 10 #dcdcdc #000000 #000000 0 256;
#X text 202 222 freq1;
#X text 260 221 index1;
#X text 323 221 freq2;
#X text 380 221 index2;
#X obj 212 273 else/xmod~ 150 400 305 350;
#X obj 322 101 else/synth~;
#X obj 323 5 keyboard 17 75 2 4 0 0 empty empty;
#X obj 844 93 hsl 128 15 441 44100 1 0 empty empty empty -2 -8 0 10 #dcdcdc #000000 #000000 0 1;
#X obj 841 115 nbx 8 14 -1e+37 1e+37 0 0 empty empty empty 0 -8 0 10 #dcdcdc #000000 #000000 0 256;
#X text 926 114 rate in Hz;
#X obj 841 138 else/lorenz~;
#X obj 566 370 cnv 5 5 5 empty empty 1 0 0 0 16 #fcfcfc #9c9c9c 0;
#X obj 565 422 cnv 5 5 5 empty empty 0 0 0 0 16 #fcfcfc #9c9c9c 0;
#X obj 578 367 else/scope~ 184 115 256 3 128 -1 1 0 0 0 0 32 32 32 187 187 187 159 159 159 0 empty;
#X listbox 701 311 10 0 0 0 - - - 12;
#X obj 701 284 else/initmess 256 128;
#X floatatom 703 338 5 0 0 0 - - - 12;
#X obj 974 322 *~;
#X obj 1080 309 vsl 16 78 0 1 0 0 empty empty empty 0 -9 0 12 #fcfcfc #000000 #000000 0 1;
#X connect 0 0 18 0;
#X connect 1 0 18 1;
#X connect 2 0 4 0;
#X connect 3 0 2 0;
#X connect 4 0 18 2;
#X connect 8 0 17 0;
#X connect 11 0 12 0;
#X connect 12 0 17 1;
#X connect 13 0 11 0;
#X connect 14 0 40 0;
#X connect 15 0 14 0;
#X connect 17 0 14 2;
#X connect 19 0 27 0;
#X connect 20 0 27 1;
#X connect 21 0 27 2;
#X connect 21 0 0 0;
#X connect 22 0 27 3;
#X connect 22 0 15 0;
#X connect 29 0 28 0;
#X connect 30 0 31 0;
#X connect 31 0 33 0;
#X connect 33 0 14 1;
#X connect 37 0 36 0;
#X connect 38 0 37 0;
#X connect 39 0 36 0;
#X connect 40 0 36 0;
#X connect 40 0 9 0;
#X connect 41 0 40 1;
