#N canvas 52 240 884 523 12;
#X obj 398 268 fexpr~ (0.03)*$x[0] + (0)*$x[-1] - (0.03)*$x[-2] - (-1.9)*$y[-1] - (0.97)*$y[-2];
#X obj 398 311 fexpr~ (0.05)*$x[0] + (0)*$x[-1] - (0.05)*$x[-2] - (-1.7)*$y[-1] - (0.92)*$y[-2];
#X obj 372 180 fexpr~ (0.03)*$x[0] + (0)*$x[-1] - (0.03)*$x[-2] - (-1.9)*$y[-1] - (0.97)*$y[-2];
#X obj 372 223 fexpr~ (0.05)*$x[0] + (0)*$x[-1] - (0.05)*$x[-2] - (-1.7)*$y[-1] - (0.92)*$y[-2];
#X obj 372 122 inlet~;
#X obj 366 380 throw~ mL;
#X obj 439 383 throw~ mR;
#X connect 0 0 1 0;
#X connect 1 0 6 0;
#X connect 2 0 3 0;
#X connect 3 0 5 0;
#X connect 4 0 2 0;
#X connect 4 0 0 0;
