#N canvas 144 88 787 606 12;
#N canvas 789 87 508 660 chain1 0;
#X obj 71 117 r~ voice_in;
#X obj 71 141 hip~ 80;
#X obj 71 165 hilbert~;
#X obj 71 189 *~;
#X obj 124 190 *~;
#X obj 109 302 +~;
#X obj 237 71 osc~;
#X obj 237 95 cos~;
#X obj 302 130 +~ 0.25;
#X obj 302 153 cos~;
#X floatatom 311 36 5 0 0 1 hz - - 0;
#X obj 312 69 s shift;
#X obj 237 41 r shift;
#X obj 111 342 *~ 0.4;
#X obj 113 387 else/spectrograph~;
#X obj 193 344 s~ voice_out;
#X connect 0 0 1 0;
#X connect 1 0 2 0;
#X connect 2 0 3 0;
#X connect 2 1 4 0;
#X connect 3 0 5 0;
#X connect 4 0 5 1;
#X connect 5 0 13 0;
#X connect 5 0 15 0;
#X connect 6 0 7 0;
#X connect 7 0 3 1;
#X connect 7 0 8 0;
#X connect 8 0 9 0;
#X connect 9 0 4 1;
#X connect 10 0 11 0;
#X connect 12 0 6 0;
#X connect 13 0 14 0;
#X restore 351 74 pd chain1;
#X obj 272 178 adc~;
#X obj 272 202 *~ 1;
#X obj 272 226 env~;
#X obj 272 250 -96;
#X obj 259 284 vu 19 200 empty empty -1 -10 0 12 #404040 #000000 1 0;
#X obj 441 253 r~ voice_out;
#X obj 441 277 dac~;
#X connect 1 0 2 0;
#X connect 2 0 3 0;
#X connect 3 0 4 0;
#X connect 4 0 5 1;
#X connect 6 0 7 0;
#X connect 6 0 7 1;
