#N canvas 137 49 1190 614 12;
#X obj 30 22 noise~;
#X obj 58 316 *~;
#X obj 51 497 fexpr~ $f2 * (0.004604937 * $x[0] - 0.00460494 * $x[-2] - -1.85955 * $y[-1] - 0.86842 * $y[-2]);
#X obj 32 552 +~;
#X obj 440 320 vsl 15 70 0 1 0 0 empty empty empty 0 -9 0 12 #fcfcfc #000000 #000000 0 1;
#X obj 447 417 vsl 15 70 0 1 0 0 empty empty empty 0 -9 0 12 #fcfcfc #000000 #000000 0 1;
#X obj 60 401 fexpr~ $f2* (0.00094469 * $x[0] - 0.00094469 * $x[-2] - -1.97973 * $y[-1] - 0.982111 * $y[-2]);
#X obj 79 207 vsl 15 70 0 1 0 0 empty empty empty 0 -9 0 12 #fcfcfc #000000 #000000 0 1;
#X obj 644 65 snapshot~;
#X obj 646 40 metro 60;
#X obj 646 17 tgl 19 0 empty empty empty 0 -10 0 12 #fcfcfc #000000 #000000 0 1;
#X obj 646 90 else/scope~ 200 100 2 3 8 -1 1 0 0 0 0 30 30 30 190 190 190 160 160 160 0 empty;
#X obj 559 140 vsl 15 70 0 1 0 0 empty empty empty 0 -9 0 12 #fcfcfc #000000 #000000 0 1;
#N canvas 495 299 450 300 vumm 0;
#X obj 71 6 vsl 15 70 0 1.1 0 0 empty empty empty 0 -9 0 12 #fcfcfc #000000 #000000 0 1;
#X obj 115 13 inlet~;
#X obj 50 107 *~;
#X obj 9 3 vu 21 80 empty empty -1 -10 0 8 #ffffff #ff8300 1 0;
#X obj 175 38 env~;
#X obj 177 66 - 99;
#X obj 50 205 throw~ vum;
#X connect 0 0 2 1;
#X connect 1 0 2 0;
#X connect 2 0 4 0;
#X connect 2 0 6 0;
#X connect 4 0 5 0;
#X connect 5 0 3 0;
#X coords 0 -1 1 1 91 86 2 1 1;
#X restore 484 410 pd vumm;
#X obj 729 58 dac~;
#X obj 730 27 catch~ vum;
#X obj 145 306 *~;
#X obj 163 140 vsl 15 70 0 1 0 0 empty empty empty 0 -9 0 12 #fcfcfc #000000 #000000 0 1;
#X obj 75 73 hradio 19 1 0 4 empty empty empty 0 -10 0 12 #fcfcfc #000000 #000000 0;
#X obj 44 110 else/xgate~ 3 1000;
#X obj 273 165 masterfid;
#X obj 510 338 catch~ mL;
#X obj 539 368 catch~ mR;
#X obj 146 244 fexpr~ if ($x[0] > 20 && $x[0] < 500 \, $x[0] * 1.2 * $f2 \, if ($x[0] >= 500 && $x[0] < 5000 \, $x[0] * 1 * $f2 \, if ($x[0] >= 5000 && $x[0] < 20000 \, $x[0] * 0.8 * $f2 \, $x[0] * $f2) ));
#X msg 978 395 size \$1;
#X obj 992 421 tgl 15 0 empty empty empty 17 7 0 10 #dcdcdc #000000 #000000 0 1;
#X msg 992 442 db \$1;
#X msg 1037 442 log \$1;
#X obj 1037 421 tgl 15 0 empty empty empty 17 7 0 10 #dcdcdc #000000 #000000 0 1;
#X msg 1013 369 1024;
#X msg 978 368 256;
#X obj 978 481 s \$0-set;
#X obj 664 366 else/spectrograph~ 1024 0 0 300 140 100;
#X connect 0 0 19 0;
#X connect 1 0 13 0;
#X connect 2 0 3 1;
#X connect 3 0 13 0;
#X connect 4 0 6 1;
#X connect 5 0 2 1;
#X connect 6 0 3 0;
#X connect 7 0 1 1;
#X connect 8 0 11 0;
#X connect 9 0 8 0;
#X connect 10 0 9 0;
#X connect 12 0 23 1;
#X connect 15 0 14 0;
#X connect 15 0 14 1;
#X connect 15 0 11 0;
#X connect 16 0 13 0;
#X connect 17 0 16 1;
#X connect 18 0 19 0;
#X connect 19 0 1 0;
#X connect 19 1 23 0;
#X connect 19 2 20 0;
#X connect 21 0 13 0;
#X connect 22 0 13 0;
#X connect 23 0 16 0;
#X connect 24 0 31 0;
#X connect 25 0 26 0;
#X connect 26 0 31 0;
#X connect 27 0 31 0;
#X connect 28 0 27 0;
#X connect 29 0 24 0;
#X connect 30 0 24 0;
