#N canvas 187 380 250 246 12;
#N canvas 43 28 782 731 Maesh 0;
#X obj 292 279 bng 37 250 50 0 empty empty Open 2 17 1 14 #faff00 #00ff04 #000000;
#X obj 114 389 openpanel;
#X obj 114 435 soundfiler;
#X msg 114 412 read -resize \$1 audioData;
#N canvas 0 22 450 278 (subpatch) 0;
#X array audioData 5.15395e+06 float 2;
#X coords 0 1 5.15395e+06 -1 225 110 2 0 0;
#X restore 104 163 graph;
#X floatatom 114 459 15 0 0 0 - - - 0;
#X obj 114 482 t b f;
#X obj 194 505 expr $f2 / $f1;
#X floatatom 194 528 15 0 0 0 - - - 0;
#X floatatom 53 518 5 0 33 2 SEG - - 16;
#X obj 126 669 pack f f f;
#X obj 192 626 / 48;
#X msg 126 693 \$1 \, \$2 \$3;
#X obj 126 717 vline~;
#X obj 126 741 tabread4~ audioData;
#X obj 126 765 *~;
#X floatatom 178 134 3 0 1 1 vol - - 10;
#X obj 126 786 dac~;
#X obj 126 637 *;
#X obj 126 556 random;
#X obj 126 580 t f f;
#X obj 159 636 *;
#X obj 162 482 t f f;
#X obj 393 261 metro 1 120 permin, f 19;
#X obj 109 110 tgl 26 0 empty empty on/ff 28 11 0 10 #c7c6ff #0f4710 #000000 0 1;
#X msg 393 237 tempo \$1 permin;
#X floatatom 178 110 5 0 0 1 bpm - - 16;
#X floatatom 523 239 5 0 0 0 - - - 0;
#X obj 297 126 bng 32 250 50 0 empty empty TRIG -3 -8 0 14 #ff0400 #c6ffc7 #ff0400;
#X msg 589 116 0.5;
#X obj 523 215 expr 1/$f1;
#X obj 176 36 loadbang;
#X obj 105 36 loadbang;
#X msg 108 60 1;
#X msg 177 63 135;
#X obj 159 608 + 1;
#X obj 450 3 random 4;
#X floatatom 224 654 8 0 0 0 - - - 0;
#X floatatom 66 458 2 0 6 0 sP - - 16;
#X msg 443 116 1;
#X msg 475 116 0.25;
#X msg 512 116 4;
#X floatatom 486 28 5 0 0 0 - - - 0;
#X obj 450 25 + 1;
#X msg 552 118 2;
#X msg 622 115 1.5;
#X msg 655 115 2.25;
#X msg 694 116 1.125;
#X obj 456 56 sel 1 2 3 4 5 6;
#X obj 349 356 sel 1 2;
#X msg 393 381 33;
#X msg 459 377 6;
#X msg 492 379 30;
#X msg 423 422 5;
#X floatatom 268 284 1 0 2 0 ALGORYTHM - - 24;
#X obj 613 30 random 2;
#X obj 645 66 sel 0 1;
#X msg 361 385 6;
#X msg 461 423 32;
#X obj 112 301 bng 18 250 50 0 empty empty - 4 10 0 16 #c7c6ff #131255 #c6feff;
#X obj 112 281 bng 18 250 50 0 empty empty + 4 10 0 16 #ffc7c6 #ff0400 #c6ffc7;
#X obj 551 326 f;
#X obj 518 324 +;
#X msg 496 295 1;
#X msg 547 301 -1;
#X obj 551 350 % 3;
#X connect 0 0 1 0;
#X connect 1 0 3 0;
#X connect 2 0 5 0;
#X connect 3 0 2 0;
#X connect 5 0 6 0;
#X connect 6 0 9 0;
#X connect 6 1 7 1;
#X connect 7 0 8 0;
#X connect 8 0 11 0;
#X connect 8 0 21 1;
#X connect 8 0 18 1;
#X connect 9 0 22 0;
#X connect 10 0 12 0;
#X connect 11 0 10 2;
#X connect 11 0 37 0;
#X connect 12 0 13 0;
#X connect 13 0 14 0;
#X connect 14 0 15 0;
#X connect 15 0 17 0;
#X connect 15 0 17 1;
#X connect 16 0 15 1;
#X connect 18 0 10 0;
#X connect 19 0 20 0;
#X connect 20 0 18 0;
#X connect 20 1 35 0;
#X connect 21 0 10 1;
#X connect 22 0 19 1;
#X connect 22 1 7 0;
#X connect 23 0 36 0;
#X connect 23 0 28 0;
#X connect 24 0 23 0;
#X connect 25 0 23 0;
#X connect 26 0 25 0;
#X connect 27 0 23 1;
#X connect 28 0 19 0;
#X connect 29 0 30 0;
#X connect 30 0 27 0;
#X connect 31 0 34 0;
#X connect 32 0 33 0;
#X connect 33 0 16 0;
#X connect 33 0 54 0;
#X connect 33 0 61 0;
#X connect 34 0 26 0;
#X connect 35 0 21 0;
#X connect 36 0 43 0;
#X connect 38 0 36 1;
#X connect 39 0 30 0;
#X connect 40 0 30 0;
#X connect 41 0 30 0;
#X connect 42 0 48 0;
#X connect 43 0 42 0;
#X connect 44 0 30 0;
#X connect 45 0 30 0;
#X connect 46 0 30 0;
#X connect 47 0 30 0;
#X connect 48 0 39 0;
#X connect 48 1 40 0;
#X connect 48 2 41 0;
#X connect 48 3 44 0;
#X connect 48 4 29 0;
#X connect 48 5 45 0;
#X connect 48 6 55 0;
#X connect 49 0 57 0;
#X connect 49 0 50 0;
#X connect 49 1 51 0;
#X connect 49 1 52 0;
#X connect 49 2 53 0;
#X connect 49 2 58 0;
#X connect 50 0 9 0;
#X connect 51 0 38 0;
#X connect 52 0 9 0;
#X connect 53 0 38 0;
#X connect 54 0 49 0;
#X connect 55 0 56 0;
#X connect 56 0 46 0;
#X connect 56 1 47 0;
#X connect 57 0 38 0;
#X connect 58 0 9 0;
#X connect 59 0 64 0;
#X connect 60 0 63 0;
#X connect 61 0 62 1;
#X connect 61 0 65 0;
#X connect 62 0 61 0;
#X connect 63 0 62 0;
#X connect 64 0 62 0;
#X connect 65 0 54 0;
#X coords 0 -1 1 1 238 230 2 100 100;
#X restore 3 6 pd Maesh;
