#N canvas 153 40 855 807 12;
#X obj 167 59 s~ white;
#X obj 166 34 noise~;
#N canvas 477 33 278 295 windspeed 0;
#X obj 26 32 osc~ 0.1;
#X obj 26 56 +~ 1;
#X obj 26 80 *~ 0.25;
#N canvas 182 182 450 300 gust 0;
#X obj 29 31 noise~;
#X obj 29 55 lop~ 0.5;
#X obj 29 76 lop~ 0.5;
#X obj 29 97 hip~ 0;
#X obj 29 118 *~ 50;
#X obj 29 139 *~;
#X obj 29 164 outlet~;
#X obj 120 30 inlet~;
#X obj 120 54 +~ 0.5;
#X obj 120 78 *~;
#X obj 120 102 -~ 0.125;
#X connect 0 0 1 0;
#X connect 1 0 2 0;
#X connect 2 0 3 0;
#X connect 3 0 4 0;
#X connect 4 0 5 0;
#X connect 5 0 6 0;
#X connect 7 0 8 0;
#X connect 8 0 9 0;
#X connect 8 0 9 1;
#X connect 9 0 10 0;
#X connect 10 0 5 1;
#X restore 39 115 pd gust;
#N canvas 208 208 450 300 squall 0;
#X obj 31 27 inlet~;
#X obj 31 51 max~ 0.4;
#X obj 31 75 -~ 0.4;
#X obj 31 99 *~ 8;
#X obj 31 123 *~;
#X obj 106 223 *~;
#X obj 128 56 noise~;
#X obj 128 80 lop~ 3;
#X obj 128 104 lop~ 3;
#X obj 128 128 hip~ 0;
#X obj 128 152 *~ 20;
#X obj 106 247 outlet~;
#X connect 0 0 1 0;
#X connect 1 0 2 0;
#X connect 2 0 3 0;
#X connect 3 0 4 0;
#X connect 4 0 5 0;
#X connect 5 0 11 0;
#X connect 6 0 7 0;
#X connect 7 0 8 0;
#X connect 8 0 9 0;
#X connect 9 0 10 0;
#X connect 10 0 5 1;
#X restore 98 115 pd squall;
#X f 10;
#X obj 61 143 +~;
#X obj 26 170 +~;
#X obj 26 218 outlet~;
#X obj 26 194 clip~ 0 1;
#X connect 0 0 1 0;
#X connect 1 0 2 0;
#X connect 2 0 6 0;
#X connect 2 0 4 0;
#X connect 2 0 3 0;
#X connect 3 0 5 0;
#X connect 4 0 5 1;
#X connect 5 0 6 1;
#X connect 6 0 8 0;
#X connect 8 0 7 0;
#X restore 31 34 pd windspeed;
#X obj 30 58 delwrite~ a 3000;
#X obj 249 28 catch~ l;
#X obj 274 47 catch~ r;
#X obj 35 171 r~ white;
#X obj 35 367 *~;
#X obj 76 234 *~ 400;
#X obj 76 258 +~ 600;
#X msg 139 257 60;
#X obj 139 178 loadbang;
#X obj 50 312 +~ 0.12;
#X obj 50 336 *~;
#X obj 193 219 r~ white;
#X obj 237 306 *~ 1000;
#X obj 237 330 +~ 1000;
#X obj 210 306 *~;
#X obj 192 428 *~;
#X obj 192 452 *~ 2;
#X obj 192 476 fcpan 0.64;
#X obj 36 421 fcpan 0.28;
#X obj 36 448 throw~ l;
#X obj 103 449 throw~ r;
#X obj 133 634 lop~ 0.1;
#X obj 133 658 *~ 0.4;
#X obj 133 682 +~ 0.3;
#X obj 113 710 sig~ 1;
#X obj 113 734 -~;
#X obj 50 710 r~ white;
#X obj 50 734 max~;
#X obj 50 758 -~;
#X obj 52 782 *~;
#X obj 50 854 *~;
#X obj 50 878 *~ 1.2;
#X obj 51 925 throw~ l;
#X obj 117 925 throw~ r;
#X obj 50 806 hip~ 368;
#X obj 279 701 metro 60;
#X obj 257 701 tgl 19 0 empty empty dynamic 0 -10 1 12 #00faff #553512 #551312 0 1;
#X obj 342 700 snapshot~;
#X obj 343 722 + 1;
#X obj 343 746 * 1600;
#X floatatom 343 770 5 0 0 0 - - - 0;
#X obj 133 610 vd~ a \$1;
#X obj 340 648 osc~ 0.046;
#X obj 341 675 *~ 0.6;
#X obj 468 191 vd~ a 100;
#X text 464 124 HOWLING SECTION;
#X text 35 4 CORE SECTION;
#X text 47 129 WHISTLE SECTION;
#X text 44 576 TREE LEAVES DYNAMIC SECTION;
#X obj 468 215 clip~ 0.35 0.6;
#X obj 468 239 -~ 0.35;
#X obj 468 263 *~ 2;
#X obj 468 287 -~ 0.25;
#X obj 468 311 cos~;
#X obj 468 335 lop~ 0.5;
#X obj 468 359 *~ 200;
#X obj 468 383 +~ 30;
#X obj 468 407 osc~;
#X obj 630 215 clip~ 0.25 0.5;
#X obj 630 239 -~ 0.25;
#X obj 630 263 *~ 2;
#X obj 630 287 -~ 0.25;
#X obj 630 311 cos~;
#X obj 630 335 lop~ 0.1;
#X obj 630 359 *~ 100;
#X obj 630 383 +~ 20;
#X obj 630 407 osc~;
#X obj 388 384 r~ white;
#X obj 388 432 *~;
#X obj 388 456 *~ 2;
#X obj 388 480 *~;
#X obj 388 528 throw~ l;
#X obj 455 527 throw~ r;
#X obj 545 384 r~ white;
#X obj 545 432 *~;
#X obj 545 456 *~ 2;
#X obj 545 480 *~;
#X obj 545 528 throw~ ml;
#X obj 623 533 throw~ mr;
#X obj 339 24 catch~ ml;
#X obj 373 43 catch~ mr;
#X obj 251 93 dac~ 1 2 3 4;
#X obj 545 504 fcpan 0.64;
#X obj 192 500 throw~ ml;
#X obj 269 502 throw~ mr;
#X obj 36 397 *~ 0.42;
#X obj 222 830 *~;
#X obj 222 854 *~ 1.2;
#X obj 218 781 hip~ 568;
#X obj 223 901 throw~ ml;
#X obj 290 901 throw~ mr;
#X obj 388 504 fcpan 0.41;
#X obj 218 806 lop~ 2860;
#X obj 50 830 lop~ 3260;
#X obj 222 878 fcpan 0.31;
#X obj 50 902 fcpan 0.71;
#X obj 228 241 vd~ a 700;
#X obj 48 200 vd~ a 230;
#X obj 630 191 vd~ a 160;
#X obj 35 285 vcf~ 1100 40;
#X obj 194 401 vcf~ 2250 30;
#X obj 388 408 bp~ 640 20;
#X obj 545 408 bp~ 450 30;
#X connect 1 0 0 0;
#X connect 2 0 3 0;
#X connect 4 0 84 0;
#X connect 5 0 84 1;
#X connect 6 0 102 0;
#X connect 7 0 88 0;
#X connect 8 0 9 0;
#X connect 9 0 102 1;
#X connect 10 0 102 2;
#X connect 10 0 103 2;
#X connect 11 0 10 0;
#X connect 12 0 13 0;
#X connect 12 0 13 1;
#X connect 13 0 7 1;
#X connect 14 0 103 0;
#X connect 15 0 16 0;
#X connect 16 0 103 1;
#X connect 17 0 18 1;
#X connect 18 0 19 0;
#X connect 19 0 20 0;
#X connect 20 0 86 0;
#X connect 20 1 87 0;
#X connect 21 0 22 0;
#X connect 21 1 23 0;
#X connect 24 0 25 0;
#X connect 24 0 33 1;
#X connect 25 0 26 0;
#X connect 26 0 28 1;
#X connect 27 0 28 0;
#X connect 28 0 30 1;
#X connect 28 0 31 1;
#X connect 28 0 32 1;
#X connect 29 0 30 0;
#X connect 30 0 31 0;
#X connect 31 0 32 0;
#X connect 32 0 37 0;
#X connect 32 0 91 0;
#X connect 33 0 34 0;
#X connect 34 0 98 0;
#X connect 37 0 96 0;
#X connect 38 0 40 0;
#X connect 39 0 38 0;
#X connect 40 0 41 0;
#X connect 41 0 42 0;
#X connect 42 0 43 0;
#X connect 43 0 44 0;
#X connect 44 0 24 0;
#X connect 45 0 46 0;
#X connect 46 0 40 0;
#X connect 47 0 52 0;
#X connect 52 0 53 0;
#X connect 53 0 54 0;
#X connect 54 0 55 0;
#X connect 55 0 56 0;
#X connect 56 0 57 0;
#X connect 57 0 58 0;
#X connect 57 0 71 1;
#X connect 58 0 59 0;
#X connect 59 0 60 0;
#X connect 60 0 73 1;
#X connect 61 0 62 0;
#X connect 62 0 63 0;
#X connect 63 0 64 0;
#X connect 64 0 65 0;
#X connect 65 0 66 0;
#X connect 66 0 67 0;
#X connect 66 0 77 1;
#X connect 67 0 68 0;
#X connect 68 0 69 0;
#X connect 69 0 79 1;
#X connect 70 0 104 0;
#X connect 71 0 72 0;
#X connect 72 0 73 0;
#X connect 73 0 94 0;
#X connect 76 0 105 0;
#X connect 77 0 78 0;
#X connect 78 0 79 0;
#X connect 79 0 85 0;
#X connect 82 0 84 2;
#X connect 83 0 84 3;
#X connect 85 0 80 0;
#X connect 85 1 81 0;
#X connect 88 0 21 0;
#X connect 89 0 90 0;
#X connect 90 0 97 0;
#X connect 91 0 95 0;
#X connect 94 0 74 0;
#X connect 94 1 75 0;
#X connect 95 0 89 0;
#X connect 96 0 33 0;
#X connect 97 0 92 0;
#X connect 97 1 93 0;
#X connect 98 0 35 0;
#X connect 98 1 36 0;
#X connect 99 0 15 0;
#X connect 99 0 17 1;
#X connect 99 0 17 0;
#X connect 100 0 8 0;
#X connect 100 0 12 0;
#X connect 101 0 61 0;
#X connect 102 0 7 0;
#X connect 103 0 18 0;
#X connect 104 0 71 0;
#X connect 105 0 77 0;
