#N canvas 488 309 450 300 12;
#X obj 96 37 inlet;
#X obj 94 121 expr $f1 % $f2;
#X obj 151 38 inlet;
#X obj 144 83 t f b;
#X obj 114 74 bng 19 250 50 0 empty empty empty 0 -10 0 12 #fcfcfc #000000 #000000;
#X floatatom 94 145 5 0 0 0 - - - 0;
#X obj 94 168 outlet;
#X connect 0 0 1 0;
#X connect 0 0 4 0;
#X connect 1 0 5 0;
#X connect 2 0 3 0;
#X connect 3 0 1 1;
#X connect 3 1 1 1;
#X connect 4 0 3 0;
#X connect 5 0 6 0;
