#N canvas 38 83 746 527 12;
#N canvas 62 259 500 648 bar 1;
#X floatatom 79 141 5 0 0 0 BPM - - 0;
#X floatatom 79 185 8 0 0 1 msec - - 8;
#X obj 79 161 expr 60000/$f1 \;;
#X obj 178 210 metro;
#X obj 178 187 tgl 19 0 empty empty empty 0 -10 0 12 #fcfcfc #000000 #000000 0 1;
#X obj 178 237 spigot;
#X obj 338 162 value;
#X floatatom 338 186 5 0 0 0 - - - 0;
#X obj 338 209 tgl 19 0 empty empty empty 0 -10 0 12 #fcfcfc #000000 #000000 0 1;
#X msg 237 283 1, f 2;
#X obj 93 319 expr $i1*$i3*$f2;
#X msg 275 294 1.5;
#X obj 178 278 bng 24 250 50 0 empty empty empty 0 -10 0 12 #faff00 #ff0400 #000000;
#X floatatom 241 419 5 0 6 0 - - - 0;
#X floatatom 237 504 9 0 0 0 - - - 0;
#X obj 241 441 expr 1/(pow(2 \, $i1)) \; 1/(pow(3 \, $i2));
#X floatatom 387 414 5 1 4 0 - - - 12;
#X floatatom 380 498 5 0 0 0 - - - 0;
#X floatatom 308 326 5 0 6 0 - - - 0;
#X obj 312 358 t b f;
#X obj 28 50 inlet bpm;
#X obj 230 34 inlet numerator;
#X obj 362 43 inlet denominator;
#X connect 0 0 2 0;
#X connect 1 0 10 1;
#X connect 1 0 3 1;
#X connect 2 0 1 0;
#X connect 3 0 5 0;
#X connect 4 0 3 0;
#X connect 5 0 12 0;
#X connect 6 0 7 0;
#X connect 7 0 8 0;
#X connect 9 0 10 2;
#X connect 11 0 10 2;
#X connect 13 0 15 0;
#X connect 15 0 14 0;
#X connect 15 1 17 0;
#X connect 16 0 15 1;
#X connect 18 0 19 0;
#X connect 19 0 13 0;
#X connect 19 1 16 0;
#X connect 20 0 0 0;
#X restore 46 49 pd bar;
#X obj 638 349 value;
#X msg 563 283 48 50 51 53 55 56 58 60;
#X floatatom 283 398 5 0 0 0 - - - 0;
#X floatatom 333 398 5 0 0 0 - - - 0;
#X floatatom 376 398 5 0 0 0 - - - 0;
#X floatatom 415 398 5 0 0 0 - - - 0;
#X floatatom 459 398 5 0 0 0 - - - 0;
#X floatatom 504 398 5 0 0 0 - - - 0;
#X floatatom 545 398 5 0 0 0 - - - 0;
#X floatatom 595 398 5 0 0 0 - - - 0;
#X msg 377 18 21 22 24 26 27 29 31;
#X obj 328 355 unpack f f f f f f f f;
#X text 303 19 La Frigian;
#X msg 486 70 70 72 74 75 77 79 81;
#X text 441 71 La Maj;
#X msg 389 283 48 50 51 53 55 56 58 60;
#X msg 217 283 48 50 51 53 55 56 58 60;
#X text 120 64 Bb Min;
#X msg 185 69 46 48 49 51 53 54 56 58;
#X text 352 122 Fa# Frigian;
#X msg 357 144 66 67 69 71 72 74 76;
#X text 103 122 Re Dorian;
#X msg 102 144 74 76 77 79 81 83 84 86;
#X text 541 120 Fa Maj;
#X msg 541 142 89 91 93 94 96 98 100;
#X obj 346 434 t b b b b b b b b;
#X obj 490 444 bng 19 250 50 0 empty empty empty 0 -10 0 12 #fcfcfc #000000 #000000;
#X obj 146 425 makenote 100 5020;
#X msg 44 283 60 62 64 65 67 69 71 73;
#X msg 98 354 60;
#X msg 127 354 61;
#X msg 158 354 63;
#X msg 188 354 65;
#X obj 141 470 noteout 1;
#X connect 2 0 12 0;
#X connect 3 0 28 0;
#X connect 4 0 28 0;
#X connect 5 0 28 0;
#X connect 6 0 28 0;
#X connect 7 0 28 0;
#X connect 8 0 28 0;
#X connect 9 0 28 0;
#X connect 10 0 28 0;
#X connect 11 0 12 0;
#X connect 12 0 3 0;
#X connect 12 1 4 0;
#X connect 12 2 5 0;
#X connect 12 3 6 0;
#X connect 12 4 7 0;
#X connect 12 5 8 0;
#X connect 12 6 9 0;
#X connect 12 7 10 0;
#X connect 14 0 12 0;
#X connect 16 0 12 0;
#X connect 17 0 12 0;
#X connect 19 0 12 0;
#X connect 21 0 12 0;
#X connect 23 0 12 0;
#X connect 25 0 12 0;
#X connect 26 0 3 0;
#X connect 26 0 30 0;
#X connect 26 1 4 0;
#X connect 26 1 31 0;
#X connect 26 2 5 0;
#X connect 26 2 32 0;
#X connect 26 3 6 0;
#X connect 26 3 33 0;
#X connect 26 4 7 0;
#X connect 26 5 8 0;
#X connect 26 6 9 0;
#X connect 26 7 10 0;
#X connect 27 0 26 0;
#X connect 28 0 34 0;
#X connect 28 1 34 1;
#X connect 29 0 12 0;
#X connect 30 0 28 0;
#X connect 31 0 28 0;
#X connect 32 0 28 0;
#X connect 33 0 28 0;
