#N canvas 44 25 403 517 10;
#X floatatom -21 193 5 0 0 1 Unrounded_pitch - unroundedinput 0;
#X floatatom -21 213 5 0 0 1 Rounded_pitch - roundedinput 0;
#X obj -21 147 tgl 15 0 empty presetpitch Pitch_detection_ON 17 7 0 10 #c4fcfc #000000 #000000 0 1;
#X obj -21 11 hsl 128 15 0 100 0 0 inputvolume presetvol Input_volume 2 8 0 10 #fce0c4 #000000 #000000 0 1;
#X obj -21 29 hsl 128 15 0 100 0 0 gatelevel presetgate Gate_level 2 8 0 10 #fcfcc4 #000000 #000000 0 1;
#X obj -21 47 hsl 128 15 0 20000 0 0 pn presetboundary Boundary_frequency 2 8 0 10 #c4fcc4 #000000 #000000 0 1;
#X obj 94 83 tgl 15 0 specgateonoff presetspecgate Spectral_gate_OFF -105 7 0 10 #c4fcc4 #000000 #000000 0 1;
#N canvas 441 95 673 573 in_ADC/out_MIDI 0;
#N canvas 0 22 450 300 round 0;
#X obj 75 71 int;
#X obj 60 110 -;
#X obj 60 142 > 0.5;
#X obj 36 176 +;
#X obj 36 110 f;
#X obj 36 40 t b a a;
#X obj 36 202 outlet;
#X obj 36 16 inlet;
#X connect 0 0 1 1;
#X connect 0 0 4 1;
#X connect 1 0 2 0;
#X connect 2 0 3 1;
#X connect 3 0 6 0;
#X connect 4 0 3 0;
#X connect 5 0 4 0;
#X connect 5 1 1 0;
#X connect 5 2 0 0;
#X connect 7 0 5 0;
#X restore 164 454 pd round;
#X floatatom 207 415 5 0 0 0 - - - 0;
#X obj 125 378 sigmund~ -hop 4096 pitch env;
#X obj 125 398 moses 0;
#X msg 237 330 vibrato 3;
#X msg 246 304 growth 7;
#X floatatom 164 474 5 0 0 0 - - - 0;
#X obj 228 131 loadbang;
#X obj 37 131 env~ 64;
#X obj 22 241 *~;
#X msg 225 356 minpower 45;
#X obj 70 241 s env;
#X obj 37 152 > 55;
#X obj 207 434 outlet;
#X obj 164 500 outlet;
#X obj 241 12 inlet;
#X obj 20 112 *~;
#X obj 57 72 * 0.01;
#X obj 57 50 r inputvolume;
#X obj -21 337 s~ inputadc;
#X obj 86 135 r gatelevel;
#X obj 345 205 s presetvol;
#X msg 345 183 80;
#X obj 345 249 s presetgate;
#X msg 345 227 55;
#X obj 22 273 *~;
#X msg 345 273 1;
#X obj 345 295 s presetpitch;
#X obj 346 340 s presetboundary;
#X msg 345 318 5000;
#X obj 346 385 s presetspecgate;
#X obj 70 211 *;
#X msg 342 94 \; presetpitch label Pitch_detection_ON;
#X msg 342 131 \; presetpitch label Pitch_detection_OFF;
#X obj 339 67 sel 1 0;
#X msg 346 363 0;
#X obj 37 211 line;
#X obj 37 179 pack 0 20;
#X obj 346 433 s presetbandwidth;
#X msg 346 411 100;
#X msg 346 456 1;
#X obj 347 493 s dsppreset;
#X obj 487 214 r cnvs;
#X obj 472 300 f;
#X msg 450 279 bang;
#X floatatom 487 256 5 0 128 0 - - - 0;
#X obj 472 323 pack 0 8;
#X obj 487 235 * 128;
#X msg 472 348 \; crisps vis_size \$1 \$2;
#X obj 420 493 s prepitchlabel;
#X obj 116 258 nbx 5 14 -1e+37 1e+37 0 0 empty empty empty 0 -8 0 10 #fcfcfc #000000 #000000 0 256;
#X obj 115 233 line;
#X obj 114 208 pack 0 100;
#X text 120 274 input level;
#X obj 19 12 adc~ 1;
#X connect 0 0 6 0;
#X connect 1 0 13 0;
#X connect 2 0 3 0;
#X connect 3 1 0 0;
#X connect 3 1 1 0;
#X connect 4 0 2 0;
#X connect 5 0 2 0;
#X connect 6 0 14 0;
#X connect 7 0 4 0;
#X connect 7 0 10 0;
#X connect 7 0 5 0;
#X connect 7 0 22 0;
#X connect 7 0 24 0;
#X connect 7 0 26 0;
#X connect 7 0 29 0;
#X connect 7 0 35 0;
#X connect 7 0 39 0;
#X connect 7 0 40 0;
#X connect 8 0 12 0;
#X connect 8 0 31 0;
#X connect 9 0 25 0;
#X connect 9 0 19 0;
#X connect 10 0 2 0;
#X connect 12 0 31 1;
#X connect 12 0 37 0;
#X connect 15 0 25 1;
#X connect 15 0 34 0;
#X connect 16 0 9 0;
#X connect 16 0 8 0;
#X connect 17 0 16 1;
#X connect 18 0 17 0;
#X connect 20 0 12 1;
#X connect 22 0 21 0;
#X connect 24 0 23 0;
#X connect 25 0 2 0;
#X connect 26 0 27 0;
#X connect 29 0 28 0;
#X connect 31 0 11 0;
#X connect 31 0 52 0;
#X connect 34 0 32 0;
#X connect 34 1 33 0;
#X connect 35 0 30 0;
#X connect 36 0 9 1;
#X connect 37 0 36 0;
#X connect 39 0 38 0;
#X connect 40 0 41 0;
#X connect 40 0 49 0;
#X connect 42 0 47 0;
#X connect 43 0 46 0;
#X connect 44 0 43 0;
#X connect 45 0 43 1;
#X connect 45 0 44 0;
#X connect 46 0 48 0;
#X connect 47 0 45 0;
#X connect 51 0 50 0;
#X connect 52 0 51 0;
#X connect 54 0 16 0;
#X restore -21 171 pd in_ADC/out_MIDI;
#X obj -21 258 r notenote;
#X obj -21 279 mtof;
#X obj -6 320 * 0.01;
#X obj -21 384 *~;
#X obj -6 299 r env;
#N canvas 0 22 450 300 pulse 0;
#X obj 199 176 line~;
#X obj 52 197 cos~;
#X obj 199 152 pack 0 50;
#X obj 53 124 -~ 0.5;
#X obj 53 150 *~;
#X obj 199 77 / 10;
#X obj 199 101 moses 0;
#X msg 199 125 0;
#X obj 52 173 clip~ -0.5 0.5;
#X obj 199 201 +~ 1;
#X obj 52 221 +~ 1;
#X obj 52 245 *~ 0.5;
#X obj 53 100 phasor~;
#X obj 53 73 inlet;
#X obj 198 53 inlet;
#X obj 53 271 outlet~;
#X connect 0 0 9 0;
#X connect 1 0 10 0;
#X connect 2 0 0 0;
#X connect 3 0 4 0;
#X connect 4 0 8 0;
#X connect 5 0 6 0;
#X connect 6 0 7 0;
#X connect 6 1 2 0;
#X connect 7 0 2 0;
#X connect 8 0 1 0;
#X connect 9 0 4 1;
#X connect 10 0 11 0;
#X connect 11 0 15 0;
#X connect 12 0 3 0;
#X connect 13 0 12 0;
#X connect 14 0 5 0;
#X restore -21 365 pd pulse;
#X floatatom 24 345 0 0 100 1 Bandwidth presetbandwidth - 0;
#N canvas 0 22 96 129 dsp 0;
#X msg 5 50 \; pd dsp 1;
#X msg 5 83 \; pd dsp 0;
#X obj 5 5 inlet;
#X obj 5 26 sel 1 0;
#X connect 2 0 3 0;
#X connect 3 0 0 0;
#X connect 3 1 1 0;
#X restore 65 488 pd dsp;
#X obj 65 470 tgl 15 0 empty dsppreset empty 0 -6 0 8 #fcfcfc #000000 #000000 0 1;
#N canvas 474 228 252 288 spectralgatestuff 0;
#X obj 22 223 spigot;
#X floatatom 22 118 10 0 0 1 Spectral_brightness - - 0;
#X obj 25 139 hsl 128 8 0 1 0 0 empty empty empty -2 -8 0 10 #fcfcfc #000000 #000000 0 1;
#X obj 96 31 bang~;
#X obj 22 180 tgl 15 0 empty empty Pitch 17 7 0 10 #dcdcdc #000000 #000000 0 1;
#X obj 22 159 < 0.05;
#X obj 115 181 tgl 15 0 empty empty noise 17 7 0 10 #dcdcdc #000000 #000000 0 1;
#X obj 115 160 > 0.92;
#X obj 22 269 s notenote;
#X floatatom 22 243 5 0 0 0 - - - 0;
#X obj 22 200 r roundedinput;
#X obj 22 29 r~ inputadc;
#X msg 134 34 boundary \$1;
#X obj 134 14 r pn;
#N canvas 0 22 498 331 !/ 0;
#X obj 15 15 inlet;
#X obj 15 37 * -1;
#X obj 15 58 + 1;
#X obj 15 80 outlet;
#X obj 83 32 sel 1 0;
#X msg 86 59 \; specgateonoff label Spectral_gate_ON;
#X msg 86 96 \; specgateonoff label Spectral_gate_OFF;
#X obj 85 136 sel 1 0;
#X msg 88 163 \; presetspecgate label Spectral_gate_ON;
#X msg 88 200 \; presetspecgate label Spectral_gate_OFF;
#X connect 0 0 1 0;
#X connect 0 0 4 0;
#X connect 0 0 7 0;
#X connect 1 0 2 0;
#X connect 2 0 3 0;
#X connect 4 0 5 0;
#X connect 4 1 6 0;
#X connect 7 0 8 0;
#X connect 7 1 9 0;
#X restore 171 206 pd !/;
#X obj 22 91 spigot;
#X obj 171 76 tgl 15 0 empty specgateonoff Spectral_gate_OFF -105 7 0 10 #fcc4c4 #000000 #000000 0 1;
#X obj 22 139 cnv 8 1 8 empty crisps empty 20 12 0 14 #c4c4fc #404040 0;
#X obj 66 159 s cnvs;
#X floatatom 166 15 8 0 0 0 - - - 0;
#X obj 23 56 specBrightness~ 2048 5000;
#X connect 0 0 9 0;
#X connect 1 0 2 0;
#X connect 2 0 5 0;
#X connect 2 0 7 0;
#X connect 2 0 18 0;
#X connect 3 0 20 0;
#X connect 4 0 0 1;
#X connect 5 0 4 0;
#X connect 7 0 6 0;
#X connect 9 0 8 0;
#X connect 10 0 0 0;
#X connect 11 0 20 0;
#X connect 12 0 20 0;
#X connect 13 0 12 0;
#X connect 13 0 19 0;
#X connect 14 0 0 1;
#X connect 15 0 1 0;
#X connect 16 0 15 1;
#X connect 16 0 14 0;
#X connect 20 0 15 0;
#X restore -15 101 pd spectralgatestuff;
#X text -18 468 dsp toggle ->;
#X obj 94 65 tgl 15 0 prepitchonoff prepitchlabel Pre-Pitchshift_OFF -110 7 0 10 #c4c4fc #000000 #000000 0 1;
#X obj 94 121 tgl 15 0 antitune anti Antitune-Disengaged -115 7 0 10 #e0c4fc #000000 #000000 0 1;
#N canvas 575 48 235 245 guts 0;
#X obj 72 48 r~ inputadc;
#N canvas 314 27 501 442 fft-analysis 0;
#X obj 65 287 *~;
#X obj 26 287 *~;
#X obj 374 161 *~;
#X obj 333 161 *~;
#X obj 333 184 +~;
#X obj 26 46 *~;
#X obj 26 21 inlet~;
#X obj 26 69 rfft~;
#X obj 113 108 *~;
#X obj 333 138 rfft~;
#X obj 25 311 rifft~;
#X obj 23 399 outlet~;
#X obj 79 108 *~;
#X obj 79 131 +~;
#X obj 79 232 *~;
#X obj 79 210 clip~;
#X obj 59 47 tabreceive~ \$0-hann;
#X obj 148 184 expr 0.01*$f1*$f1;
#X obj 79 157 +~ 1e-20;
#X obj 79 256 *~ 0.00065;
#X obj 334 112 *~;
#X obj 334 87 inlet~;
#X obj 367 113 tabreceive~ \$0-hann;
#X obj 79 184 q8_rsqrt~;
#X obj 334 215 q8_sqrt~;
#X obj 73 400 outlet~;
#X msg 300 366 \; window-size 1024 \; squelch 30 \;;
#X obj 208 393 switch~ 1024 4;
#X obj 208 346 loadbang;
#X msg 208 372 1;
#X obj 148 160 r squelch;
#X obj 25 354 *~;
#X obj 39 331 tabreceive~ \$0-hann;
#X connect 0 0 10 1;
#X connect 1 0 10 0;
#X connect 2 0 4 1;
#X connect 3 0 4 0;
#X connect 4 0 24 0;
#X connect 5 0 7 0;
#X connect 6 0 5 0;
#X connect 7 0 12 0;
#X connect 7 0 12 1;
#X connect 7 0 1 0;
#X connect 7 1 8 0;
#X connect 7 1 8 1;
#X connect 7 1 0 0;
#X connect 8 0 13 1;
#X connect 9 0 3 0;
#X connect 9 0 3 1;
#X connect 9 1 2 0;
#X connect 9 1 2 1;
#X connect 10 0 31 0;
#X connect 12 0 13 0;
#X connect 13 0 18 0;
#X connect 14 0 19 0;
#X connect 15 0 14 0;
#X connect 16 0 5 1;
#X connect 17 0 15 2;
#X connect 18 0 23 0;
#X connect 19 0 0 1;
#X connect 19 0 1 1;
#X connect 20 0 9 0;
#X connect 21 0 20 0;
#X connect 22 0 20 1;
#X connect 23 0 15 0;
#X connect 24 0 14 1;
#X connect 28 0 29 0;
#X connect 28 0 26 0;
#X connect 29 0 27 0;
#X connect 30 0 17 0;
#X connect 31 0 11 0;
#X connect 31 0 25 0;
#X connect 32 0 31 1;
#X restore -15 78 pd fft-analysis;
#N canvas 1 142 565 454 hann-window 0;
#N canvas 0 22 450 300 (subpatch) 0;
#X array \$0-hann 1024 float 0;
#X coords 0 1 1023 0 300 100 1;
#X restore 82 311 graph;
#X obj 378 165 osc~;
#X obj 378 190 *~ -0.5;
#X obj 378 214 +~ 0.5;
#X obj 331 247 tabwrite~ \$0-hann;
#X obj 37 88 r window-size;
#X obj 38 173 /;
#X obj 127 142 samplerate~;
#X obj 38 251 s window-sec;
#X obj 177 204 swap;
#X obj 177 228 /;
#X obj 177 252 s window-hz;
#X obj 49 201 * 1000;
#X obj 49 228 s window-msec;
#X obj 38 115 t f b f;
#X msg 173 92 resize \$1;
#X obj 173 116 s \$0-hann;
#X obj 330 105 r window-hz;
#X msg 382 130 0;
#X obj 330 131 t f b;
#X text 15 8 calculate Hann window table (variable window size) and constants window-hz (fundamental frequency of analysis) \, window-sec and window-msec (analysis window size in seconds and msec).;
#X connect 1 0 2 0;
#X connect 2 0 3 0;
#X connect 3 0 4 0;
#X connect 5 0 14 0;
#X connect 6 0 8 0;
#X connect 6 0 12 0;
#X connect 7 0 6 1;
#X connect 7 0 9 1;
#X connect 9 0 10 0;
#X connect 9 1 10 1;
#X connect 10 0 11 0;
#X connect 12 0 13 0;
#X connect 14 0 6 0;
#X connect 14 0 9 0;
#X connect 14 1 7 0;
#X connect 14 2 15 0;
#X connect 15 0 16 0;
#X connect 17 0 19 0;
#X connect 18 0 1 1;
#X connect 19 0 1 0;
#X connect 19 1 4 0;
#X connect 19 1 18 0;
#X restore 86 78 pd hann-window;
#X obj -15 181 *~;
#X obj 57 182 *~;
#N canvas 479 69 639 586 prepitch 0;
#X obj 127 160 exp;
#X floatatom 127 180 0 0 0 0 - - - 0;
#X obj 127 391 cos~;
#X obj 127 418 *~;
#X obj 127 447 +~;
#X obj 214 298 wrap~;
#X obj 296 401 cos~;
#X obj 296 428 *~;
#X floatatom 127 266 0 0 0 0 - - - 0;
#X obj 127 293 phasor~ 0;
#X obj 214 271 +~ 0.5;
#X obj 127 339 -~ 0.5;
#X obj 127 365 *~ 0.5;
#X obj 296 340 -~ 0.5;
#X obj 296 373 *~ 0.5;
#X obj 127 200 - 1;
#X obj 127 141 * 0.05776;
#X obj 127 220 * -1;
#X text 225 113 <-- transposition;
#X obj -61 27 inlet~;
#X obj 127 483 outlet~;
#X obj 192 392 vd~ \$0delay1;
#X obj 358 403 vd~ \$0delay1;
#X obj -12 95 delwrite~ \$0delay1 10;
#X obj -33 67 spigot~;
#X text 244 128 (halftones);
#X obj 6 33 r prepitchonoff;
#X obj -116 153 sel 1 0;
#X msg -113 180 \; prepitchlabel label Pre-Pitchshift_ON;
#X msg -113 217 \; prepitchlabel label Pre-Pitchshift_OFF;
#X obj 127 31 -;
#X floatatom 191 113 5 0 0 0 - - - 0;
#X obj 127 9 r roundedinput;
#X obj 225 9 r unroundedinput;
#X obj 127 53 moses -1;
#X obj 127 75 moses 1;
#X obj 127 114 * -1;
#X obj 183 53 r antitune;
#X obj 183 74 * 2;
#X obj 209 74 - 1;
#X obj -116 279 sel 1 0;
#X msg -113 343 \; anti label Antitune-Disengaged;
#X msg -113 306 \; anti label Antitune----Engaged;
#X obj 127 240 / 0.01;
#X obj 192 340 *~ 10;
#X obj 359 341 *~ 10;
#X connect 0 0 1 0;
#X connect 1 0 15 0;
#X connect 2 0 3 0;
#X connect 3 0 4 0;
#X connect 4 0 20 0;
#X connect 5 0 13 0;
#X connect 5 0 45 0;
#X connect 6 0 7 0;
#X connect 7 0 4 1;
#X connect 8 0 9 0;
#X connect 9 0 11 0;
#X connect 9 0 10 0;
#X connect 9 0 44 0;
#X connect 10 0 5 0;
#X connect 11 0 12 0;
#X connect 12 0 2 0;
#X connect 13 0 14 0;
#X connect 14 0 6 0;
#X connect 15 0 17 0;
#X connect 16 0 0 0;
#X connect 17 0 43 0;
#X connect 19 0 24 0;
#X connect 21 0 3 1;
#X connect 22 0 7 1;
#X connect 24 0 20 0;
#X connect 26 0 24 1;
#X connect 26 0 27 0;
#X connect 27 0 28 0;
#X connect 27 1 29 0;
#X connect 30 0 34 0;
#X connect 32 0 30 0;
#X connect 33 0 30 1;
#X connect 34 1 35 0;
#X connect 35 0 31 0;
#X connect 35 0 36 0;
#X connect 36 0 16 0;
#X connect 37 0 38 0;
#X connect 37 0 40 0;
#X connect 38 0 39 0;
#X connect 39 0 36 1;
#X connect 40 0 42 0;
#X connect 40 1 41 0;
#X connect 43 0 8 0;
#X connect 44 0 21 0;
#X connect 45 0 22 0;
#X restore -15 55 pd prepitch;
#X obj -15 30 inlet~;
#X obj -15 211 outlet~;
#X obj 57 210 outlet~;
#X obj 72 113 z~ 90;
#X obj 18 151 limiter~ 10 1;
#X obj -15 115 z~ 90;
#X connect 0 0 1 1;
#X connect 1 0 10 0;
#X connect 1 0 11 0;
#X connect 1 1 9 0;
#X connect 1 1 10 1;
#X connect 3 0 7 0;
#X connect 4 0 8 0;
#X connect 5 0 1 0;
#X connect 6 0 5 0;
#X connect 9 0 4 1;
#X connect 10 0 4 0;
#X connect 10 0 3 1;
#X connect 11 0 3 0;
#X restore -21 407 pd guts;
#X obj -21 436 dac~ 1 2;
#X text 190 88 See the real-time version for more information on spectral brightness in general.;
#X connect 2 0 7 0;
#X connect 7 0 1 0;
#X connect 7 1 0 0;
#X connect 8 0 9 0;
#X connect 9 0 13 0;
#X connect 10 0 11 1;
#X connect 11 0 21 0;
#X connect 12 0 10 0;
#X connect 13 0 11 0;
#X connect 14 0 13 1;
#X connect 16 0 15 0;
#X connect 21 0 22 0;
#X connect 21 1 22 1;
