#N canvas 287 370 669 447 12;
#X obj 150 105 inlet bpm;
#X obj 91 217 bng 19 250 50 0 empty empty empty 0 -10 0 12 #fcfcfc #000000 #000000;
#X obj 110 241 int;
#X obj 110 265 t b f;
#X msg 110 289 60000;
#X obj 110 313 /;
#X obj 110 337 int;
#X floatatom 110 361 5 0 0 0 - - - 0;
#X msg 243 254 0.25;
#X msg 280 263 0.5;
#X msg 315 279 1;
#X msg 343 258 1.5;
#X obj 219 382 *;
#X floatatom 219 406 5 0 0 0 - - - 0;
#X obj 276 405 outlet msec;
#X msg 370 278 2;
#X msg 422 274 4;
#X msg 402 248 3;
#X obj 228 76 inlet div;
#X obj 224 108 t b f;
#X obj 302 108 sel 0 1 2 3 4 5 6 7 8 9 10 11;
#X msg 458 241 0.75;
#X connect 0 0 1 0;
#X connect 0 0 2 1;
#X connect 1 0 2 0;
#X connect 2 0 3 0;
#X connect 3 0 4 0;
#X connect 3 1 5 1;
#X connect 4 0 5 0;
#X connect 5 0 6 0;
#X connect 6 0 7 0;
#X connect 7 0 12 0;
#X connect 8 0 12 1;
#X connect 9 0 12 1;
#X connect 10 0 12 1;
#X connect 11 0 12 1;
#X connect 12 0 13 0;
#X connect 12 0 14 0;
#X connect 15 0 12 1;
#X connect 16 0 12 1;
#X connect 17 0 12 1;
#X connect 18 0 19 0;
#X connect 19 0 2 0;
#X connect 19 1 20 0;
#X connect 20 0 8 0;
#X connect 20 1 9 0;
#X connect 20 2 10 0;
#X connect 20 3 15 0;
#X connect 20 4 16 0;
#X connect 20 5 17 0;
#X connect 20 6 21 0;
#X connect 21 0 12 1;
