#N canvas 26 26 450 300 12;
#X obj 110 58 vline~;
#X obj 110 82 *~;
#X obj 108 142 *~;
#X obj 143 95 noise~;
#X obj 143 119 bp~ 5000 12;
#X obj 110 9 inlet;
#X msg 110 34 1 10 0 \, 0 20 2;
#X obj 106 173 throw~ plastic;
#X connect 0 0 1 0;
#X connect 0 0 1 1;
#X connect 1 0 2 0;
#X connect 2 0 7 0;
#X connect 3 0 4 0;
#X connect 4 0 2 1;
#X connect 5 0 6 0;
#X connect 6 0 0 0;
