#N canvas 78 78 450 514 12;
#X obj 70 10 inlet;
#X obj 70 39 unpack f f f;
#X obj 54 167 phasor~;
#X obj 127 166 phasor~;
#X obj 196 171 phasor~;
#X obj 79 199 *~;
#X obj 161 195 *~;
#X obj 118 227 *~;
#X obj 180 241 +~;
#X obj 157 280 +~;
#X obj 83 339 +~;
#X obj 81 372 cos~;
#X obj 81 396 hip~ 1000;
#X floatatom 124 101 5 0 0 1 M - - 0;
#X floatatom 124 121 5 0 0 1 D - - 0;
#X floatatom 124 141 5 0 0 1 S - - 0;
#X obj 81 420 outlet~;
#X connect 0 0 1 0;
#X connect 1 0 13 0;
#X connect 1 1 14 0;
#X connect 1 2 15 0;
#X connect 2 0 5 0;
#X connect 2 0 9 0;
#X connect 3 0 5 1;
#X connect 3 0 6 0;
#X connect 3 0 8 0;
#X connect 4 0 6 1;
#X connect 4 0 8 1;
#X connect 5 0 7 0;
#X connect 6 0 7 1;
#X connect 7 0 10 0;
#X connect 8 0 9 1;
#X connect 9 0 10 1;
#X connect 10 0 11 0;
#X connect 11 0 12 0;
#X connect 12 0 16 0;
#X connect 13 0 2 0;
#X connect 14 0 3 0;
#X connect 15 0 4 0;
#X coords 0 -1 1 1 85 60 2 100 100;
