#N canvas 600 380 767 485 12;
#X obj 43 21 inlet notes;
#X msg 170 354 48 50 51 53 55 56 58 60;
#X msg 323 37 21 22 24 26 27 29 31;
#X text 250 38 La Frigian;
#X msg 323 81 70 72 74 75 77 79 81;
#X text 278 82 La Maj;
#X msg 168 329 48 50 51 53 55 56 58 60;
#X msg 170 298 48 50 51 53 55 56 58 60;
#X text 277 60 Bb Min;
#X msg 323 60 46 48 49 51 53 54 56 58;
#X text 243 101 Fa# Frigian;
#X msg 324 103 66 67 69 71 72 74 76;
#X text 257 124 Re Dorian;
#X msg 323 124 74 76 77 79 81 83 84 86;
#X text 277 144 Fa Maj;
#X msg 324 145 89 91 93 94 96 98 100;
#X msg 324 172 60 62 64 65 67 69 71 73;
#X obj 178 181 poly;
