#N canvas 186 208 472 300 12;
#X obj 148 72 inlet;
#X msg 148 96 1 0 0 \, 0 50 0;
#X obj 148 120 vline~;
#X obj 148 144 *~;
#X obj 148 168 *~;
#X obj 148 192 *~;
#X obj 228 133 osc~ \$1;
#X obj 228 157 +~;
#X obj 297 158 osc~ \$2;
#X obj 148 219 outlet~;
#X connect 0 0 1 0;
#X connect 1 0 2 0;
#X connect 2 0 3 0;
#X connect 2 0 3 1;
#X connect 3 0 4 0;
#X connect 3 0 4 1;
#X connect 4 0 5 0;
#X connect 5 0 9 0;
#X connect 6 0 7 0;
#X connect 7 0 5 1;
#X connect 8 0 7 1;
