#N canvas 26 26 450 300 12;
#X obj 59 34 inlet f1 f2 f3;
#X obj 59 58 t b a;
#X msg 59 82 0 \, 0.46 100 0 \, 1 0 100 \, 0 50 101;
#X obj 59 106 vline~;
#X obj 59 130 *~;
#X obj 59 154 *~;
#X obj 166 127 pnoise;
#X obj 133 171 *~;
#X obj 140 209 rpole~ 0.65;
#X obj 140 233 rpole~ 0.62;
#X obj 140 257 outlet~;
#X connect 0 0 1 0;
#X connect 1 0 2 0;
#X connect 1 1 6 0;
#X connect 2 0 3 0;
#X connect 3 0 4 0;
#X connect 3 0 4 1;
#X connect 4 0 5 0;
#X connect 4 0 5 1;
#X connect 5 0 7 0;
#X connect 6 0 7 1;
#X connect 7 0 8 0;
#X connect 8 0 9 0;
#X connect 9 0 10 0;
