#N canvas 150 133 303 480 12;
#X obj 80 60 bng 19 250 50 0 empty empty empty 0 -10 0 12 #fcfcfc #000000 #000000;
#X obj 80 84 t b b b;
#X obj 80 108 del 200;
#X msg 53 131 3345 2980 4790;
#X msg 96 150 4345 2480 4795;
#X obj 129 175 del 300;
#X obj 52 173 slideclunk;
#X obj 131 196 shortping 10500 9453;
#X obj 42 202 *~ 0.2;
#X obj 50 227 +~;
#X obj 95 241 r~ fba;
#X obj 96 266 delwrite~ a 40;
#X obj 105 300 delread~ a 25;
#X obj 105 324 lop~ 400;
#X obj 105 348 *~ 0.3;
#X obj 76 371 +~;
#X obj 76 398 *~ 0.3;
#X obj 169 375 s~ fba;
#X obj 75 419 outlet~;
#X obj 80 28 inlet;
#X connect 0 0 1 0;
#X connect 1 0 2 0;
#X connect 1 1 4 0;
#X connect 1 2 5 0;
#X connect 2 0 3 0;
#X connect 3 0 6 0;
#X connect 4 0 6 0;
#X connect 5 0 7 0;
#X connect 6 0 8 0;
#X connect 7 0 9 1;
#X connect 8 0 9 0;
#X connect 9 0 11 0;
#X connect 9 0 15 0;
#X connect 10 0 11 0;
#X connect 12 0 13 0;
#X connect 13 0 14 0;
#X connect 14 0 17 0;
#X connect 14 0 15 1;
#X connect 15 0 16 0;
#X connect 16 0 18 0;
#X connect 19 0 0 0;
