#N canvas 80 150 1077 771 10;
#X obj 46 275 mtof;
#X obj 46 359 line~;
#X floatatom 46 303 0 0 0 0 - - - 0;
#X floatatom 46 252 5 0 0 0 - - - 0;
#X text 86 253 MIDI note number;
#X text 96 302 frequency;
#X obj 54 708 dac~;
#X obj 84 624 hsl 128 15 0 127 0 0 empty empty empty -2 -8 0 10 #fcfcfc #000000 #000000 0 1;
#X obj 80 652 dbtorms;
#X obj 54 678 *~;
#X obj 16 13 tgl 15 0 empty empty empty 17 7 0 10 #fcfcfc #000000 #000000 0 1;
#X msg 16 35 \; pd dsp \$1;
#N canvas 0 22 450 300 (subpatch) 0;
#X array \$0-spectrum 512 float 0;
#X coords 0 1 512 0 400 140 1;
#X restore 555 581 graph;
#X msg 46 334 \$1 20;
#X obj 46 190 loadbang;
#X msg 46 216 72;
#X obj 79 401 bl-saw.mmb~;
#X text 923 731 .mmb;
#N canvas 0 22 840 376 select 0;
#X obj 77 70 inlet~;
#X obj 147 70 inlet~;
#X obj 217 70 inlet~;
#X obj 287 70 inlet~;
#X obj 387 70 inlet;
#X obj 77 249 *~;
#X obj 92 226 == 0;
#X obj 147 249 *~;
#X obj 217 249 *~;
#X obj 287 249 *~;
#X obj 162 226 == 1;
#X obj 232 226 == 2;
#X obj 302 226 == 3;
#X obj 83 316 outlet~;
#X obj 387 181 f;
#X msg 387 129 0;
#X msg 438 128 1;
#X msg 490 128 2;
#X msg 542 127 3;
#X obj 387 100 route osc~ bl-saw.mmb~ phasor~ noise~;
#X obj 459 46 loadbang;
#X msg 459 69 osc~;
#X connect 0 0 5 0;
#X connect 1 0 7 0;
#X connect 2 0 8 0;
#X connect 3 0 9 0;
#X connect 4 0 19 0;
#X connect 5 0 13 0;
#X connect 6 0 5 1;
#X connect 7 0 13 0;
#X connect 8 0 13 0;
#X connect 9 0 13 0;
#X connect 10 0 7 1;
#X connect 11 0 8 1;
#X connect 12 0 9 1;
#X connect 14 0 6 0;
#X connect 14 0 10 0;
#X connect 14 0 11 0;
#X connect 14 0 12 0;
#X connect 15 0 14 0;
#X connect 16 0 14 0;
#X connect 17 0 14 0;
#X connect 18 0 14 0;
#X connect 19 0 15 0;
#X connect 19 1 16 0;
#X connect 19 2 17 0;
#X connect 19 3 18 0;
#X connect 20 0 21 0;
#X connect 21 0 19 0;
#X restore 100 502 pd select;
#X obj 46 401 osc~;
#X obj 153 401 phasor~;
#X obj 202 401 noise~;
#X msg 205 447 osc~;
#X msg 205 469 bl-saw.mmb~;
#X msg 205 492 phasor~;
#X msg 205 513 noise~;
#X text 202 427 select generator;
#X msg 314 30 plot \$1;
#X obj 296 31 tgl 15 0 empty empty empty 17 7 0 10 #fcfcfc #000000 #000000 0 1;
#X floatatom 312 54 5 0 0 0 - - - 0;
#X msg 308 72 refresh \$1;
#X text 372 32 turn plotting on and off (default: 1);
#X text 379 72 refresh rate in ms for writing to the array (default: 100);
#X msg 309 89 linamp \$1;
#X obj 290 90 tgl 15 0 empty empty empty 17 7 0 10 #fcfcfc #000000 #000000 0 1;
#X floatatom 308 109 5 0 0 0 - - - 0;
#X floatatom 353 106 5 0 0 0 - - - 0;
#X obj 308 123 pack f f;
#X msg 308 144 dbrange \$1 \$2;
#X floatatom 318 174 5 0 0 0 - - - 0;
#X floatatom 363 177 5 0 0 0 - - - 0;
#X obj 318 193 pack f f;
#X msg 318 214 amprange \$1 \$2;
#X text 413 203 amplitude range when in raw amp mode. Minimum is 0 (default: 0 1);
#X obj 282 236 tgl 15 0 empty empty empty 17 7 0 10 #fcfcfc #000000 #000000 0 1;
#X msg 301 236 logfreq \$1;
#X text 373 234 use logarithmic frequency range (default: 0);
#X text 374 79 use linear raw amplitude instead of logarithmic dB amplitude (default: 0);
#X obj 163 574 spectrum.mmb~ \$0-spectrum;
#X msg 308 283 full \$1;
#X obj 308 262 tgl 15 0 empty empty empty 17 7 0 10 #fcfcfc #000000 #000000 0 1;
#X text 365 275 1 = plot full spectrum from 0 to SR. 0 = plot half spectrum from 0 to Nyquist. (default: 0);
#X text 397 122 amplitude range when in dB amp mode. 0 dB = unity (not Pd's standard of 100 dB). Minimum is -100 (default: -90 0) You can even make it upside-down \, if you like.;
#X connect 0 0 2 0;
#X connect 1 0 16 0;
#X connect 1 0 19 0;
#X connect 1 0 20 0;
#X connect 2 0 13 0;
#X connect 3 0 0 0;
#X connect 7 0 8 0;
#X connect 8 0 9 1;
#X connect 9 0 6 1;
#X connect 9 0 6 0;
#X connect 10 0 11 0;
#X connect 13 0 1 0;
#X connect 14 0 15 0;
#X connect 15 0 3 0;
#X connect 16 0 18 1;
#X connect 18 0 9 0;
#X connect 18 0 48 0;
#X connect 19 0 18 0;
#X connect 20 0 18 2;
#X connect 21 0 18 3;
#X connect 22 0 18 4;
#X connect 23 0 18 4;
#X connect 24 0 18 4;
#X connect 25 0 18 4;
#X connect 27 0 48 1;
#X connect 28 0 27 0;
#X connect 29 0 30 0;
#X connect 30 0 48 1;
#X connect 33 0 48 1;
#X connect 34 0 33 0;
#X connect 35 0 37 0;
#X connect 36 0 37 1;
#X connect 37 0 38 0;
#X connect 38 0 48 1;
#X connect 39 0 41 0;
#X connect 40 0 41 1;
#X connect 41 0 42 0;
#X connect 42 0 48 1;
#X connect 44 0 45 0;
#X connect 45 0 48 1;
#X connect 49 0 48 1;
#X connect 50 0 49 0;
