#N canvas 559 165 450 300 12;
#X obj 31 34 inlet trigger;
#X obj 31 58 f \$1;
#X msg 31 82 1 1 0 \, 0 \$1 1;
#X obj 31 106 vline~;
#X obj 31 130 *~;
#X obj 31 154 outlet~ ssignal;
#X connect 0 0 1 0;
#X connect 1 0 2 0;
#X connect 2 0 3 0;
#X connect 3 0 4 0;
#X connect 4 0 5 0;
