#N canvas 24 377 952 582 12;
#X obj 190 322 bpm;
#X floatatom 169 101 5 0 0 1 msec - - 0;
#X floatatom 126 102 3 40 400 0 bpm - - 0;
#X obj 139 127 vradio 14 1 0 8 empty empty empty 0 -10 0 12 #fcfcfc #000000 #000000 0;
#X obj 54 199 metro;
#X obj 54 163 tgl 19 0 empty empty empty 0 -10 0 12 #fcfcfc #000000 #000000 0 1;
#N canvas 0 22 450 278 (subpatch) 0;
#X array tabwrite-ex 31 float 2;
#X coords 0 9 31 2 200 150 1 0 0;
#X restore 315 14 graph;
#X obj 140 432 tabread tabwrite-ex;
#X msg 45 512 \; tabwrite-ex 0 5 9 5 7 3 4 7 3 7 3 4 7 6 5 9 5 5 7 5 3 3 3 4 3 3 3 5 3 3 3 2;
#X text 157 139 8th;
#X text 157 151 4th;
#X obj 54 362 f;
#X obj 82 362 + 1;
#X floatatom 140 402 3 0 0 0 k - - 12;
#X floatatom 135 244 3 0 0 0 - - - 8;
#X obj 303 353 sel 7 8 9 12 21 23 25 26 27 28 29 30 31, f 21;
#X obj 53 384 % 32;
#X obj 340 419 bng 19 250 50 0 empty empty empty 0 -10 0 12 #fcfcfc #000000 #000000;
#X obj 447 391 bng 19 250 50 0 empty empty empty 0 -10 0 12 #fcfcfc #000000 #000000;
#X msg 340 443 2;
#X msg 447 415 1;
#X floatatom 53 450 5 0 0 0 - - - 0;
#X obj 51 481 t f;
#X obj 54 277 counter 0 1 9;
#X obj 54 234 bng 19 250 50 0 empty empty empty 0 -10 0 12 #fcfcfc #000000 #000000;
#X obj 135 301 bng 19 250 50 0 empty empty empty 0 -10 0 12 #0400ff #c7c6ff #c6ffc7;
#X obj 112 301 bng 19 250 50 0 empty empty empty 0 -10 0 12 #ff0400 #131255 #ffc7c6;
#X msg 79 162 0;
#X msg 180 252 89;
#X obj 156 231 loadbang;
#X obj 3 325 outlet;
#X connect 0 0 1 0;
#X connect 1 0 4 1;
#X connect 2 0 0 0;
#X connect 3 0 0 1;
#X connect 4 0 24 0;
#X connect 5 0 4 0;
#X connect 7 0 21 0;
#X connect 11 0 12 0;
#X connect 11 0 16 0;
#X connect 12 0 11 1;
#X connect 13 0 7 0;
#X connect 13 0 15 0;
#X connect 14 0 25 0;
#X connect 15 0 17 0;
#X connect 15 1 17 0;
#X connect 15 2 17 0;
#X connect 15 3 17 0;
#X connect 15 4 17 0;
#X connect 15 5 17 0;
#X connect 15 6 17 0;
#X connect 15 7 17 0;
#X connect 15 8 17 0;
#X connect 15 9 17 0;
#X connect 15 10 17 0;
#X connect 15 11 17 0;
#X connect 15 12 17 0;
#X connect 15 13 18 0;
#X connect 16 0 13 0;
#X connect 17 0 19 0;
#X connect 18 0 20 0;
#X connect 19 0 3 0;
#X connect 20 0 3 0;
#X connect 21 0 22 0;
#X connect 22 0 23 4;
#X connect 23 0 14 0;
#X connect 23 0 30 0;
#X connect 23 2 26 0;
#X connect 24 0 23 0;
#X connect 26 0 11 0;
#X connect 26 0 13 0;
#X connect 27 0 11 0;
#X connect 28 0 2 0;
#X connect 29 0 28 0;
#X connect 29 0 8 0;
#X coords 0 -1 1 1 200 360 2 100 100;
