#N canvas 744 394 1039 486 12;
#X msg 150 15 i;
#X msg 182 15 I;
#X msg 214 15 E;
#X msg 246 15 ae;
#X msg 303 15 ^;
#X msg 360 15 u;
#X msg 391 15 U;
#X msg 425 15 &;
#X msg 457 15 A;
#X obj 233 65 route i I E ae ^ u U & A;
#X msg 236 94 280 2250 2900;
#X msg 236 124 400 1900 2550;
#X msg 234 154 550 1770 2490;
#X msg 238 182 690 1660 2490;
#X msg 236 214 640 1190 2390;
#X msg 238 238 310 870 2250, f 13;
#X msg 237 264 450 1030 2380;
#X msg 235 294 500 1500 2500;
#X msg 234 327 710 1100 2640;
#X obj 207 354 unpack f f f;
#X obj 26 144 sig~ 1;
#X obj 80 166 sig~ 50;
#X obj 80 190 osc~;
#X obj 80 214 *~ 24;
#X obj 80 238 *~;
#X obj 60 288 /~;
#X obj 79 263 +~ 1;
#X obj 60 312 -~ 0.5;
#X obj 9 351 bp~ 1 34;
#X obj 73 351 bp~ 1 34;
#X obj 138 350 bp~ 1 34;
#X obj 65 404 clip~ -1 1;
#X obj 65 428 dac~;
#X obj 458 111 spectrum.mmb~ \$0-sops;
#N canvas 0 22 450 300 (subpatch) 0;
#X array \$0-sops 1024 float 0;
#X coords 0 0 1024 1 269 102 1 0 0;
#X restore 329 362 graph;
#X obj 27 27 tgl 15 0 empty empty empty 17 7 0 10 #fcfcfc #000000 #000000 0 1;
#X msg 28 49 \; pd dsp \$1;
#X msg 616 63 plot \$1;
#X obj 616 34 tgl 15 0 empty empty empty 17 7 0 10 #fcfcfc #000000 #000000 0 1;
#X floatatom 627 97 5 0 0 0 - - - 0;
#X msg 627 121 refresh \$1;
#X text 668 63 turn plotting on and off (default: 1);
#X text 698 121 refresh rate in ms for writing to the array (default: 100);
#X msg 636 164 linamp \$1;
#X obj 636 144 tgl 15 0 empty empty empty 17 7 0 10 #fcfcfc #000000 #000000 0 1;
#X floatatom 646 192 5 0 0 0 - - - 0;
#X floatatom 691 193 5 0 0 0 - - - 0;
#X obj 646 218 pack f f;
#X msg 646 239 dbrange \$1 \$2;
#X floatatom 656 263 5 0 0 0 - - - 0;
#X floatatom 701 263 5 0 0 0 - - - 0;
#X obj 656 288 pack f f;
#X msg 656 309 amprange \$1 \$2;
#X obj 667 346 tgl 15 0 empty empty empty 17 7 0 10 #fcfcfc #000000 #000000 0 1;
#X msg 667 370 logfreq \$1;
#X text 701 154 use linear raw amplitude instead of logarithmic dB amplitude (default: 0);
#X msg 674 417 full \$1;
#X obj 674 396 tgl 15 0 empty empty empty 17 7 0 10 #fcfcfc #000000 #000000 0 1;
#X connect 0 0 9 0;
#X connect 1 0 9 0;
#X connect 2 0 9 0;
#X connect 3 0 9 0;
#X connect 4 0 9 0;
#X connect 5 0 9 0;
#X connect 6 0 9 0;
#X connect 7 0 9 0;
#X connect 8 0 9 0;
#X connect 9 0 10 0;
#X connect 9 1 11 0;
#X connect 9 2 12 0;
#X connect 9 3 13 0;
#X connect 9 4 14 0;
#X connect 9 5 15 0;
#X connect 9 6 16 0;
#X connect 9 7 17 0;
#X connect 9 8 18 0;
#X connect 10 0 19 0;
#X connect 11 0 19 0;
#X connect 12 0 19 0;
#X connect 13 0 19 0;
#X connect 14 0 19 0;
#X connect 15 0 19 0;
#X connect 16 0 19 0;
#X connect 17 0 19 0;
#X connect 18 0 19 0;
#X connect 19 0 28 1;
#X connect 19 1 29 1;
#X connect 19 2 30 1;
#X connect 20 0 25 0;
#X connect 21 0 22 0;
#X connect 22 0 23 0;
#X connect 23 0 24 0;
#X connect 23 0 24 1;
#X connect 24 0 26 0;
#X connect 25 0 27 0;
#X connect 26 0 25 1;
#X connect 27 0 28 0;
#X connect 27 0 29 0;
#X connect 27 0 30 0;
#X connect 27 0 33 0;
#X connect 28 0 31 0;
#X connect 29 0 31 0;
#X connect 30 0 31 0;
#X connect 31 0 32 0;
#X connect 31 0 32 1;
#X connect 35 0 36 0;
#X connect 37 0 33 1;
#X connect 38 0 37 0;
#X connect 39 0 40 0;
#X connect 40 0 33 1;
#X connect 43 0 33 1;
#X connect 44 0 43 0;
#X connect 45 0 47 0;
#X connect 46 0 47 1;
#X connect 47 0 48 0;
#X connect 48 0 33 1;
#X connect 49 0 51 0;
#X connect 50 0 51 1;
#X connect 51 0 52 0;
#X connect 52 0 33 1;
#X connect 53 0 54 0;
#X connect 54 0 33 1;
#X connect 56 0 33 1;
#X connect 57 0 56 0;
