#N canvas 52 52 450 300 12;
#X obj 37 37 inlet;
#X obj 37 61 t b;
#X obj 37 85 pack \$1 \$2;
#X msg 37 109 1 \$1 0 \, 0 \$2 \$1;
#X obj 37 133 vline~;
#X obj 37 157 *~;
#X obj 38 230 *~;
#X obj 89 179 noise~;
#X obj 89 203 bp~ \$3 12;
#X obj 38 264 throw~ switchclick;
#X connect 0 0 1 0;
#X connect 1 0 2 0;
#X connect 2 0 3 0;
#X connect 3 0 4 0;
#X connect 4 0 5 0;
#X connect 4 0 5 1;
#X connect 5 0 6 0;
#X connect 6 0 9 0;
#X connect 7 0 8 0;
#X connect 8 0 6 1;
