#N canvas 427 170 791 582 12;
#X obj 135 100 bpm;
#X floatatom 135 124 5 0 0 1 msec - - 0;
#X floatatom 135 78 5 40 400 0 bpm - - 0;
#X obj 244 10 vradio 14 1 0 8 empty empty empty 0 -10 0 12 #fcfcfc #000000 #000000 0;
#N canvas 0 22 450 278 (subpatch) 0;
#X array strvPiece 31 float 2;
#X coords 0 9 31 2 200 150 1 0 0;
#X restore 493 11 graph;
#X text 218 22 8th;
#X text 218 37 4th;
#X obj 52 326 f;
#X obj 80 326 + 1;
#X floatatom 52 384 10 0 0 0 - - - 0;
#X floatatom 63 255 5 0 0 0 - - - 0;
#X obj 62 231 counter 1 9;
#X obj 53 360 % 32;
#X msg 339 510 \; strvPiece 0 5 9 5 7 3 4 7 3 7 3 4 7 6 5 9 5 5 7 5 3 3 3 4 3 3 3 5 3 3 3 2;
#X obj 131 402 tabread strvPiece;
#X obj 127 25 loadbang;
#X msg 127 46 80;
#X obj 62 172 bng 19 250 50 0 empty empty empty 0 -10 0 12 #fcfcfc #000000 #000000;
#X obj 83 172 del;
#X obj 83 194 bng 19 250 50 0 empty empty empty 0 -10 0 12 #fcfcfc #000000 #000000;
#X obj 117 192 del;
#X obj 155 209 bng 19 250 50 0 empty empty empty 0 -10 0 12 #fcfcfc #000000 #000000;
#X obj 282 28 r div;
#X obj 282 52 sel eight quarter;
#X obj 391 451 pack s f f;
#X obj 49 448 route eights;
#X connect 0 0 1 0;
#X connect 1 0 18 1;
#X connect 1 0 20 1;
#X connect 2 0 0 0;
#X connect 7 0 8 0;
#X connect 7 0 12 0;
#X connect 8 0 7 1;
#X connect 9 0 14 0;
#X connect 9 0 25 0;
#X connect 11 0 10 0;
#X connect 12 0 9 0;
#X connect 15 0 16 0;
#X connect 16 0 2 0;
#X connect 17 0 11 0;
#X connect 17 0 18 0;
#X connect 18 0 19 0;
#X connect 19 0 20 0;
#X connect 20 0 21 0;
#X connect 21 0 7 0;
#X connect 22 0 23 0;
