#N canvas 616 167 952 582 12;
#X obj 125 46 bpm;
#X floatatom 223 108 5 0 0 1 msec - - 0;
#X floatatom 129 115 3 40 400 0 bpm - - 0;
#X obj 179 114 vradio 14 1 0 8 empty empty empty 0 -10 0 12 #fcfcfc #000000 #000000 0;
#X obj 31 70 metro;
#X obj 31 34 tgl 19 0 empty empty empty 0 -10 0 12 #fcfcfc #000000 #000000 0 1;
#N canvas 0 22 450 278 (subpatch) 0;
#X array tabx 31 float 2;
#X coords 0 9 31 2 200 150 1 0 0;
#X restore 224 146 graph;
#X text 196 126 8th;
#X text 196 138 4th;
#X obj 54 362 f;
#X obj 82 362 + 1;
#X floatatom 167 398 3 0 0 0 k - - 12;
#X obj 369 378 sel 7 8 9 12 21 23 25 26 27 28 29 30 31, f 21;
#X obj 53 384 % 32;
#X obj 406 444 bng 19 250 50 0 empty empty empty 0 -10 0 12 #fcfcfc #000000 #000000;
#X obj 513 416 bng 19 250 50 0 empty empty empty 0 -10 0 12 #fcfcfc #000000 #000000;
#X msg 406 468 2;
#X msg 513 440 1;
#X floatatom 57 417 5 0 0 0 - - - 0;
#X obj 112 353 counter 0 1 9;
#X obj 152 115 bng 19 60 20 0 empty empty empty 0 -10 0 12 #00ff04 #feffc6 #00faff;
#X obj 115 223 bng 19 320 120 0 empty empty empty 0 -10 0 12 #0400ff #c7c6ff #c6ffc7;
#X obj 169 376 bng 19 250 50 0 empty empty empty 0 -10 0 12 #ff0400 #131255 #ffc7c6;
#X msg 56 33 0;
#X msg 124 547 89;
#X obj 129 527 loadbang;
#X obj 112 203 nbx 5 17 -1e+37 1e+37 0 0 empty empty empty 0 -10 0 12 #fcfcfc #000000 #000000 0 256;
#X obj 115 247 outlet;
#X obj 141 432 tabread tabx;
#X msg 213 504 \; tabx 0 5 9 5 7 3 4 7 3 7 3 4 7 6 5 9 5 5 7 5 3 3 3 4 3 3 3 5 3 3 3 2;
#X obj 54 442 t f b;
#X connect 0 0 1 0;
#X connect 1 0 4 1;
#X connect 2 0 0 0;
#X connect 3 0 0 1;
#X connect 4 0 20 0;
#X connect 5 0 4 0;
#X connect 9 0 10 0;
#X connect 9 0 13 0;
#X connect 10 0 9 1;
#X connect 11 0 12 0;
#X connect 11 0 28 0;
#X connect 12 0 14 0;
#X connect 12 1 14 0;
#X connect 12 2 14 0;
#X connect 12 3 14 0;
#X connect 12 4 14 0;
#X connect 12 5 14 0;
#X connect 12 6 14 0;
#X connect 12 7 14 0;
#X connect 12 8 14 0;
#X connect 12 9 14 0;
#X connect 12 10 14 0;
#X connect 12 11 14 0;
#X connect 12 12 14 0;
#X connect 12 13 15 0;
#X connect 13 0 11 0;
#X connect 14 0 16 0;
#X connect 15 0 17 0;
#X connect 16 0 3 0;
#X connect 17 0 3 0;
#X connect 18 0 30 0;
#X connect 19 0 26 0;
#X connect 19 2 22 0;
#X connect 20 0 19 0;
#X connect 21 0 27 0;
#X connect 22 0 9 0;
#X connect 22 0 11 0;
#X connect 23 0 9 0;
#X connect 24 0 2 0;
#X connect 25 0 24 0;
#X connect 25 0 29 0;
#X connect 26 0 21 0;
#X connect 28 0 18 0;
#X connect 30 0 19 4;
#X connect 30 1 19 0;
#X coords 0 -1 1 1 327 197 2 100 100;
