#N canvas 109 242 691 579 12;
#X obj 41 27 adc~;
#X obj 618 107 env~;
#X obj 162 41 vsl 19 78 0 1 0 0 empty empty empty 0 -9 0 12 #ffffff #ffc7c6 #000000 0 1;
#X obj 26 122 *~;
#X obj 25 157 s~ aadc;
#X obj 626 167 vu 19 200 empty empty -1 -10 0 12 #404040 #000000 1 0;
#X obj 618 131 - 91;
#X obj 555 104 env~;
#X obj 563 164 vu 19 200 empty empty -1 -10 0 12 #404040 #000000 1 0;
#X obj 554 62 r~ aadc;
#X obj 555 128 - 91;
#X obj 179 41 vsl 19 78 0 1 0 0 empty empty empty 0 -9 0 12 #ffffff #ffc7c6 #000000 0 1;
#X obj 109 123 *~;
#X obj 108 158 s~ badc;
#X obj 617 65 r~ badc;
#X connect 0 0 3 0;
#X connect 0 1 12 0;
#X connect 1 0 6 0;
#X connect 2 0 3 1;
#X connect 3 0 4 0;
#X connect 6 0 5 0;
#X connect 7 0 10 0;
#X connect 9 0 7 0;
#X connect 10 0 8 0;
#X connect 11 0 12 1;
#X connect 12 0 13 0;
#X connect 14 0 1 0;
