#N canvas 102 110 1320 699 12;
#X obj 79 233 tgl 19 0 empty empty empty 0 -10 0 12 #fcfcfc #000000 #000000 0 1;
#X obj 79 257 bng 19 250 50 0 empty empty empty 0 -10 0 12 #fcfcfc #000000 #000000;
#X obj 82 206 bng 19 250 50 0 empty empty empty 0 -10 0 12 #fcfcfc #000000 #000000;
#X obj 109 233 tgl 19 0 empty empty empty 0 -10 0 12 #fcfcfc #000000 #000000 0 1;
#X obj 109 257 bng 19 250 50 0 empty empty empty 0 -10 0 12 #fcfcfc #000000 #000000;
#X obj 112 206 bng 19 250 50 0 empty empty empty 0 -10 0 12 #fcfcfc #000000 #000000;
#X obj 139 233 tgl 19 0 empty empty empty 0 -10 0 12 #fcfcfc #000000 #000000 0 1;
#X obj 139 257 bng 19 250 50 0 empty empty empty 0 -10 0 12 #fcfcfc #000000 #000000;
#X obj 142 206 bng 19 250 50 0 empty empty empty 0 -10 0 12 #fcfcfc #000000 #000000;
#X obj 169 233 tgl 19 0 empty empty empty 0 -10 0 12 #fcfcfc #000000 #000000 0 1;
#X obj 169 257 bng 19 250 50 0 empty empty empty 0 -10 0 12 #fcfcfc #000000 #000000;
#X obj 172 206 bng 19 250 50 0 empty empty empty 0 -10 0 12 #fcfcfc #000000 #000000;
#X obj 199 233 tgl 19 0 empty empty empty 0 -10 0 12 #fcfcfc #000000 #000000 0 1;
#X obj 199 257 bng 19 250 50 0 empty empty empty 0 -10 0 12 #fcfcfc #000000 #000000;
#X obj 202 206 bng 19 250 50 0 empty empty empty 0 -10 0 12 #fcfcfc #000000 #000000;
#X obj 229 233 tgl 19 0 empty empty empty 0 -10 0 12 #fcfcfc #000000 #000000 0 1;
#X obj 229 257 bng 19 250 50 0 empty empty empty 0 -10 0 12 #fcfcfc #000000 #000000;
#X obj 232 206 bng 19 250 50 0 empty empty empty 0 -10 0 12 #fcfcfc #000000 #000000;
#X obj 259 233 tgl 19 0 empty empty empty 0 -10 0 12 #fcfcfc #000000 #000000 0 1;
#X obj 259 257 bng 19 250 50 0 empty empty empty 0 -10 0 12 #fcfcfc #000000 #000000;
#X obj 262 206 bng 19 250 50 0 empty empty empty 0 -10 0 12 #fcfcfc #000000 #000000;
#X obj 289 233 tgl 19 0 empty empty empty 0 -10 0 12 #fcfcfc #000000 #000000 0 1;
#X obj 289 257 bng 19 250 50 0 empty empty empty 0 -10 0 12 #fcfcfc #000000 #000000;
#X obj 292 206 bng 19 250 50 0 empty empty empty 0 -10 0 12 #fcfcfc #000000 #000000;
#X obj 319 233 tgl 19 0 empty empty empty 0 -10 0 12 #fcfcfc #000000 #000000 0 1;
#X obj 319 257 bng 19 250 50 0 empty empty empty 0 -10 0 12 #fcfcfc #000000 #000000;
#X obj 322 206 bng 19 250 50 0 empty empty empty 0 -10 0 12 #fcfcfc #000000 #000000;
#X obj 349 233 tgl 19 0 empty empty empty 0 -10 0 12 #fcfcfc #000000 #000000 0 1;
#X obj 349 257 bng 19 250 50 0 empty empty empty 0 -10 0 12 #fcfcfc #000000 #000000;
#X obj 352 206 bng 19 250 50 0 empty empty empty 0 -10 0 12 #fcfcfc #000000 #000000;
#X obj 379 233 tgl 19 0 empty empty empty 0 -10 0 12 #fcfcfc #000000 #000000 0 1;
#X obj 379 257 bng 19 250 50 0 empty empty empty 0 -10 0 12 #fcfcfc #000000 #000000;
#X obj 382 206 bng 19 250 50 0 empty empty empty 0 -10 0 12 #fcfcfc #000000 #000000;
#X obj 409 233 tgl 19 0 empty empty empty 0 -10 0 12 #fcfcfc #000000 #000000 0 1;
#X obj 409 257 bng 19 250 50 0 empty empty empty 0 -10 0 12 #fcfcfc #000000 #000000;
#X obj 412 206 bng 19 250 50 0 empty empty empty 0 -10 0 12 #fcfcfc #000000 #000000;
#X obj 76 172 sel 0 1 2 3 4 5 6 7 8 9 10 11, f 52;
#X obj 11 327 outlet;
#X obj 60 327 outlet;
#X obj 109 327 outlet;
#X obj 158 327 outlet;
#X obj 207 326 outlet;
#X obj 256 326 outlet;
#X obj 305 326 outlet;
#X obj 354 326 outlet;
#X obj 404 326 outlet;
#X obj 453 326 outlet;
#X obj 502 326 outlet;
#X obj 613 256 outlet;
#X obj 611 79 unpack f f f f f f f f f f f f;
#X obj 611 28 inlet;
#X obj 612 212 spigot;
#X floatatom 613 234 5 0 0 0 - - - 0;
#X obj 651 188 expr if($f1 ==0 \, 0 \, 1);
#N canvas 432 516 450 300 which 0;
#X obj 71 44 loadbang;
#X obj 76 145 f;
#X obj 106 144 + 1;
#X obj 136 144 % 4;
#X floatatom 159 121 5 0 0 0 - - - 0;
#X obj 164 95 f \$1;
#X obj 246 26 f \$2;
#X msg 245 69 tempo \$1 permin;
#X floatatom 246 49 5 0 0 0 - - - 0;
#X obj 71 83 tgl 19 0 empty empty empty 0 -10 0 12 #fcfcfc #000000 #000000 0 1;
#X obj 18 121 metro 1 120 permin;
#X obj 81 198 outlet;
#X connect 0 0 5 0;
#X connect 0 0 9 0;
#X connect 0 0 6 0;
#X connect 1 0 2 0;
#X connect 1 0 3 0;
#X connect 2 0 1 1;
#X connect 3 0 11 0;
#X connect 4 0 3 1;
#X connect 5 0 4 0;
#X connect 6 0 8 0;
#X connect 7 0 10 0;
#X connect 8 0 7 0;
#X connect 9 0 10 0;
#X connect 10 0 1 0;
#X restore 75 106 pd which;
#X obj 821 249 outlet;
#X obj 820 205 spigot;
#X floatatom 821 227 5 0 0 0 - - - 0;
#X obj 859 181 expr if($f1 ==0 \, 0 \, 1);
#X obj 1017 249 outlet;
#X obj 1016 205 spigot;
#X floatatom 1017 227 5 0 0 0 - - - 0;
#X obj 1055 181 expr if($f1 ==0 \, 0 \, 1);
#X obj 622 376 outlet;
#X obj 621 332 spigot;
#X floatatom 622 354 5 0 0 0 - - - 0;
#X obj 660 308 expr if($f1 ==0 \, 0 \, 1);
#X obj 830 369 outlet;
#X obj 829 325 spigot;
#X floatatom 830 347 5 0 0 0 - - - 0;
#X obj 868 301 expr if($f1 ==0 \, 0 \, 1);
#X obj 1026 369 outlet;
#X obj 1025 325 spigot;
#X floatatom 1026 347 5 0 0 0 - - - 0;
#X obj 1064 301 expr if($f1 ==0 \, 0 \, 1);
#X obj 622 491 outlet;
#X obj 619 401 expr $f1/10;
#X obj 621 447 spigot;
#X floatatom 622 469 5 0 0 0 - - - 0;
#X obj 660 423 expr if($f1 ==0 \, 0 \, 1);
#X obj 830 484 outlet;
#X obj 827 394 expr $f1/10;
#X obj 829 440 spigot;
#X floatatom 830 462 5 0 0 0 - - - 0;
#X obj 868 416 expr if($f1 ==0 \, 0 \, 1);
#X obj 1026 484 outlet;
#X obj 1023 394 expr $f1/10;
#X obj 1025 440 spigot;
#X floatatom 1026 462 5 0 0 0 - - - 0;
#X obj 1064 416 expr if($f1 ==0 \, 0 \, 1);
#X obj 624 613 outlet;
#X obj 621 523 expr $f1/10;
#X obj 623 569 spigot;
#X floatatom 624 591 5 0 0 0 - - - 0;
#X obj 662 545 expr if($f1 ==0 \, 0 \, 1);
#X obj 832 606 outlet;
#X obj 829 516 expr $f1/10;
#X obj 831 562 spigot;
#X floatatom 832 584 5 0 0 0 - - - 0;
#X obj 870 538 expr if($f1 ==0 \, 0 \, 1);
#X obj 1028 606 outlet;
#X obj 1025 516 expr $f1/10;
#X obj 1027 562 spigot;
#X floatatom 1028 584 5 0 0 0 - - - 0;
#X obj 1066 538 expr if($f1 ==0 \, 0 \, 1);
#X msg 686 33 0 2 3 0.1 4 5 6 7 8 9 10 11;
#X obj 610 166 expr $f1/100;
#X obj 818 159 expr $f1/90;
#X obj 1014 159 expr $f1/80;
#X obj 619 286 expr $f1/70;
#X obj 827 279 expr $f1/60;
#X obj 1023 279 expr $f1/50;
#X connect 0 0 1 0;
#X connect 1 0 37 0;
#X connect 2 0 0 0;
#X connect 3 0 4 0;
#X connect 4 0 38 0;
#X connect 5 0 3 0;
#X connect 6 0 7 0;
#X connect 7 0 39 0;
#X connect 8 0 6 0;
#X connect 9 0 10 0;
#X connect 10 0 40 0;
#X connect 11 0 9 0;
#X connect 12 0 13 0;
#X connect 13 0 41 0;
#X connect 14 0 12 0;
#X connect 15 0 16 0;
#X connect 16 0 42 0;
#X connect 17 0 15 0;
#X connect 18 0 19 0;
#X connect 19 0 43 0;
#X connect 20 0 18 0;
#X connect 21 0 22 0;
#X connect 22 0 44 0;
#X connect 23 0 21 0;
#X connect 24 0 25 0;
#X connect 25 0 45 0;
#X connect 26 0 24 0;
#X connect 27 0 28 0;
#X connect 28 0 46 0;
#X connect 29 0 27 0;
#X connect 30 0 31 0;
#X connect 31 0 47 0;
#X connect 32 0 30 0;
#X connect 33 0 34 0;
#X connect 35 0 33 0;
#X connect 36 0 2 0;
#X connect 36 1 5 0;
#X connect 36 2 8 0;
#X connect 36 3 11 0;
#X connect 36 4 14 0;
#X connect 36 5 17 0;
#X connect 36 6 20 0;
#X connect 36 7 23 0;
#X connect 36 8 26 0;
#X connect 36 9 29 0;
#X connect 36 10 32 0;
#X connect 36 11 35 0;
#X connect 49 0 53 0;
#X connect 49 0 106 0;
#X connect 49 1 58 0;
#X connect 49 1 107 0;
#X connect 49 2 62 0;
#X connect 49 2 108 0;
#X connect 49 3 66 0;
#X connect 49 3 109 0;
#X connect 49 4 70 0;
#X connect 49 4 110 0;
#X connect 49 5 74 0;
#X connect 49 5 111 0;
#X connect 49 6 76 0;
#X connect 49 6 79 0;
#X connect 49 7 81 0;
#X connect 49 7 84 0;
#X connect 49 8 86 0;
#X connect 49 8 89 0;
#X connect 49 9 91 0;
#X connect 49 9 94 0;
#X connect 49 10 96 0;
#X connect 49 10 99 0;
#X connect 49 11 101 0;
#X connect 49 11 104 0;
#X connect 50 0 49 0;
#X connect 51 0 52 0;
#X connect 52 0 48 0;
#X connect 53 0 51 1;
#X connect 54 0 36 0;
#X connect 56 0 57 0;
#X connect 57 0 55 0;
#X connect 58 0 56 1;
#X connect 60 0 61 0;
#X connect 61 0 59 0;
#X connect 62 0 60 1;
#X connect 64 0 65 0;
#X connect 65 0 63 0;
#X connect 66 0 64 1;
#X connect 68 0 69 0;
#X connect 69 0 67 0;
#X connect 70 0 68 1;
#X connect 72 0 73 0;
#X connect 73 0 71 0;
#X connect 74 0 72 1;
#X connect 76 0 77 0;
#X connect 77 0 78 0;
#X connect 78 0 75 0;
#X connect 79 0 77 1;
#X connect 81 0 82 0;
#X connect 82 0 83 0;
#X connect 83 0 80 0;
#X connect 84 0 82 1;
#X connect 86 0 87 0;
#X connect 87 0 88 0;
#X connect 88 0 85 0;
#X connect 89 0 87 1;
#X connect 91 0 92 0;
#X connect 92 0 93 0;
#X connect 93 0 90 0;
#X connect 94 0 92 1;
#X connect 96 0 97 0;
#X connect 97 0 98 0;
#X connect 98 0 95 0;
#X connect 99 0 97 1;
#X connect 101 0 102 0;
#X connect 102 0 103 0;
#X connect 103 0 100 0;
#X connect 104 0 102 1;
#X connect 105 0 49 0;
#X connect 106 0 51 0;
#X connect 107 0 56 0;
#X connect 108 0 60 0;
#X connect 109 0 64 0;
#X connect 110 0 68 0;
#X connect 111 0 72 0;
