#N canvas 170 532 450 300 12;
#X obj 78 110 inlet trigger;
#X obj 78 134 t b b;
#X obj 78 158 f \$1;
#X obj 131 158 f \$2;
#X obj 78 182 pack f f;
#X msg 78 203 0 0 0 \, 1 \$1 0 \, 0 \$2 \$1;
#X obj 78 227 vline~;
#X obj 78 251 outlet~;
#X floatatom 208 82 5 0 0 0 - - - 0;
#X floatatom 115 62 5 0 0 0 - - - 0;
#X obj 105 32 inlet att;
#X obj 232 43 inlet decay;
#X connect 0 0 1 0;
#X connect 1 0 2 0;
#X connect 1 1 3 0;
#X connect 2 0 4 0;
#X connect 3 0 4 1;
#X connect 4 0 5 0;
#X connect 5 0 6 0;
#X connect 6 0 7 0;
#X connect 8 0 3 1;
#X connect 9 0 2 1;
#X connect 10 0 9 0;
#X connect 11 0 8 0;
