#N canvas 89 40 796 653 12;
#X obj 105 320 inlet bpm;
#X obj 106 375 bng 19 250 50 0 empty empty empty 0 -10 0 12 #fcfcfc #000000 #000000;
#X obj 125 399 int;
#X obj 125 423 t b f;
#X msg 125 447 60000;
#X obj 125 471 /;
#X obj 125 495 int;
#X floatatom 125 519 5 0 0 0 - - - 0;
#X obj 265 348 t b f;
#X obj 234 540 *;
#X floatatom 234 564 5 0 0 0 - - - 0;
#X floatatom 397 249 5 0 0 0 - - - 0;
#X msg 477 129 2;
#X msg 435 131 1;
#X msg 400 131 0;
#X obj 395 203 expr pow(2 \, $f1);
#X msg 513 130 3;
#X msg 544 131 4;
#X msg 577 130 5;
#X floatatom 536 319 5 0 0 0 - - - 0;
#X msg 581 229 2;
#X msg 539 231 1;
#X msg 617 230 3;
#X msg 648 231 4;
#X msg 679 231 5;
#X obj 534 273 expr pow(3 \, $f1);
#X obj 363 63 sel 0 1 2 3 4 5 6 7 8 9;
#X obj 522 362 change;
#X obj 522 386 swap 1;
#X obj 522 410 /;
#X obj 522 435 * 4;
#X floatatom 521 462 5 0 0 0 - - - 0;
#X obj 212 277 inlet d;
#X obj 284 602 outlet;
#X connect 0 0 1 0;
#X connect 0 0 2 1;
#X connect 1 0 2 0;
#X connect 2 0 3 0;
#X connect 3 0 4 0;
#X connect 3 1 5 1;
#X connect 4 0 5 0;
#X connect 5 0 6 0;
#X connect 6 0 7 0;
#X connect 7 0 9 0;
#X connect 8 0 2 0;
#X connect 8 1 26 0;
#X connect 9 0 10 0;
#X connect 9 0 33 0;
#X connect 11 0 27 0;
#X connect 12 0 15 0;
#X connect 13 0 15 0;
#X connect 14 0 15 0;
#X connect 15 0 11 0;
#X connect 16 0 15 0;
#X connect 17 0 15 0;
#X connect 18 0 15 0;
#X connect 19 0 27 0;
#X connect 20 0 25 0;
#X connect 21 0 25 0;
#X connect 22 0 25 0;
#X connect 23 0 25 0;
#X connect 24 0 25 0;
#X connect 25 0 19 0;
#X connect 26 0 14 0;
#X connect 26 1 13 0;
#X connect 26 2 12 0;
#X connect 26 3 16 0;
#X connect 26 4 17 0;
#X connect 26 5 18 0;
#X connect 26 6 21 0;
#X connect 26 7 20 0;
#X connect 26 8 22 0;
#X connect 26 9 23 0;
#X connect 26 10 24 0;
#X connect 27 0 28 0;
#X connect 28 0 29 0;
#X connect 28 1 29 1;
#X connect 29 0 30 0;
#X connect 30 0 31 0;
#X connect 31 0 9 1;
#X connect 32 0 8 0;
