#N canvas 125 359 528 300 12;
#X obj 146 40 inlet;
#X obj 110 98 expr $f1 \; $f1 * 2 \; $f1 * (2+3/2) \; $f1 * 4 \; $f1 * (4 + 4/3) \; $f1 * 5 \;;
#X floatatom 112 223 6 0 0 0 - - - 0;
#X floatatom 156 223 6 0 0 0 - - - 0;
#X floatatom 200 223 6 0 0 0 - - - 0;
#X floatatom 244 223 6 0 0 0 - - - 0;
#X floatatom 288 223 6 0 0 0 - - - 0;
#X floatatom 332 223 9 0 0 0 - - - 0;
#X obj 112 272 outlet;
#X obj 112 246 pack f f f f f f;
#X obj 111 75 f \$1;
#X obj 58 30 loadbang;
#X connect 0 0 10 1;
#X connect 1 0 2 0;
#X connect 1 0 9 0;
#X connect 1 1 3 0;
#X connect 1 1 9 1;
#X connect 1 2 4 0;
#X connect 1 2 9 2;
#X connect 1 3 5 0;
#X connect 1 3 9 3;
#X connect 1 4 6 0;
#X connect 1 4 9 4;
#X connect 1 5 7 0;
#X connect 1 5 9 5;
#X connect 9 0 8 0;
#X connect 10 0 1 0;
#X connect 11 0 10 0;
