#N canvas 92 347 682 431 12;
#X obj 213 59 inlet;
#X obj 201 220 osc~;
#X obj 239 219 osc~;
#X obj 277 219 osc~;
#X obj 315 218 osc~;
#X obj 355 217 osc~;
#X obj 395 215 osc~;
#X obj 433 214 osc~;
#X obj 471 214 osc~;
#X obj 509 213 osc~;
#X obj 223 278 *~ 0.1;
#X obj 202 335 outlet~;
#X obj 213 83 unpack f f f f f f f f f;
#X connect 0 0 12 0;
#X connect 1 0 10 0;
#X connect 2 0 10 0;
#X connect 3 0 10 0;
#X connect 4 0 10 0;
#X connect 5 0 10 0;
#X connect 6 0 10 0;
#X connect 7 0 10 0;
#X connect 8 0 10 0;
#X connect 9 0 10 0;
#X connect 10 0 11 0;
#X connect 12 0 1 0;
#X connect 12 1 2 0;
#X connect 12 2 3 0;
#X connect 12 3 4 0;
#X connect 12 4 5 0;
#X connect 12 5 6 0;
#X connect 12 6 7 0;
#X connect 12 7 8 0;
#X connect 12 8 9 0;
